{"glyphs":{"0":{"ha":889,"x_min":68,"x_max":821,"o":"m 68 675 q 91 730 68 707 q 147 753 114 753 q 202 730 179 753 q 225 675 225 707 q 202 619 225 642 q 147 596 179 596 q 91 619 114 596 q 68 675 68 642 m 68 476 q 91 531 68 508 q 147 554 114 554 q 202 531 179 554 q 225 476 225 508 q 202 420 225 443 q 147 397 179 397 q 91 420 114 397 q 68 476 68 443 m 68 278 q 91 333 68 310 q 147 356 114 356 q 202 333 179 356 q 225 278 225 310 q 202 222 225 244 q 147 199 179 199 q 91 222 114 199 q 68 278 68 244 m 267 874 q 290 928 267 906 q 346 951 313 951 q 401 928 378 951 q 424 874 424 906 q 401 817 424 840 q 346 794 378 794 q 290 817 313 794 q 267 874 267 840 m 267 79 q 290 134 267 111 q 346 157 313 157 q 401 134 378 157 q 424 79 424 111 q 401 23 424 46 q 346 0 378 0 q 290 23 313 0 q 267 79 267 46 m 465 874 q 488 928 465 906 q 543 951 511 951 q 599 928 576 951 q 622 874 622 906 q 599 817 622 840 q 543 794 576 794 q 488 817 511 794 q 465 874 465 840 m 465 79 q 488 134 465 111 q 543 157 511 157 q 599 134 576 157 q 622 79 622 111 q 599 23 622 46 q 543 0 576 0 q 488 23 511 0 q 465 79 465 46 m 664 675 q 687 730 664 707 q 742 753 710 753 q 798 730 775 753 q 821 675 821 707 q 798 619 821 642 q 742 596 775 596 q 687 619 710 596 q 664 675 664 642 m 664 476 q 687 531 664 508 q 742 554 710 554 q 798 531 775 554 q 821 476 821 508 q 798 420 821 443 q 742 397 775 397 q 687 420 710 397 q 664 476 664 443 m 664 278 q 687 333 664 310 q 742 356 710 356 q 798 333 775 356 q 821 278 821 310 q 798 222 821 244 q 742 199 775 199 q 687 222 710 199 q 664 278 664 244 z "},"1":{"ha":689,"x_min":67,"x_max":622,"o":"m 67 675 q 90 730 67 707 q 146 753 114 753 q 201 730 178 753 q 225 675 225 707 q 201 619 225 642 q 146 596 178 596 q 90 619 114 596 q 67 675 67 642 m 67 79 q 90 134 67 111 q 146 157 114 157 q 201 134 178 157 q 225 79 225 111 q 201 23 225 46 q 146 0 178 0 q 90 23 114 0 q 67 79 67 46 m 265 874 q 289 928 265 906 q 344 951 313 951 q 400 928 376 951 q 424 874 424 906 q 400 817 424 840 q 344 794 376 794 q 289 817 313 794 q 265 874 265 840 m 265 675 q 289 730 265 707 q 344 753 313 753 q 400 730 376 753 q 424 675 424 707 q 400 619 424 642 q 344 596 376 596 q 289 619 313 596 q 265 675 265 642 m 265 476 q 289 531 265 508 q 344 554 313 554 q 400 531 376 554 q 424 476 424 508 q 400 420 424 443 q 344 397 376 397 q 289 420 313 397 q 265 476 265 443 m 265 278 q 289 333 265 310 q 344 356 313 356 q 400 333 376 356 q 424 278 424 310 q 400 222 424 244 q 344 199 376 199 q 289 222 313 199 q 265 278 265 244 m 265 79 q 289 134 265 111 q 344 157 313 157 q 400 134 376 157 q 424 79 424 111 q 400 23 424 46 q 344 0 376 0 q 289 23 313 0 q 265 79 265 46 m 464 79 q 488 134 464 111 q 543 157 511 157 q 599 134 575 157 q 622 79 622 111 q 599 23 622 46 q 543 0 575 0 q 488 23 511 0 q 464 79 464 46 z "},"2":{"ha":889,"x_min":68,"x_max":821,"o":"m 68 874 q 91 928 68 906 q 147 951 114 951 q 202 928 179 951 q 225 874 225 906 q 202 817 225 840 q 147 794 179 794 q 91 817 114 794 q 68 874 68 840 m 68 278 q 91 333 68 310 q 147 356 114 356 q 202 333 179 356 q 225 278 225 310 q 202 222 225 244 q 147 199 179 199 q 91 222 114 199 q 68 278 68 244 m 68 79 q 91 134 68 111 q 147 157 114 157 q 202 134 179 157 q 225 79 225 111 q 202 23 225 46 q 147 0 179 0 q 91 23 114 0 q 68 79 68 46 m 267 874 q 290 928 267 906 q 346 951 313 951 q 401 928 378 951 q 424 874 424 906 q 401 817 424 840 q 346 794 378 794 q 290 817 313 794 q 267 874 267 840 m 267 476 q 290 531 267 508 q 346 554 313 554 q 401 531 378 554 q 424 476 424 508 q 401 420 424 443 q 346 397 378 397 q 290 420 313 397 q 267 476 267 443 m 267 79 q 290 134 267 111 q 346 157 313 157 q 401 134 378 157 q 424 79 424 111 q 401 23 424 46 q 346 0 378 0 q 290 23 313 0 q 267 79 267 46 m 465 874 q 488 928 465 906 q 543 951 511 951 q 599 928 576 951 q 622 874 622 906 q 599 817 622 840 q 543 794 576 794 q 488 817 511 794 q 465 874 465 840 m 465 476 q 488 531 465 508 q 543 554 511 554 q 599 531 576 554 q 622 476 622 508 q 599 420 622 443 q 543 397 576 397 q 488 420 511 397 q 465 476 465 443 m 465 79 q 488 134 465 111 q 543 157 511 157 q 599 134 576 157 q 622 79 622 111 q 599 23 622 46 q 543 0 576 0 q 488 23 511 0 q 465 79 465 46 m 664 675 q 687 730 664 707 q 742 753 710 753 q 798 730 775 753 q 821 675 821 707 q 798 619 821 642 q 742 596 775 596 q 687 619 710 596 q 664 675 664 642 m 664 79 q 687 134 664 111 q 742 157 710 157 q 798 134 775 157 q 821 79 821 111 q 798 23 821 46 q 742 0 775 0 q 687 23 710 0 q 664 79 664 46 z "},"3":{"ha":889,"x_min":68,"x_max":821,"o":"m 68 874 q 91 928 68 906 q 147 951 114 951 q 202 928 179 951 q 225 874 225 906 q 202 817 225 840 q 147 794 179 794 q 91 817 114 794 q 68 874 68 840 m 68 476 q 91 531 68 508 q 147 554 114 554 q 202 531 179 554 q 225 476 225 508 q 202 420 225 443 q 147 397 179 397 q 91 420 114 397 q 68 476 68 443 m 68 79 q 91 134 68 111 q 147 157 114 157 q 202 134 179 157 q 225 79 225 111 q 202 23 225 46 q 147 0 179 0 q 91 23 114 0 q 68 79 68 46 m 267 874 q 290 928 267 906 q 346 951 313 951 q 401 928 378 951 q 424 874 424 906 q 401 817 424 840 q 346 794 378 794 q 290 817 313 794 q 267 874 267 840 m 267 476 q 290 531 267 508 q 346 554 313 554 q 401 531 378 554 q 424 476 424 508 q 401 420 424 443 q 346 397 378 397 q 290 420 313 397 q 267 476 267 443 m 267 79 q 290 134 267 111 q 346 157 313 157 q 401 134 378 157 q 424 79 424 111 q 401 23 424 46 q 346 0 378 0 q 290 23 313 0 q 267 79 267 46 m 465 874 q 488 928 465 906 q 543 951 511 951 q 599 928 576 951 q 622 874 622 906 q 599 817 622 840 q 543 794 576 794 q 488 817 511 794 q 465 874 465 840 m 465 476 q 488 531 465 508 q 543 554 511 554 q 599 531 576 554 q 622 476 622 508 q 599 420 622 443 q 543 397 576 397 q 488 420 511 397 q 465 476 465 443 m 465 79 q 488 134 465 111 q 543 157 511 157 q 599 134 576 157 q 622 79 622 111 q 599 23 622 46 q 543 0 576 0 q 488 23 511 0 q 465 79 465 46 m 664 675 q 687 730 664 707 q 742 753 710 753 q 798 730 775 753 q 821 675 821 707 q 798 619 821 642 q 742 596 775 596 q 687 619 710 596 q 664 675 664 642 m 664 278 q 687 333 664 310 q 742 356 710 356 q 798 333 775 356 q 821 278 821 310 q 798 222 821 244 q 742 199 775 199 q 687 222 710 199 q 664 278 664 244 z "},"4":{"ha":889,"x_min":68,"x_max":821,"o":"m 68 874 q 91 928 68 906 q 147 951 114 951 q 202 928 179 951 q 225 874 225 906 q 202 817 225 840 q 147 794 179 794 q 91 817 114 794 q 68 874 68 840 m 68 675 q 91 730 68 707 q 147 753 114 753 q 202 730 179 753 q 225 675 225 707 q 202 619 225 642 q 147 596 179 596 q 91 619 114 596 q 68 675 68 642 m 267 476 q 290 531 267 508 q 346 554 313 554 q 401 531 378 554 q 424 476 424 508 q 401 420 424 443 q 346 397 378 397 q 290 420 313 397 q 267 476 267 443 m 465 476 q 488 531 465 508 q 543 554 511 554 q 599 531 576 554 q 622 476 622 508 q 599 420 622 443 q 543 397 576 397 q 488 420 511 397 q 465 476 465 443 m 664 874 q 687 928 664 906 q 742 951 710 951 q 798 928 775 951 q 821 874 821 906 q 798 817 821 840 q 742 794 775 794 q 687 817 710 794 q 664 874 664 840 m 664 675 q 687 730 664 707 q 742 753 710 753 q 798 730 775 753 q 821 675 821 707 q 798 619 821 642 q 742 596 775 596 q 687 619 710 596 q 664 675 664 642 m 664 476 q 687 531 664 508 q 742 554 710 554 q 798 531 775 554 q 821 476 821 508 q 798 420 821 443 q 742 397 775 397 q 687 420 710 397 q 664 476 664 443 m 664 278 q 687 333 664 310 q 742 356 710 356 q 798 333 775 356 q 821 278 821 310 q 798 222 821 244 q 742 199 775 199 q 687 222 710 199 q 664 278 664 244 m 664 79 q 687 134 664 111 q 742 157 710 157 q 798 134 775 157 q 821 79 821 111 q 798 23 821 46 q 742 0 775 0 q 687 23 710 0 q 664 79 664 46 z "},"5":{"ha":889,"x_min":68,"x_max":821,"o":"m 68 874 q 91 928 68 906 q 147 951 114 951 q 202 928 179 951 q 225 874 225 906 q 202 817 225 840 q 147 794 179 794 q 91 817 114 794 q 68 874 68 840 m 68 675 q 91 730 68 707 q 147 753 114 753 q 202 730 179 753 q 225 675 225 707 q 202 619 225 642 q 147 596 179 596 q 91 619 114 596 q 68 675 68 642 m 68 476 q 91 531 68 508 q 147 554 114 554 q 202 531 179 554 q 225 476 225 508 q 202 420 225 443 q 147 397 179 397 q 91 420 114 397 q 68 476 68 443 m 68 79 q 91 134 68 111 q 147 157 114 157 q 202 134 179 157 q 225 79 225 111 q 202 23 225 46 q 147 0 179 0 q 91 23 114 0 q 68 79 68 46 m 267 874 q 290 928 267 906 q 346 951 313 951 q 401 928 378 951 q 424 874 424 906 q 401 817 424 840 q 346 794 378 794 q 290 817 313 794 q 267 874 267 840 m 267 476 q 290 531 267 508 q 346 554 313 554 q 401 531 378 554 q 424 476 424 508 q 401 420 424 443 q 346 397 378 397 q 290 420 313 397 q 267 476 267 443 m 267 79 q 290 134 267 111 q 346 157 313 157 q 401 134 378 157 q 424 79 424 111 q 401 23 424 46 q 346 0 378 0 q 290 23 313 0 q 267 79 267 46 m 465 874 q 488 928 465 906 q 543 951 511 951 q 599 928 576 951 q 622 874 622 906 q 599 817 622 840 q 543 794 576 794 q 488 817 511 794 q 465 874 465 840 m 465 476 q 488 531 465 508 q 543 554 511 554 q 599 531 576 554 q 622 476 622 508 q 599 420 622 443 q 543 397 576 397 q 488 420 511 397 q 465 476 465 443 m 465 79 q 488 134 465 111 q 543 157 511 157 q 599 134 576 157 q 622 79 622 111 q 599 23 622 46 q 543 0 576 0 q 488 23 511 0 q 465 79 465 46 m 664 874 q 687 928 664 906 q 742 951 710 951 q 798 928 775 951 q 821 874 821 906 q 798 817 821 840 q 742 794 775 794 q 687 817 710 794 q 664 874 664 840 m 664 278 q 687 333 664 310 q 742 356 710 356 q 798 333 775 356 q 821 278 821 310 q 798 222 821 244 q 742 199 775 199 q 687 222 710 199 q 664 278 664 244 z "},"6":{"ha":889,"x_min":68,"x_max":821,"o":"m 68 675 q 91 730 68 707 q 147 753 114 753 q 202 730 179 753 q 225 675 225 707 q 202 619 225 642 q 147 596 179 596 q 91 619 114 596 q 68 675 68 642 m 68 476 q 91 531 68 508 q 147 554 114 554 q 202 531 179 554 q 225 476 225 508 q 202 420 225 443 q 147 397 179 397 q 91 420 114 397 q 68 476 68 443 m 68 278 q 91 333 68 310 q 147 356 114 356 q 202 333 179 356 q 225 278 225 310 q 202 222 225 244 q 147 199 179 199 q 91 222 114 199 q 68 278 68 244 m 267 874 q 290 928 267 906 q 346 951 313 951 q 401 928 378 951 q 424 874 424 906 q 401 817 424 840 q 346 794 378 794 q 290 817 313 794 q 267 874 267 840 m 267 476 q 290 531 267 508 q 346 554 313 554 q 401 531 378 554 q 424 476 424 508 q 401 420 424 443 q 346 397 378 397 q 290 420 313 397 q 267 476 267 443 m 267 79 q 290 134 267 111 q 346 157 313 157 q 401 134 378 157 q 424 79 424 111 q 401 23 424 46 q 346 0 378 0 q 290 23 313 0 q 267 79 267 46 m 465 874 q 488 928 465 906 q 543 951 511 951 q 599 928 576 951 q 622 874 622 906 q 599 817 622 840 q 543 794 576 794 q 488 817 511 794 q 465 874 465 840 m 465 476 q 488 531 465 508 q 543 554 511 554 q 599 531 576 554 q 622 476 622 508 q 599 420 622 443 q 543 397 576 397 q 488 420 511 397 q 465 476 465 443 m 465 79 q 488 134 465 111 q 543 157 511 157 q 599 134 576 157 q 622 79 622 111 q 599 23 622 46 q 543 0 576 0 q 488 23 511 0 q 465 79 465 46 m 664 874 q 687 928 664 906 q 742 951 710 951 q 798 928 775 951 q 821 874 821 906 q 798 817 821 840 q 742 794 775 794 q 687 817 710 794 q 664 874 664 840 m 664 278 q 687 333 664 310 q 742 356 710 356 q 798 333 775 356 q 821 278 821 310 q 798 222 821 244 q 742 199 775 199 q 687 222 710 199 q 664 278 664 244 z "},"7":{"ha":889,"x_min":68,"x_max":821,"o":"m 68 874 q 91 928 68 906 q 147 951 114 951 q 202 928 179 951 q 225 874 225 906 q 202 817 225 840 q 147 794 179 794 q 91 817 114 794 q 68 874 68 840 m 267 874 q 290 928 267 906 q 346 951 313 951 q 401 928 378 951 q 424 874 424 906 q 401 817 424 840 q 346 794 378 794 q 290 817 313 794 q 267 874 267 840 m 465 874 q 488 928 465 906 q 543 951 511 951 q 599 928 576 951 q 622 874 622 906 q 599 817 622 840 q 543 794 576 794 q 488 817 511 794 q 465 874 465 840 m 465 476 q 488 531 465 508 q 543 554 511 554 q 599 531 576 554 q 622 476 622 508 q 599 420 622 443 q 543 397 576 397 q 488 420 511 397 q 465 476 465 443 m 465 278 q 488 333 465 310 q 543 356 511 356 q 599 333 576 356 q 622 278 622 310 q 599 222 622 244 q 543 199 576 199 q 488 222 511 199 q 465 278 465 244 m 465 79 q 488 134 465 111 q 543 157 511 157 q 599 134 576 157 q 622 79 622 111 q 599 23 622 46 q 543 0 576 0 q 488 23 511 0 q 465 79 465 46 m 664 874 q 687 928 664 906 q 742 951 710 951 q 798 928 775 951 q 821 874 821 906 q 798 817 821 840 q 742 794 775 794 q 687 817 710 794 q 664 874 664 840 m 664 675 q 687 730 664 707 q 742 753 710 753 q 798 730 775 753 q 821 675 821 707 q 798 619 821 642 q 742 596 775 596 q 687 619 710 596 q 664 675 664 642 z "},"8":{"ha":889,"x_min":68,"x_max":821,"o":"m 68 675 q 91 730 68 707 q 147 753 114 753 q 202 730 179 753 q 225 675 225 707 q 202 619 225 642 q 147 596 179 596 q 91 619 114 596 q 68 675 68 642 m 68 278 q 91 333 68 310 q 147 356 114 356 q 202 333 179 356 q 225 278 225 310 q 202 222 225 244 q 147 199 179 199 q 91 222 114 199 q 68 278 68 244 m 267 874 q 290 928 267 906 q 346 951 313 951 q 401 928 378 951 q 424 874 424 906 q 401 817 424 840 q 346 794 378 794 q 290 817 313 794 q 267 874 267 840 m 267 476 q 290 531 267 508 q 346 554 313 554 q 401 531 378 554 q 424 476 424 508 q 401 420 424 443 q 346 397 378 397 q 290 420 313 397 q 267 476 267 443 m 267 79 q 290 134 267 111 q 346 157 313 157 q 401 134 378 157 q 424 79 424 111 q 401 23 424 46 q 346 0 378 0 q 290 23 313 0 q 267 79 267 46 m 465 874 q 488 928 465 906 q 543 951 511 951 q 599 928 576 951 q 622 874 622 906 q 599 817 622 840 q 543 794 576 794 q 488 817 511 794 q 465 874 465 840 m 465 476 q 488 531 465 508 q 543 554 511 554 q 599 531 576 554 q 622 476 622 508 q 599 420 622 443 q 543 397 576 397 q 488 420 511 397 q 465 476 465 443 m 465 79 q 488 134 465 111 q 543 157 511 157 q 599 134 576 157 q 622 79 622 111 q 599 23 622 46 q 543 0 576 0 q 488 23 511 0 q 465 79 465 46 m 664 675 q 687 730 664 707 q 742 753 710 753 q 798 730 775 753 q 821 675 821 707 q 798 619 821 642 q 742 596 775 596 q 687 619 710 596 q 664 675 664 642 m 664 278 q 687 333 664 310 q 742 356 710 356 q 798 333 775 356 q 821 278 821 310 q 798 222 821 244 q 742 199 775 199 q 687 222 710 199 q 664 278 664 244 z "},"9":{"ha":889,"x_min":68,"x_max":821,"o":"m 68 675 q 91 730 68 707 q 147 753 114 753 q 202 730 179 753 q 225 675 225 707 q 202 619 225 642 q 147 596 179 596 q 91 619 114 596 q 68 675 68 642 m 267 874 q 290 928 267 906 q 346 951 313 951 q 401 928 378 951 q 424 874 424 906 q 401 817 424 840 q 346 794 378 794 q 290 817 313 794 q 267 874 267 840 m 267 476 q 290 531 267 508 q 346 554 313 554 q 401 531 378 554 q 424 476 424 508 q 401 420 424 443 q 346 397 378 397 q 290 420 313 397 q 267 476 267 443 m 267 79 q 290 134 267 111 q 346 157 313 157 q 401 134 378 157 q 424 79 424 111 q 401 23 424 46 q 346 0 378 0 q 290 23 313 0 q 267 79 267 46 m 465 874 q 488 928 465 906 q 543 951 511 951 q 599 928 576 951 q 622 874 622 906 q 599 817 622 840 q 543 794 576 794 q 488 817 511 794 q 465 874 465 840 m 465 476 q 488 531 465 508 q 543 554 511 554 q 599 531 576 554 q 622 476 622 508 q 599 420 622 443 q 543 397 576 397 q 488 420 511 397 q 465 476 465 443 m 465 79 q 488 134 465 111 q 543 157 511 157 q 599 134 576 157 q 622 79 622 111 q 599 23 622 46 q 543 0 576 0 q 488 23 511 0 q 465 79 465 46 m 664 675 q 687 730 664 707 q 742 753 710 753 q 798 730 775 753 q 821 675 821 707 q 798 619 821 642 q 742 596 775 596 q 687 619 710 596 q 664 675 664 642 m 664 476 q 687 531 664 508 q 742 554 710 554 q 798 531 775 554 q 821 476 821 508 q 798 420 821 443 q 742 397 775 397 q 687 420 710 397 q 664 476 664 443 m 664 278 q 687 333 664 310 q 742 356 710 356 q 798 333 775 356 q 821 278 821 310 q 798 222 821 244 q 742 199 775 199 q 687 222 710 199 q 664 278 664 244 z "}," ":{"ha":694,"x_min":0,"x_max":0,"o":""},"!":{"ha":292,"x_min":67,"x_max":225,"o":"m 67 874 q 90 928 67 906 q 146 951 114 951 q 201 928 178 951 q 225 874 225 906 q 201 817 225 840 q 146 794 178 794 q 90 817 114 794 q 67 874 67 840 m 67 675 q 90 730 67 707 q 146 753 114 753 q 201 730 178 753 q 225 675 225 707 q 201 619 225 642 q 146 596 178 596 q 90 619 114 596 q 67 675 67 642 m 67 476 q 90 531 67 508 q 146 554 114 554 q 201 531 178 554 q 225 476 225 508 q 201 420 225 443 q 146 397 178 397 q 90 420 114 397 q 67 476 67 443 m 67 79 q 90 134 67 111 q 146 157 114 157 q 201 134 178 157 q 225 79 225 111 q 201 23 225 46 q 146 0 178 0 q 90 23 114 0 q 67 79 67 46 z "},"\"":{"ha":489,"x_min":67,"x_max":422,"o":"m 67 874 q 90 928 67 906 q 146 951 113 951 q 201 928 178 951 q 224 874 224 906 q 201 817 224 840 q 146 794 178 794 q 90 817 113 794 q 67 874 67 840 m 67 675 q 90 730 67 707 q 146 753 113 753 q 201 730 178 753 q 224 675 224 707 q 201 619 224 642 q 146 596 178 596 q 90 619 113 596 q 67 675 67 642 m 265 874 q 288 928 265 906 q 343 951 311 951 q 399 928 376 951 q 422 874 422 906 q 399 817 422 840 q 343 794 376 794 q 288 817 311 794 q 265 874 265 840 m 265 675 q 288 730 265 707 q 343 753 311 753 q 399 730 376 753 q 422 675 422 707 q 399 619 422 642 q 343 596 376 596 q 288 619 311 596 q 265 675 265 642 z "},"#":{"ha":1086,"x_min":67,"x_max":1019,"o":"m 67 675 q 90 730 67 707 q 146 753 114 753 q 201 730 178 753 q 225 675 225 707 q 201 619 225 642 q 146 596 178 596 q 90 619 114 596 q 67 675 67 642 m 67 278 q 90 333 67 310 q 146 356 114 356 q 201 333 178 356 q 225 278 225 310 q 201 222 225 244 q 146 199 178 199 q 90 222 114 199 q 67 278 67 244 m 265 874 q 289 928 265 906 q 344 951 313 951 q 400 928 376 951 q 424 874 424 906 q 400 817 424 840 q 344 794 376 794 q 289 817 313 794 q 265 874 265 840 m 265 675 q 289 730 265 707 q 344 753 313 753 q 400 730 376 753 q 424 675 424 707 q 400 619 424 642 q 344 596 376 596 q 289 619 313 596 q 265 675 265 642 m 265 476 q 289 531 265 508 q 344 554 313 554 q 400 531 376 554 q 424 476 424 508 q 400 420 424 443 q 344 397 376 397 q 289 420 313 397 q 265 476 265 443 m 265 278 q 289 333 265 310 q 344 356 313 356 q 400 333 376 356 q 424 278 424 310 q 400 222 424 244 q 344 199 376 199 q 289 222 313 199 q 265 278 265 244 m 265 79 q 289 134 265 111 q 344 157 313 157 q 400 134 376 157 q 424 79 424 111 q 400 23 424 46 q 344 0 376 0 q 289 23 313 0 q 265 79 265 46 m 464 675 q 488 730 464 707 q 543 753 511 753 q 599 730 575 753 q 622 675 622 707 q 599 619 622 642 q 543 596 575 596 q 488 619 511 596 q 464 675 464 642 m 464 278 q 488 333 464 310 q 543 356 511 356 q 599 333 575 356 q 622 278 622 310 q 599 222 622 244 q 543 199 575 199 q 488 222 511 199 q 464 278 464 244 m 663 874 q 686 928 663 906 q 742 951 710 951 q 797 928 774 951 q 821 874 821 906 q 797 817 821 840 q 742 794 774 794 q 686 817 710 794 q 663 874 663 840 m 663 675 q 686 730 663 707 q 742 753 710 753 q 797 730 774 753 q 821 675 821 707 q 797 619 821 642 q 742 596 774 596 q 686 619 710 596 q 663 675 663 642 m 663 476 q 686 531 663 508 q 742 554 710 554 q 797 531 774 554 q 821 476 821 508 q 797 420 821 443 q 742 397 774 397 q 686 420 710 397 q 663 476 663 443 m 663 278 q 686 333 663 310 q 742 356 710 356 q 797 333 774 356 q 821 278 821 310 q 797 222 821 244 q 742 199 774 199 q 686 222 710 199 q 663 278 663 244 m 663 79 q 686 134 663 111 q 742 157 710 157 q 797 134 774 157 q 821 79 821 111 q 797 23 821 46 q 742 0 774 0 q 686 23 710 0 q 663 79 663 46 m 861 675 q 885 730 861 707 q 940 753 908 753 q 996 730 972 753 q 1019 675 1019 707 q 996 619 1019 642 q 940 596 972 596 q 885 619 908 596 q 861 675 861 642 m 861 278 q 885 333 861 310 q 940 356 908 356 q 996 333 972 356 q 1019 278 1019 310 q 996 222 1019 244 q 940 199 972 199 q 885 222 908 199 q 861 278 861 244 z "},"$":{"ha":889,"x_min":68,"x_max":821,"o":"m 68 675 q 91 730 68 707 q 147 753 114 753 q 202 730 179 753 q 225 675 225 707 q 202 619 225 642 q 147 596 179 596 q 91 619 114 596 q 68 675 68 642 m 68 79 q 91 134 68 111 q 147 157 114 157 q 202 134 179 157 q 225 79 225 111 q 202 23 225 46 q 147 0 179 0 q 91 23 114 0 q 68 79 68 46 m 267 874 q 290 928 267 906 q 346 951 313 951 q 401 928 378 951 q 424 874 424 906 q 401 817 424 840 q 346 794 378 794 q 290 817 313 794 q 267 874 267 840 m 267 476 q 290 531 267 508 q 346 554 313 554 q 401 531 378 554 q 424 476 424 508 q 401 420 424 443 q 346 397 378 397 q 290 420 313 397 q 267 476 267 443 m 267 79 q 290 134 267 111 q 346 157 313 157 q 401 134 378 157 q 424 79 424 111 q 401 23 424 46 q 346 0 378 0 q 290 23 313 0 q 267 79 267 46 m 465 874 q 488 928 465 906 q 543 951 511 951 q 599 928 576 951 q 622 874 622 906 q 599 817 622 840 q 543 794 576 794 q 488 817 511 794 q 465 874 465 840 m 465 476 q 488 531 465 508 q 543 554 511 554 q 599 531 576 554 q 622 476 622 508 q 599 420 622 443 q 543 397 576 397 q 488 420 511 397 q 465 476 465 443 m 465 79 q 488 134 465 111 q 543 157 511 157 q 599 134 576 157 q 622 79 622 111 q 599 23 622 46 q 543 0 576 0 q 488 23 511 0 q 465 79 465 46 m 664 874 q 687 928 664 906 q 742 951 710 951 q 798 928 775 951 q 821 874 821 906 q 798 817 821 840 q 742 794 775 794 q 687 817 710 794 q 664 874 664 840 m 664 278 q 687 333 664 310 q 742 356 710 356 q 798 333 775 356 q 821 278 821 310 q 798 222 821 244 q 742 199 775 199 q 687 222 710 199 q 664 278 664 244 m 465 1072 q 488 1127 465 1104 q 543 1150 511 1150 q 599 1127 576 1150 q 622 1072 622 1104 q 599 1016 622 1039 q 543 993 576 993 q 488 1016 511 993 q 465 1072 465 1039 m 267 -119 q 290 -65 267 -87 q 346 -42 313 -42 q 401 -65 378 -42 q 424 -119 424 -87 q 401 -176 424 -153 q 346 -199 378 -199 q 290 -176 313 -199 q 267 -119 267 -153 z "},"%":{"ha":1086,"x_min":67,"x_max":1019,"o":"m 67 874 q 90 928 67 906 q 146 951 114 951 q 201 928 178 951 q 225 874 225 906 q 201 817 225 840 q 146 794 178 794 q 90 817 114 794 q 67 874 67 840 m 67 79 q 90 134 67 111 q 146 157 114 157 q 201 134 178 157 q 225 79 225 111 q 201 23 225 46 q 146 0 178 0 q 90 23 114 0 q 67 79 67 46 m 265 278 q 289 333 265 310 q 344 356 313 356 q 400 333 376 356 q 424 278 424 310 q 400 222 424 244 q 344 199 376 199 q 289 222 313 199 q 265 278 265 244 m 464 476 q 488 531 464 508 q 543 554 511 554 q 599 531 575 554 q 622 476 622 508 q 599 420 622 443 q 543 397 575 397 q 488 420 511 397 q 464 476 464 443 m 663 675 q 686 730 663 707 q 742 753 710 753 q 797 730 774 753 q 821 675 821 707 q 797 619 821 642 q 742 596 774 596 q 686 619 710 596 q 663 675 663 642 m 861 874 q 885 928 861 906 q 940 951 908 951 q 996 928 972 951 q 1019 874 1019 906 q 996 817 1019 840 q 940 794 972 794 q 885 817 908 794 q 861 874 861 840 m 861 79 q 885 134 861 111 q 940 157 908 157 q 996 134 972 157 q 1019 79 1019 111 q 996 23 1019 46 q 940 0 972 0 q 885 23 908 0 q 861 79 861 46 z "},"&":{"ha":1086,"x_min":67,"x_max":1019,"o":"m 67 675 q 90 730 67 707 q 146 753 114 753 q 201 730 178 753 q 225 675 225 707 q 201 619 225 642 q 146 596 178 596 q 90 619 114 596 q 67 675 67 642 m 67 278 q 90 333 67 310 q 146 356 114 356 q 201 333 178 356 q 225 278 225 310 q 201 222 225 244 q 146 199 178 199 q 90 222 114 199 q 67 278 67 244 m 265 874 q 289 928 265 906 q 344 951 313 951 q 400 928 376 951 q 424 874 424 906 q 400 817 424 840 q 344 794 376 794 q 289 817 313 794 q 265 874 265 840 m 265 476 q 289 531 265 508 q 344 554 313 554 q 400 531 376 554 q 424 476 424 508 q 400 420 424 443 q 344 397 376 397 q 289 420 313 397 q 265 476 265 443 m 265 278 m 265 79 q 289 134 265 111 q 344 157 313 157 q 400 134 376 157 q 424 79 424 111 q 400 23 424 46 q 344 0 376 0 q 289 23 313 0 q 265 79 265 46 m 464 874 q 488 928 464 906 q 543 951 511 951 q 599 928 575 951 q 622 874 622 906 q 599 817 622 840 q 543 794 575 794 q 488 817 511 794 q 464 874 464 840 m 464 476 q 488 531 464 508 q 543 554 511 554 q 599 531 575 554 q 622 476 622 508 q 599 420 622 443 q 543 397 575 397 q 488 420 511 397 q 464 476 464 443 m 464 79 q 488 134 464 111 q 543 157 511 157 q 599 134 575 157 q 622 79 622 111 q 599 23 622 46 q 543 0 575 0 q 488 23 511 0 q 464 79 464 46 m 663 675 q 686 730 663 707 q 742 753 710 753 q 797 730 774 753 q 821 675 821 707 q 797 619 821 642 q 742 596 774 596 q 686 619 710 596 q 663 675 663 642 m 663 278 q 686 333 663 310 q 742 356 710 356 q 797 333 774 356 q 821 278 821 310 q 797 222 821 244 q 742 199 774 199 q 686 222 710 199 q 663 278 663 244 m 861 476 q 885 531 861 508 q 940 554 908 554 q 996 531 972 554 q 1019 476 1019 508 q 996 420 1019 443 q 940 397 972 397 q 885 420 908 397 q 861 476 861 443 m 861 79 q 885 134 861 111 q 940 157 908 157 q 996 134 972 157 q 1019 79 1019 111 q 996 23 1019 46 q 940 0 972 0 q 885 23 908 0 q 861 79 861 46 z "},"'":{"ha":292,"x_min":67,"x_max":225,"o":"m 67 874 q 90 928 67 906 q 146 951 114 951 q 201 928 178 951 q 225 874 225 906 q 201 817 225 840 q 146 794 178 794 q 90 817 114 794 q 67 874 67 840 m 67 675 q 90 730 67 707 q 146 753 114 753 q 201 730 178 753 q 225 675 225 707 q 201 619 225 642 q 146 596 178 596 q 90 619 114 596 q 67 675 67 642 z "},"(":{"ha":489,"x_min":67,"x_max":422,"o":"m 67 675 q 90 730 67 707 q 146 753 113 753 q 201 730 178 753 q 224 675 224 707 q 201 619 224 642 q 146 596 178 596 q 90 619 113 596 q 67 675 67 642 m 67 476 q 90 531 67 508 q 146 554 113 554 q 201 531 178 554 q 224 476 224 508 q 201 420 224 443 q 146 397 178 397 q 90 420 113 397 q 67 476 67 443 m 67 278 q 90 333 67 310 q 146 356 113 356 q 201 333 178 356 q 224 278 224 310 q 201 222 224 244 q 146 199 178 199 q 90 222 113 199 q 67 278 67 244 m 265 874 q 288 928 265 906 q 343 951 311 951 q 399 928 376 951 q 422 874 422 906 q 399 817 422 840 q 343 794 376 794 q 288 817 311 794 q 265 874 265 840 m 265 79 q 288 134 265 111 q 343 157 311 157 q 399 134 376 157 q 422 79 422 111 q 399 23 422 46 q 343 0 376 0 q 288 23 311 0 q 265 79 265 46 z "},")":{"ha":489,"x_min":67,"x_max":422,"o":"m 422 675 q 399 730 422 707 q 343 753 376 753 q 288 730 311 753 q 265 675 265 707 q 288 619 265 642 q 343 596 311 596 q 399 619 376 596 q 422 675 422 642 m 422 476 q 399 531 422 508 q 343 554 376 554 q 288 531 311 554 q 265 476 265 508 q 288 420 265 443 q 343 397 311 397 q 399 420 376 397 q 422 476 422 443 m 422 278 q 399 333 422 310 q 343 356 376 356 q 288 333 311 356 q 265 278 265 310 q 288 222 265 244 q 343 199 311 199 q 399 222 376 199 q 422 278 422 244 m 224 874 q 201 928 224 906 q 146 951 178 951 q 90 928 113 951 q 67 874 67 906 q 90 817 67 840 q 146 794 113 794 q 201 817 178 794 q 224 874 224 840 m 224 79 q 201 134 224 111 q 146 157 178 157 q 90 134 113 157 q 67 79 67 111 q 90 23 67 46 q 146 0 113 0 q 201 23 178 0 q 224 79 224 46 z "},"*":{"ha":689,"x_min":67,"x_max":622,"o":"m 67 874 q 90 928 67 906 q 146 951 114 951 q 201 928 178 951 q 225 874 225 906 q 201 817 225 840 q 146 794 178 794 q 90 817 114 794 q 67 874 67 840 m 67 476 q 90 531 67 508 q 146 554 114 554 q 201 531 178 554 q 225 476 225 508 q 201 420 225 443 q 146 397 178 397 q 90 420 114 397 q 67 476 67 443 m 265 675 q 289 730 265 707 q 344 753 313 753 q 400 730 376 753 q 424 675 424 707 q 400 619 424 642 q 344 596 376 596 q 289 619 313 596 q 265 675 265 642 m 464 874 q 488 928 464 906 q 543 951 511 951 q 599 928 575 951 q 622 874 622 906 q 599 817 622 840 q 543 794 575 794 q 488 817 511 794 q 464 874 464 840 m 464 476 q 488 531 464 508 q 543 554 511 554 q 599 531 575 554 q 622 476 622 508 q 599 420 622 443 q 543 397 575 397 q 488 420 511 397 q 464 476 464 443 z "},"+":{"ha":689,"x_min":67,"x_max":622,"o":"m 67 476 q 90 531 67 508 q 146 554 114 554 q 201 531 178 554 q 225 476 225 508 q 201 420 225 443 q 146 397 178 397 q 90 420 114 397 q 67 476 67 443 m 265 675 q 289 730 265 707 q 344 753 313 753 q 400 730 376 753 q 424 675 424 707 q 400 619 424 642 q 344 596 376 596 q 289 619 313 596 q 265 675 265 642 m 265 476 q 289 531 265 508 q 344 554 313 554 q 400 531 376 554 q 424 476 424 508 q 400 420 424 443 q 344 397 376 397 q 289 420 313 397 q 265 476 265 443 m 265 278 q 289 333 265 310 q 344 356 313 356 q 400 333 376 356 q 424 278 424 310 q 400 222 424 244 q 344 199 376 199 q 289 222 313 199 q 265 278 265 244 m 464 476 q 488 531 464 508 q 543 554 511 554 q 599 531 575 554 q 622 476 622 508 q 599 420 622 443 q 543 397 575 397 q 488 420 511 397 q 464 476 464 443 z "},",":{"ha":292,"x_min":67,"x_max":225,"o":"m 67 278 q 90 333 67 310 q 146 356 114 356 q 201 333 178 356 q 225 278 225 310 q 201 222 225 244 q 146 199 178 199 q 90 222 114 199 q 67 278 67 244 m 67 79 q 90 134 67 111 q 146 157 114 157 q 201 134 178 157 q 225 79 225 111 q 201 23 225 46 q 146 0 178 0 q 90 23 114 0 q 67 79 67 46 z "},"-":{"ha":689,"x_min":67,"x_max":622,"o":"m 67 476 q 90 531 67 508 q 146 554 114 554 q 201 531 178 554 q 225 476 225 508 q 201 420 225 443 q 146 397 178 397 q 90 420 114 397 q 67 476 67 443 m 265 476 q 289 531 265 508 q 344 554 313 554 q 400 531 376 554 q 424 476 424 508 q 400 420 424 443 q 344 397 376 397 q 289 420 313 397 q 265 476 265 443 m 464 476 q 488 531 464 508 q 543 554 511 554 q 599 531 575 554 q 622 476 622 508 q 599 420 622 443 q 543 397 575 397 q 488 420 511 397 q 464 476 464 443 z "},".":{"ha":292,"x_min":67,"x_max":225,"o":"m 67 79 q 90 134 67 111 q 146 157 114 157 q 201 134 178 157 q 225 79 225 111 q 201 23 225 46 q 146 0 178 0 q 90 23 114 0 q 67 79 67 46 z "},"/":{"ha":489,"x_min":67,"x_max":422,"o":"m 67 476 q 90 531 67 508 q 146 554 113 554 q 201 531 178 554 q 224 476 224 508 q 201 420 224 443 q 146 397 178 397 q 90 420 113 397 q 67 476 67 443 m 67 278 q 90 333 67 310 q 146 356 113 356 q 201 333 178 356 q 224 278 224 310 q 201 222 224 244 q 146 199 178 199 q 90 222 113 199 q 67 278 67 244 m 67 79 q 90 134 67 111 q 146 157 113 157 q 201 134 178 157 q 224 79 224 111 q 201 23 224 46 q 146 0 178 0 q 90 23 113 0 q 67 79 67 46 m 265 874 q 288 928 265 906 q 343 951 311 951 q 399 928 376 951 q 422 874 422 906 q 399 817 422 840 q 343 794 376 794 q 288 817 311 794 q 265 874 265 840 m 265 675 q 288 730 265 707 q 343 753 311 753 q 399 730 376 753 q 422 675 422 707 q 399 619 422 642 q 343 596 376 596 q 288 619 311 596 q 265 675 265 642 z "},":":{"ha":292,"x_min":67,"x_max":225,"o":"m 67 476 q 90 531 67 508 q 146 554 114 554 q 201 531 178 554 q 225 476 225 508 q 201 420 225 443 q 146 397 178 397 q 90 420 114 397 q 67 476 67 443 m 67 79 q 90 134 67 111 q 146 157 114 157 q 201 134 178 157 q 225 79 225 111 q 201 23 225 46 q 146 0 178 0 q 90 23 114 0 q 67 79 67 46 z "},";":{"ha":292,"x_min":67,"x_max":225,"o":"m 67 476 q 90 531 67 508 q 146 554 114 554 q 201 531 178 554 q 225 476 225 508 q 201 420 225 443 q 146 397 178 397 q 90 420 114 397 q 67 476 67 443 m 67 79 q 90 134 67 111 q 146 157 114 157 q 201 134 178 157 q 225 79 225 111 q 201 23 225 46 q 146 0 178 0 q 90 23 114 0 q 67 79 67 46 z "},"<":{"ha":689,"x_min":67,"x_max":622,"o":"m 67 476 q 90 531 67 508 q 146 554 114 554 q 201 531 178 554 q 225 476 225 508 q 201 420 225 443 q 146 397 178 397 q 90 420 114 397 q 67 476 67 443 m 265 675 q 289 730 265 707 q 344 753 313 753 q 400 730 376 753 q 424 675 424 707 q 400 619 424 642 q 344 596 376 596 q 289 619 313 596 q 265 675 265 642 m 265 278 q 289 333 265 310 q 344 356 313 356 q 400 333 376 356 q 424 278 424 310 q 400 222 424 244 q 344 199 376 199 q 289 222 313 199 q 265 278 265 244 m 464 874 q 488 928 464 906 q 543 951 511 951 q 599 928 575 951 q 622 874 622 906 q 599 817 622 840 q 543 794 575 794 q 488 817 511 794 q 464 874 464 840 m 464 79 q 488 134 464 111 q 543 157 511 157 q 599 134 575 157 q 622 79 622 111 q 599 23 622 46 q 543 0 575 0 q 488 23 511 0 q 464 79 464 46 z "},"=":{"ha":689,"x_min":67,"x_max":622,"o":"m 67 675 q 90 730 67 707 q 146 753 114 753 q 201 730 178 753 q 225 675 225 707 q 201 619 225 642 q 146 596 178 596 q 90 619 114 596 q 67 675 67 642 m 67 278 q 90 333 67 310 q 146 356 114 356 q 201 333 178 356 q 225 278 225 310 q 201 222 225 244 q 146 199 178 199 q 90 222 114 199 q 67 278 67 244 m 265 675 q 289 730 265 707 q 344 753 313 753 q 400 730 376 753 q 424 675 424 707 q 400 619 424 642 q 344 596 376 596 q 289 619 313 596 q 265 675 265 642 m 265 278 q 289 333 265 310 q 344 356 313 356 q 400 333 376 356 q 424 278 424 310 q 400 222 424 244 q 344 199 376 199 q 289 222 313 199 q 265 278 265 244 m 464 675 q 488 730 464 707 q 543 753 511 753 q 599 730 575 753 q 622 675 622 707 q 599 619 622 642 q 543 596 575 596 q 488 619 511 596 q 464 675 464 642 m 464 278 q 488 333 464 310 q 543 356 511 356 q 599 333 575 356 q 622 278 622 310 q 599 222 622 244 q 543 199 575 199 q 488 222 511 199 q 464 278 464 244 z "},">":{"ha":689,"x_min":67,"x_max":622,"o":"m 67 874 q 90 928 67 906 q 146 951 114 951 q 201 928 178 951 q 225 874 225 906 q 201 817 225 840 q 146 794 178 794 q 90 817 114 794 q 67 874 67 840 m 67 79 q 90 134 67 111 q 146 157 114 157 q 201 134 178 157 q 225 79 225 111 q 201 23 225 46 q 146 0 178 0 q 90 23 114 0 q 67 79 67 46 m 265 675 q 289 730 265 707 q 344 753 313 753 q 400 730 376 753 q 424 675 424 707 q 400 619 424 642 q 344 596 376 596 q 289 619 313 596 q 265 675 265 642 m 265 278 q 289 333 265 310 q 344 356 313 356 q 400 333 376 356 q 424 278 424 310 q 400 222 424 244 q 344 199 376 199 q 289 222 313 199 q 265 278 265 244 m 464 476 q 488 531 464 508 q 543 554 511 554 q 599 531 575 554 q 622 476 622 508 q 599 420 622 443 q 543 397 575 397 q 488 420 511 397 q 464 476 464 443 z "},"?":{"ha":889,"x_min":68,"x_max":821,"o":"m 68 874 q 91 928 68 906 q 147 951 114 951 q 202 928 179 951 q 225 874 225 906 q 202 817 225 840 q 147 794 179 794 q 91 817 114 794 q 68 874 68 840 m 267 874 q 290 928 267 906 q 346 951 313 951 q 401 928 378 951 q 424 874 424 906 q 401 817 424 840 q 346 794 378 794 q 290 817 313 794 q 267 874 267 840 m 267 476 q 290 531 267 508 q 346 554 313 554 q 401 531 378 554 q 424 476 424 508 q 401 420 424 443 q 346 397 378 397 q 290 420 313 397 q 267 476 267 443 m 267 79 q 290 134 267 111 q 346 157 313 157 q 401 134 378 157 q 424 79 424 111 q 401 23 424 46 q 346 0 378 0 q 290 23 313 0 q 267 79 267 46 m 465 874 q 488 928 465 906 q 543 951 511 951 q 599 928 576 951 q 622 874 622 906 q 599 817 622 840 q 543 794 576 794 q 488 817 511 794 q 465 874 465 840 m 465 476 q 488 531 465 508 q 543 554 511 554 q 599 531 576 554 q 622 476 622 508 q 599 420 622 443 q 543 397 576 397 q 488 420 511 397 q 465 476 465 443 m 664 675 q 687 730 664 707 q 742 753 710 753 q 798 730 775 753 q 821 675 821 707 q 798 619 821 642 q 742 596 775 596 q 687 619 710 596 q 664 675 664 642 z "},"@":{"ha":1283,"x_min":67,"x_max":1217,"o":"m 67 675 q 90 730 67 707 q 146 753 113 753 q 201 730 178 753 q 224 675 224 707 q 201 619 224 642 q 146 596 178 596 q 90 619 113 596 q 67 675 67 642 m 67 476 q 90 531 67 508 q 146 554 113 554 q 201 531 178 554 q 224 476 224 508 q 201 420 224 443 q 146 397 178 397 q 90 420 113 397 q 67 476 67 443 m 67 278 q 90 333 67 310 q 146 356 113 356 q 201 333 178 356 q 224 278 224 310 q 201 222 224 244 q 146 199 178 199 q 90 222 113 199 q 67 278 67 244 m 67 79 q 90 134 67 111 q 146 157 113 157 q 201 134 178 157 q 224 79 224 111 q 201 23 224 46 q 146 0 178 0 q 90 23 113 0 q 67 79 67 46 m 265 874 q 288 928 265 906 q 344 951 311 951 q 399 928 376 951 q 422 874 422 906 q 399 817 422 840 q 344 794 376 794 q 288 817 311 794 q 265 874 265 840 m 464 874 q 487 928 464 906 q 543 951 510 951 q 598 928 575 951 q 621 874 621 906 q 598 817 621 840 q 543 794 575 794 q 487 817 510 794 q 464 874 464 840 m 464 476 q 487 531 464 508 q 543 554 510 554 q 598 531 575 554 q 621 476 621 508 q 598 420 621 443 q 543 397 575 397 q 487 420 510 397 q 464 476 464 443 m 464 278 q 487 333 464 310 q 543 356 510 356 q 598 333 575 356 q 621 278 621 310 q 598 222 621 244 q 543 199 575 199 q 487 222 510 199 q 464 278 464 244 m 663 874 q 685 928 663 906 q 740 951 708 951 q 797 928 774 951 q 819 874 819 906 q 797 817 819 840 q 740 794 774 794 q 685 817 708 794 q 663 874 663 840 m 663 476 q 685 531 663 508 q 740 554 708 554 q 797 531 774 554 q 819 476 819 508 q 797 420 819 443 q 740 397 774 397 q 685 420 708 397 q 663 476 663 443 m 663 278 q 685 333 663 310 q 740 356 708 356 q 797 333 774 356 q 819 278 819 310 q 797 222 819 244 q 740 199 774 199 q 685 222 708 199 q 663 278 663 244 m 861 874 q 884 928 861 906 q 939 951 907 951 q 995 928 972 951 q 1018 874 1018 906 q 995 817 1018 840 q 939 794 972 794 q 884 817 907 794 q 861 874 861 840 m 861 79 q 884 134 861 111 q 939 157 907 157 q 995 134 972 157 q 1018 79 1018 111 q 995 23 1018 46 q 939 0 972 0 q 884 23 907 0 q 861 79 861 46 m 265 -119 q 288 -65 265 -87 q 344 -42 311 -42 q 399 -65 376 -42 q 422 -119 422 -87 q 399 -176 422 -153 q 344 -199 376 -199 q 288 -176 311 -199 q 265 -119 265 -153 m 464 -119 q 487 -65 464 -87 q 543 -42 510 -42 q 598 -65 575 -42 q 621 -119 621 -87 q 598 -176 621 -153 q 543 -199 575 -199 q 487 -176 510 -199 q 464 -119 464 -153 m 663 -119 q 685 -65 663 -87 q 740 -42 708 -42 q 797 -65 774 -42 q 819 -119 819 -87 q 797 -176 819 -153 q 740 -199 774 -199 q 685 -176 708 -199 q 663 -119 663 -153 m 1060 675 q 1083 730 1060 707 q 1138 753 1106 753 q 1194 730 1171 753 q 1217 675 1217 707 q 1194 619 1217 642 q 1138 596 1171 596 q 1083 619 1106 596 q 1060 675 1060 642 m 1060 476 q 1083 531 1060 508 q 1138 554 1106 554 q 1194 531 1171 554 q 1217 476 1217 508 q 1194 420 1217 443 q 1138 397 1171 397 q 1083 420 1106 397 q 1060 476 1060 443 m 1060 278 q 1083 333 1060 310 q 1138 356 1106 356 q 1194 333 1171 356 q 1217 278 1217 310 q 1194 222 1217 244 q 1138 199 1171 199 q 1083 222 1106 199 q 1060 278 1060 244 m 1060 79 q 1083 134 1060 111 q 1138 157 1106 157 q 1194 134 1171 157 q 1217 79 1217 111 q 1194 23 1217 46 q 1138 0 1171 0 q 1083 23 1106 0 q 1060 79 1060 46 z "},"A":{"ha":889,"x_min":68,"x_max":821,"o":"m 68 675 q 91 730 68 707 q 147 753 114 753 q 202 730 179 753 q 225 675 225 707 q 202 619 225 642 q 147 596 179 596 q 91 619 114 596 q 68 675 68 642 m 68 476 q 91 531 68 508 q 147 554 114 554 q 202 531 179 554 q 225 476 225 508 q 202 420 225 443 q 147 397 179 397 q 91 420 114 397 q 68 476 68 443 m 68 278 q 91 333 68 310 q 147 356 114 356 q 202 333 179 356 q 225 278 225 310 q 202 222 225 244 q 147 199 179 199 q 91 222 114 199 q 68 278 68 244 m 68 79 q 91 134 68 111 q 147 157 114 157 q 202 134 179 157 q 225 79 225 111 q 202 23 225 46 q 147 0 179 0 q 91 23 114 0 q 68 79 68 46 m 267 874 q 290 928 267 906 q 346 951 313 951 q 401 928 378 951 q 424 874 424 906 q 401 817 424 840 q 346 794 378 794 q 290 817 313 794 q 267 874 267 840 m 267 476 q 290 531 267 508 q 346 554 313 554 q 401 531 378 554 q 424 476 424 508 q 401 420 424 443 q 346 397 378 397 q 290 420 313 397 q 267 476 267 443 m 465 874 q 488 928 465 906 q 543 951 511 951 q 599 928 576 951 q 622 874 622 906 q 599 817 622 840 q 543 794 576 794 q 488 817 511 794 q 465 874 465 840 m 465 476 q 488 531 465 508 q 543 554 511 554 q 599 531 576 554 q 622 476 622 508 q 599 420 622 443 q 543 397 576 397 q 488 420 511 397 q 465 476 465 443 m 664 675 q 687 730 664 707 q 742 753 710 753 q 798 730 775 753 q 821 675 821 707 q 798 619 821 642 q 742 596 775 596 q 687 619 710 596 q 664 675 664 642 m 664 476 q 687 531 664 508 q 742 554 710 554 q 798 531 775 554 q 821 476 821 508 q 798 420 821 443 q 742 397 775 397 q 687 420 710 397 q 664 476 664 443 m 664 278 q 687 333 664 310 q 742 356 710 356 q 798 333 775 356 q 821 278 821 310 q 798 222 821 244 q 742 199 775 199 q 687 222 710 199 q 664 278 664 244 m 664 79 q 687 134 664 111 q 742 157 710 157 q 798 134 775 157 q 821 79 821 111 q 798 23 821 46 q 742 0 775 0 q 687 23 710 0 q 664 79 664 46 z "},"B":{"ha":889,"x_min":68,"x_max":821,"o":"m 68 874 q 91 928 68 906 q 147 951 114 951 q 202 928 179 951 q 225 874 225 906 q 202 817 225 840 q 147 794 179 794 q 91 817 114 794 q 68 874 68 840 m 68 675 q 91 730 68 707 q 147 753 114 753 q 202 730 179 753 q 225 675 225 707 q 202 619 225 642 q 147 596 179 596 q 91 619 114 596 q 68 675 68 642 m 68 476 q 91 531 68 508 q 147 554 114 554 q 202 531 179 554 q 225 476 225 508 q 202 420 225 443 q 147 397 179 397 q 91 420 114 397 q 68 476 68 443 m 68 278 q 91 333 68 310 q 147 356 114 356 q 202 333 179 356 q 225 278 225 310 q 202 222 225 244 q 147 199 179 199 q 91 222 114 199 q 68 278 68 244 m 68 79 q 91 134 68 111 q 147 157 114 157 q 202 134 179 157 q 225 79 225 111 q 202 23 225 46 q 147 0 179 0 q 91 23 114 0 q 68 79 68 46 m 267 874 q 290 928 267 906 q 346 951 313 951 q 401 928 378 951 q 424 874 424 906 q 401 817 424 840 q 346 794 378 794 q 290 817 313 794 q 267 874 267 840 m 267 476 q 290 531 267 508 q 346 554 313 554 q 401 531 378 554 q 424 476 424 508 q 401 420 424 443 q 346 397 378 397 q 290 420 313 397 q 267 476 267 443 m 267 79 q 290 134 267 111 q 346 157 313 157 q 401 134 378 157 q 424 79 424 111 q 401 23 424 46 q 346 0 378 0 q 290 23 313 0 q 267 79 267 46 m 465 874 q 488 928 465 906 q 543 951 511 951 q 599 928 576 951 q 622 874 622 906 q 599 817 622 840 q 543 794 576 794 q 488 817 511 794 q 465 874 465 840 m 465 476 q 488 531 465 508 q 543 554 511 554 q 599 531 576 554 q 622 476 622 508 q 599 420 622 443 q 543 397 576 397 q 488 420 511 397 q 465 476 465 443 m 465 79 q 488 134 465 111 q 543 157 511 157 q 599 134 576 157 q 622 79 622 111 q 599 23 622 46 q 543 0 576 0 q 488 23 511 0 q 465 79 465 46 m 664 675 q 687 730 664 707 q 742 753 710 753 q 798 730 775 753 q 821 675 821 707 q 798 619 821 642 q 742 596 775 596 q 687 619 710 596 q 664 675 664 642 m 664 278 q 687 333 664 310 q 742 356 710 356 q 798 333 775 356 q 821 278 821 310 q 798 222 821 244 q 742 199 775 199 q 687 222 710 199 q 664 278 664 244 z "},"C":{"ha":889,"x_min":68,"x_max":821,"o":"m 68 675 q 91 730 68 707 q 147 753 114 753 q 202 730 179 753 q 225 675 225 707 q 202 619 225 642 q 147 596 179 596 q 91 619 114 596 q 68 675 68 642 m 68 476 q 91 531 68 508 q 147 554 114 554 q 202 531 179 554 q 225 476 225 508 q 202 420 225 443 q 147 397 179 397 q 91 420 114 397 q 68 476 68 443 m 68 278 q 91 333 68 310 q 147 356 114 356 q 202 333 179 356 q 225 278 225 310 q 202 222 225 244 q 147 199 179 199 q 91 222 114 199 q 68 278 68 244 m 267 874 q 290 928 267 906 q 346 951 313 951 q 401 928 378 951 q 424 874 424 906 q 401 817 424 840 q 346 794 378 794 q 290 817 313 794 q 267 874 267 840 m 267 79 q 290 134 267 111 q 346 157 313 157 q 401 134 378 157 q 424 79 424 111 q 401 23 424 46 q 346 0 378 0 q 290 23 313 0 q 267 79 267 46 m 465 874 q 488 928 465 906 q 543 951 511 951 q 599 928 576 951 q 622 874 622 906 q 599 817 622 840 q 543 794 576 794 q 488 817 511 794 q 465 874 465 840 m 465 79 q 488 134 465 111 q 543 157 511 157 q 599 134 576 157 q 622 79 622 111 q 599 23 622 46 q 543 0 576 0 q 488 23 511 0 q 465 79 465 46 m 664 874 q 687 928 664 906 q 742 951 710 951 q 798 928 775 951 q 821 874 821 906 q 798 817 821 840 q 742 794 775 794 q 687 817 710 794 q 664 874 664 840 m 664 79 q 687 134 664 111 q 742 157 710 157 q 798 134 775 157 q 821 79 821 111 q 798 23 821 46 q 742 0 775 0 q 687 23 710 0 q 664 79 664 46 z "},"D":{"ha":889,"x_min":68,"x_max":821,"o":"m 68 874 q 91 928 68 906 q 147 951 114 951 q 202 928 179 951 q 225 874 225 906 q 202 817 225 840 q 147 794 179 794 q 91 817 114 794 q 68 874 68 840 m 68 675 q 91 730 68 707 q 147 753 114 753 q 202 730 179 753 q 225 675 225 707 q 202 619 225 642 q 147 596 179 596 q 91 619 114 596 q 68 675 68 642 m 68 476 q 91 531 68 508 q 147 554 114 554 q 202 531 179 554 q 225 476 225 508 q 202 420 225 443 q 147 397 179 397 q 91 420 114 397 q 68 476 68 443 m 68 278 q 91 333 68 310 q 147 356 114 356 q 202 333 179 356 q 225 278 225 310 q 202 222 225 244 q 147 199 179 199 q 91 222 114 199 q 68 278 68 244 m 68 79 q 91 134 68 111 q 147 157 114 157 q 202 134 179 157 q 225 79 225 111 q 202 23 225 46 q 147 0 179 0 q 91 23 114 0 q 68 79 68 46 m 267 874 q 290 928 267 906 q 346 951 313 951 q 401 928 378 951 q 424 874 424 906 q 401 817 424 840 q 346 794 378 794 q 290 817 313 794 q 267 874 267 840 m 267 79 q 290 134 267 111 q 346 157 313 157 q 401 134 378 157 q 424 79 424 111 q 401 23 424 46 q 346 0 378 0 q 290 23 313 0 q 267 79 267 46 m 465 874 q 488 928 465 906 q 543 951 511 951 q 599 928 576 951 q 622 874 622 906 q 599 817 622 840 q 543 794 576 794 q 488 817 511 794 q 465 874 465 840 m 465 79 q 488 134 465 111 q 543 157 511 157 q 599 134 576 157 q 622 79 622 111 q 599 23 622 46 q 543 0 576 0 q 488 23 511 0 q 465 79 465 46 m 664 675 q 687 730 664 707 q 742 753 710 753 q 798 730 775 753 q 821 675 821 707 q 798 619 821 642 q 742 596 775 596 q 687 619 710 596 q 664 675 664 642 m 664 476 q 687 531 664 508 q 742 554 710 554 q 798 531 775 554 q 821 476 821 508 q 798 420 821 443 q 742 397 775 397 q 687 420 710 397 q 664 476 664 443 m 664 278 q 687 333 664 310 q 742 356 710 356 q 798 333 775 356 q 821 278 821 310 q 798 222 821 244 q 742 199 775 199 q 687 222 710 199 q 664 278 664 244 z "},"E":{"ha":889,"x_min":68,"x_max":821,"o":"m 68 675 q 91 730 68 707 q 147 753 114 753 q 202 730 179 753 q 225 675 225 707 q 202 619 225 642 q 147 596 179 596 q 91 619 114 596 q 68 675 68 642 m 68 476 q 91 531 68 508 q 147 554 114 554 q 202 531 179 554 q 225 476 225 508 q 202 420 225 443 q 147 397 179 397 q 91 420 114 397 q 68 476 68 443 m 68 278 q 91 333 68 310 q 147 356 114 356 q 202 333 179 356 q 225 278 225 310 q 202 222 225 244 q 147 199 179 199 q 91 222 114 199 q 68 278 68 244 m 267 874 q 290 928 267 906 q 346 951 313 951 q 401 928 378 951 q 424 874 424 906 q 401 817 424 840 q 346 794 378 794 q 290 817 313 794 q 267 874 267 840 m 267 476 q 290 531 267 508 q 346 554 313 554 q 401 531 378 554 q 424 476 424 508 q 401 420 424 443 q 346 397 378 397 q 290 420 313 397 q 267 476 267 443 m 267 79 q 290 134 267 111 q 346 157 313 157 q 401 134 378 157 q 424 79 424 111 q 401 23 424 46 q 346 0 378 0 q 290 23 313 0 q 267 79 267 46 m 465 874 q 488 928 465 906 q 543 951 511 951 q 599 928 576 951 q 622 874 622 906 q 599 817 622 840 q 543 794 576 794 q 488 817 511 794 q 465 874 465 840 m 465 476 q 488 531 465 508 q 543 554 511 554 q 599 531 576 554 q 622 476 622 508 q 599 420 622 443 q 543 397 576 397 q 488 420 511 397 q 465 476 465 443 m 465 79 q 488 134 465 111 q 543 157 511 157 q 599 134 576 157 q 622 79 622 111 q 599 23 622 46 q 543 0 576 0 q 488 23 511 0 q 465 79 465 46 m 664 874 q 687 928 664 906 q 742 951 710 951 q 798 928 775 951 q 821 874 821 906 q 798 817 821 840 q 742 794 775 794 q 687 817 710 794 q 664 874 664 840 m 664 476 q 687 531 664 508 q 742 554 710 554 q 798 531 775 554 q 821 476 821 508 q 798 420 821 443 q 742 397 775 397 q 687 420 710 397 q 664 476 664 443 m 664 79 q 687 134 664 111 q 742 157 710 157 q 798 134 775 157 q 821 79 821 111 q 798 23 821 46 q 742 0 775 0 q 687 23 710 0 q 664 79 664 46 z "},"F":{"ha":889,"x_min":68,"x_max":821,"o":"m 68 675 q 91 730 68 707 q 147 753 114 753 q 202 730 179 753 q 225 675 225 707 q 202 619 225 642 q 147 596 179 596 q 91 619 114 596 q 68 675 68 642 m 68 476 q 91 531 68 508 q 147 554 114 554 q 202 531 179 554 q 225 476 225 508 q 202 420 225 443 q 147 397 179 397 q 91 420 114 397 q 68 476 68 443 m 68 278 q 91 333 68 310 q 147 356 114 356 q 202 333 179 356 q 225 278 225 310 q 202 222 225 244 q 147 199 179 199 q 91 222 114 199 q 68 278 68 244 m 68 79 q 91 134 68 111 q 147 157 114 157 q 202 134 179 157 q 225 79 225 111 q 202 23 225 46 q 147 0 179 0 q 91 23 114 0 q 68 79 68 46 m 267 874 q 290 928 267 906 q 346 951 313 951 q 401 928 378 951 q 424 874 424 906 q 401 817 424 840 q 346 794 378 794 q 290 817 313 794 q 267 874 267 840 m 267 476 q 290 531 267 508 q 346 554 313 554 q 401 531 378 554 q 424 476 424 508 q 401 420 424 443 q 346 397 378 397 q 290 420 313 397 q 267 476 267 443 m 465 874 q 488 928 465 906 q 543 951 511 951 q 599 928 576 951 q 622 874 622 906 q 599 817 622 840 q 543 794 576 794 q 488 817 511 794 q 465 874 465 840 m 465 476 q 488 531 465 508 q 543 554 511 554 q 599 531 576 554 q 622 476 622 508 q 599 420 622 443 q 543 397 576 397 q 488 420 511 397 q 465 476 465 443 m 664 874 q 687 928 664 906 q 742 951 710 951 q 798 928 775 951 q 821 874 821 906 q 798 817 821 840 q 742 794 775 794 q 687 817 710 794 q 664 874 664 840 m 664 476 q 687 531 664 508 q 742 554 710 554 q 798 531 775 554 q 821 476 821 508 q 798 420 821 443 q 742 397 775 397 q 687 420 710 397 q 664 476 664 443 z "},"G":{"ha":889,"x_min":68,"x_max":821,"o":"m 68 675 q 91 730 68 707 q 147 753 114 753 q 202 730 179 753 q 225 675 225 707 q 202 619 225 642 q 147 596 179 596 q 91 619 114 596 q 68 675 68 642 m 68 476 q 91 531 68 508 q 147 554 114 554 q 202 531 179 554 q 225 476 225 508 q 202 420 225 443 q 147 397 179 397 q 91 420 114 397 q 68 476 68 443 m 68 278 q 91 333 68 310 q 147 356 114 356 q 202 333 179 356 q 225 278 225 310 q 202 222 225 244 q 147 199 179 199 q 91 222 114 199 q 68 278 68 244 m 267 874 q 290 928 267 906 q 346 951 313 951 q 401 928 378 951 q 424 874 424 906 q 401 817 424 840 q 346 794 378 794 q 290 817 313 794 q 267 874 267 840 m 267 79 q 290 134 267 111 q 346 157 313 157 q 401 134 378 157 q 424 79 424 111 q 401 23 424 46 q 346 0 378 0 q 290 23 313 0 q 267 79 267 46 m 465 874 q 488 928 465 906 q 543 951 511 951 q 599 928 576 951 q 622 874 622 906 q 599 817 622 840 q 543 794 576 794 q 488 817 511 794 q 465 874 465 840 m 465 476 q 488 531 465 508 q 543 554 511 554 q 599 531 576 554 q 622 476 622 508 q 599 420 622 443 q 543 397 576 397 q 488 420 511 397 q 465 476 465 443 m 465 79 q 488 134 465 111 q 543 157 511 157 q 599 134 576 157 q 622 79 622 111 q 599 23 622 46 q 543 0 576 0 q 488 23 511 0 q 465 79 465 46 m 664 874 q 687 928 664 906 q 742 951 710 951 q 798 928 775 951 q 821 874 821 906 q 798 817 821 840 q 742 794 775 794 q 687 817 710 794 q 664 874 664 840 m 664 476 q 687 531 664 508 q 742 554 710 554 q 798 531 775 554 q 821 476 821 508 q 798 420 821 443 q 742 397 775 397 q 687 420 710 397 q 664 476 664 443 m 664 278 q 687 333 664 310 q 742 356 710 356 q 798 333 775 356 q 821 278 821 310 q 798 222 821 244 q 742 199 775 199 q 687 222 710 199 q 664 278 664 244 m 664 79 q 687 134 664 111 q 742 157 710 157 q 798 134 775 157 q 821 79 821 111 q 798 23 821 46 q 742 0 775 0 q 687 23 710 0 q 664 79 664 46 z "},"H":{"ha":889,"x_min":68,"x_max":821,"o":"m 68 874 q 91 928 68 906 q 147 951 114 951 q 202 928 179 951 q 225 874 225 906 q 202 817 225 840 q 147 794 179 794 q 91 817 114 794 q 68 874 68 840 m 68 675 q 91 730 68 707 q 147 753 114 753 q 202 730 179 753 q 225 675 225 707 q 202 619 225 642 q 147 596 179 596 q 91 619 114 596 q 68 675 68 642 m 68 476 q 91 531 68 508 q 147 554 114 554 q 202 531 179 554 q 225 476 225 508 q 202 420 225 443 q 147 397 179 397 q 91 420 114 397 q 68 476 68 443 m 68 278 q 91 333 68 310 q 147 356 114 356 q 202 333 179 356 q 225 278 225 310 q 202 222 225 244 q 147 199 179 199 q 91 222 114 199 q 68 278 68 244 m 68 79 q 91 134 68 111 q 147 157 114 157 q 202 134 179 157 q 225 79 225 111 q 202 23 225 46 q 147 0 179 0 q 91 23 114 0 q 68 79 68 46 m 267 476 q 290 531 267 508 q 346 554 313 554 q 401 531 378 554 q 424 476 424 508 q 401 420 424 443 q 346 397 378 397 q 290 420 313 397 q 267 476 267 443 m 465 476 q 488 531 465 508 q 543 554 511 554 q 599 531 576 554 q 622 476 622 508 q 599 420 622 443 q 543 397 576 397 q 488 420 511 397 q 465 476 465 443 m 664 874 q 687 928 664 906 q 742 951 710 951 q 798 928 775 951 q 821 874 821 906 q 798 817 821 840 q 742 794 775 794 q 687 817 710 794 q 664 874 664 840 m 664 675 q 687 730 664 707 q 742 753 710 753 q 798 730 775 753 q 821 675 821 707 q 798 619 821 642 q 742 596 775 596 q 687 619 710 596 q 664 675 664 642 m 664 476 q 687 531 664 508 q 742 554 710 554 q 798 531 775 554 q 821 476 821 508 q 798 420 821 443 q 742 397 775 397 q 687 420 710 397 q 664 476 664 443 m 664 278 q 687 333 664 310 q 742 356 710 356 q 798 333 775 356 q 821 278 821 310 q 798 222 821 244 q 742 199 775 199 q 687 222 710 199 q 664 278 664 244 m 664 79 q 687 134 664 111 q 742 157 710 157 q 798 134 775 157 q 821 79 821 111 q 798 23 821 46 q 742 0 775 0 q 687 23 710 0 q 664 79 664 46 z "},"I":{"ha":689,"x_min":67,"x_max":622,"o":"m 67 874 q 90 928 67 906 q 146 951 114 951 q 201 928 178 951 q 225 874 225 906 q 201 817 225 840 q 146 794 178 794 q 90 817 114 794 q 67 874 67 840 m 67 79 q 90 134 67 111 q 146 157 114 157 q 201 134 178 157 q 225 79 225 111 q 201 23 225 46 q 146 0 178 0 q 90 23 114 0 q 67 79 67 46 m 67 874 q 90 928 67 906 q 146 951 114 951 q 201 928 178 951 q 225 874 225 906 q 201 817 225 840 q 146 794 178 794 q 90 817 114 794 q 67 874 67 840 m 67 79 q 90 134 67 111 q 146 157 114 157 q 201 134 178 157 q 225 79 225 111 q 201 23 225 46 q 146 0 178 0 q 90 23 114 0 q 67 79 67 46 m 265 874 q 289 928 265 906 q 344 951 313 951 q 400 928 376 951 q 424 874 424 906 q 400 817 424 840 q 344 794 376 794 q 289 817 313 794 q 265 874 265 840 m 265 675 q 289 730 265 707 q 344 753 313 753 q 400 730 376 753 q 424 675 424 707 q 400 619 424 642 q 344 596 376 596 q 289 619 313 596 q 265 675 265 642 m 265 476 q 289 531 265 508 q 344 554 313 554 q 400 531 376 554 q 424 476 424 508 q 400 420 424 443 q 344 397 376 397 q 289 420 313 397 q 265 476 265 443 m 265 278 q 289 333 265 310 q 344 356 313 356 q 400 333 376 356 q 424 278 424 310 q 400 222 424 244 q 344 199 376 199 q 289 222 313 199 q 265 278 265 244 m 265 79 q 289 134 265 111 q 344 157 313 157 q 400 134 376 157 q 424 79 424 111 q 400 23 424 46 q 344 0 376 0 q 289 23 313 0 q 265 79 265 46 m 464 874 q 488 928 464 906 q 543 951 511 951 q 599 928 575 951 q 622 874 622 906 q 599 817 622 840 q 543 794 575 794 q 488 817 511 794 q 464 874 464 840 m 464 79 q 488 134 464 111 q 543 157 511 157 q 599 134 575 157 q 622 79 622 111 q 599 23 622 46 q 543 0 575 0 q 488 23 511 0 q 464 79 464 46 z "},"J":{"ha":889,"x_min":68,"x_max":821,"o":"m 68 79 q 91 134 68 111 q 147 157 114 157 q 202 134 179 157 q 225 79 225 111 q 202 23 225 46 q 147 0 179 0 q 91 23 114 0 q 68 79 68 46 m 267 874 q 290 928 267 906 q 346 951 313 951 q 401 928 378 951 q 424 874 424 906 q 401 817 424 840 q 346 794 378 794 q 290 817 313 794 q 267 874 267 840 m 267 79 q 290 134 267 111 q 346 157 313 157 q 401 134 378 157 q 424 79 424 111 q 401 23 424 46 q 346 0 378 0 q 290 23 313 0 q 267 79 267 46 m 465 874 q 488 928 465 906 q 543 951 511 951 q 599 928 576 951 q 622 874 622 906 q 599 817 622 840 q 543 794 576 794 q 488 817 511 794 q 465 874 465 840 m 465 79 q 488 134 465 111 q 543 157 511 157 q 599 134 576 157 q 622 79 622 111 q 599 23 622 46 q 543 0 576 0 q 488 23 511 0 q 465 79 465 46 m 664 874 q 687 928 664 906 q 742 951 710 951 q 798 928 775 951 q 821 874 821 906 q 798 817 821 840 q 742 794 775 794 q 687 817 710 794 q 664 874 664 840 m 664 675 q 687 730 664 707 q 742 753 710 753 q 798 730 775 753 q 821 675 821 707 q 798 619 821 642 q 742 596 775 596 q 687 619 710 596 q 664 675 664 642 m 664 476 q 687 531 664 508 q 742 554 710 554 q 798 531 775 554 q 821 476 821 508 q 798 420 821 443 q 742 397 775 397 q 687 420 710 397 q 664 476 664 443 m 664 278 q 687 333 664 310 q 742 356 710 356 q 798 333 775 356 q 821 278 821 310 q 798 222 821 244 q 742 199 775 199 q 687 222 710 199 q 664 278 664 244 z "},"K":{"ha":889,"x_min":68,"x_max":821,"o":"m 68 874 q 91 928 68 906 q 147 951 114 951 q 202 928 179 951 q 225 874 225 906 q 202 817 225 840 q 147 794 179 794 q 91 817 114 794 q 68 874 68 840 m 68 675 q 91 730 68 707 q 147 753 114 753 q 202 730 179 753 q 225 675 225 707 q 202 619 225 642 q 147 596 179 596 q 91 619 114 596 q 68 675 68 642 m 68 476 q 91 531 68 508 q 147 554 114 554 q 202 531 179 554 q 225 476 225 508 q 202 420 225 443 q 147 397 179 397 q 91 420 114 397 q 68 476 68 443 m 68 278 q 91 333 68 310 q 147 356 114 356 q 202 333 179 356 q 225 278 225 310 q 202 222 225 244 q 147 199 179 199 q 91 222 114 199 q 68 278 68 244 m 68 79 q 91 134 68 111 q 147 157 114 157 q 202 134 179 157 q 225 79 225 111 q 202 23 225 46 q 147 0 179 0 q 91 23 114 0 q 68 79 68 46 m 267 476 q 290 531 267 508 q 346 554 313 554 q 401 531 378 554 q 424 476 424 508 q 401 420 424 443 q 346 397 378 397 q 290 420 313 397 q 267 476 267 443 m 465 476 q 488 531 465 508 q 543 554 511 554 q 599 531 576 554 q 622 476 622 508 q 599 420 622 443 q 543 397 576 397 q 488 420 511 397 q 465 476 465 443 m 664 874 q 687 928 664 906 q 742 951 710 951 q 798 928 775 951 q 821 874 821 906 q 798 817 821 840 q 742 794 775 794 q 687 817 710 794 q 664 874 664 840 m 664 675 q 687 730 664 707 q 742 753 710 753 q 798 730 775 753 q 821 675 821 707 q 798 619 821 642 q 742 596 775 596 q 687 619 710 596 q 664 675 664 642 m 664 278 q 687 333 664 310 q 742 356 710 356 q 798 333 775 356 q 821 278 821 310 q 798 222 821 244 q 742 199 775 199 q 687 222 710 199 q 664 278 664 244 m 664 79 q 687 134 664 111 q 742 157 710 157 q 798 134 775 157 q 821 79 821 111 q 798 23 821 46 q 742 0 775 0 q 687 23 710 0 q 664 79 664 46 z "},"L":{"ha":889,"x_min":68,"x_max":821,"o":"m 68 874 q 91 928 68 906 q 147 951 114 951 q 202 928 179 951 q 225 874 225 906 q 202 817 225 840 q 147 794 179 794 q 91 817 114 794 q 68 874 68 840 m 68 675 q 91 730 68 707 q 147 753 114 753 q 202 730 179 753 q 225 675 225 707 q 202 619 225 642 q 147 596 179 596 q 91 619 114 596 q 68 675 68 642 m 68 476 q 91 531 68 508 q 147 554 114 554 q 202 531 179 554 q 225 476 225 508 q 202 420 225 443 q 147 397 179 397 q 91 420 114 397 q 68 476 68 443 m 68 278 q 91 333 68 310 q 147 356 114 356 q 202 333 179 356 q 225 278 225 310 q 202 222 225 244 q 147 199 179 199 q 91 222 114 199 q 68 278 68 244 m 68 79 q 91 134 68 111 q 147 157 114 157 q 202 134 179 157 q 225 79 225 111 q 202 23 225 46 q 147 0 179 0 q 91 23 114 0 q 68 79 68 46 m 267 79 q 290 134 267 111 q 346 157 313 157 q 401 134 378 157 q 424 79 424 111 q 401 23 424 46 q 346 0 378 0 q 290 23 313 0 q 267 79 267 46 m 465 79 q 488 134 465 111 q 543 157 511 157 q 599 134 576 157 q 622 79 622 111 q 599 23 622 46 q 543 0 576 0 q 488 23 511 0 q 465 79 465 46 m 664 79 q 687 134 664 111 q 742 157 710 157 q 798 134 775 157 q 821 79 821 111 q 798 23 821 46 q 742 0 775 0 q 687 23 710 0 q 664 79 664 46 z "},"M":{"ha":1086,"x_min":67,"x_max":1019,"o":"m 67 874 q 90 928 67 906 q 146 951 114 951 q 201 928 178 951 q 225 874 225 906 q 201 817 225 840 q 146 794 178 794 q 90 817 114 794 q 67 874 67 840 m 67 675 q 90 730 67 707 q 146 753 114 753 q 201 730 178 753 q 225 675 225 707 q 201 619 225 642 q 146 596 178 596 q 90 619 114 596 q 67 675 67 642 m 67 476 q 90 531 67 508 q 146 554 114 554 q 201 531 178 554 q 225 476 225 508 q 201 420 225 443 q 146 397 178 397 q 90 420 114 397 q 67 476 67 443 m 67 278 q 90 333 67 310 q 146 356 114 356 q 201 333 178 356 q 225 278 225 310 q 201 222 225 244 q 146 199 178 199 q 90 222 114 199 q 67 278 67 244 m 67 79 q 90 134 67 111 q 146 157 114 157 q 201 134 178 157 q 225 79 225 111 q 201 23 225 46 q 146 0 178 0 q 90 23 114 0 q 67 79 67 46 m 265 675 q 289 730 265 707 q 344 753 313 753 q 400 730 376 753 q 424 675 424 707 q 400 619 424 642 q 344 596 376 596 q 289 619 313 596 q 265 675 265 642 m 464 476 q 488 531 464 508 q 543 554 511 554 q 599 531 575 554 q 622 476 622 508 q 599 420 622 443 q 543 397 575 397 q 488 420 511 397 q 464 476 464 443 m 663 675 q 686 730 663 707 q 742 753 710 753 q 797 730 774 753 q 821 675 821 707 q 797 619 821 642 q 742 596 774 596 q 686 619 710 596 q 663 675 663 642 m 861 874 q 885 928 861 906 q 940 951 908 951 q 996 928 972 951 q 1019 874 1019 906 q 996 817 1019 840 q 940 794 972 794 q 885 817 908 794 q 861 874 861 840 m 861 675 q 885 730 861 707 q 940 753 908 753 q 996 730 972 753 q 1019 675 1019 707 q 996 619 1019 642 q 940 596 972 596 q 885 619 908 596 q 861 675 861 642 m 861 476 q 885 531 861 508 q 940 554 908 554 q 996 531 972 554 q 1019 476 1019 508 q 996 420 1019 443 q 940 397 972 397 q 885 420 908 397 q 861 476 861 443 m 861 278 q 885 333 861 310 q 940 356 908 356 q 996 333 972 356 q 1019 278 1019 310 q 996 222 1019 244 q 940 199 972 199 q 885 222 908 199 q 861 278 861 244 m 861 79 q 885 134 861 111 q 940 157 908 157 q 996 134 972 157 q 1019 79 1019 111 q 996 23 1019 46 q 940 0 972 0 q 885 23 908 0 q 861 79 861 46 z "},"N":{"ha":1086,"x_min":67,"x_max":1019,"o":"m 67 874 q 90 928 67 906 q 146 951 114 951 q 201 928 178 951 q 225 874 225 906 q 201 817 225 840 q 146 794 178 794 q 90 817 114 794 q 67 874 67 840 m 67 675 q 90 730 67 707 q 146 753 114 753 q 201 730 178 753 q 225 675 225 707 q 201 619 225 642 q 146 596 178 596 q 90 619 114 596 q 67 675 67 642 m 67 476 q 90 531 67 508 q 146 554 114 554 q 201 531 178 554 q 225 476 225 508 q 201 420 225 443 q 146 397 178 397 q 90 420 114 397 q 67 476 67 443 m 67 278 q 90 333 67 310 q 146 356 114 356 q 201 333 178 356 q 225 278 225 310 q 201 222 225 244 q 146 199 178 199 q 90 222 114 199 q 67 278 67 244 m 67 79 q 90 134 67 111 q 146 157 114 157 q 201 134 178 157 q 225 79 225 111 q 201 23 225 46 q 146 0 178 0 q 90 23 114 0 q 67 79 67 46 m 265 675 q 289 730 265 707 q 344 753 313 753 q 400 730 376 753 q 424 675 424 707 q 400 619 424 642 q 344 596 376 596 q 289 619 313 596 q 265 675 265 642 m 464 476 q 488 531 464 508 q 543 554 511 554 q 599 531 575 554 q 622 476 622 508 q 599 420 622 443 q 543 397 575 397 q 488 420 511 397 q 464 476 464 443 m 663 278 q 686 333 663 310 q 742 356 710 356 q 797 333 774 356 q 821 278 821 310 q 797 222 821 244 q 742 199 774 199 q 686 222 710 199 q 663 278 663 244 m 861 874 q 885 928 861 906 q 940 951 908 951 q 996 928 972 951 q 1019 874 1019 906 q 996 817 1019 840 q 940 794 972 794 q 885 817 908 794 q 861 874 861 840 m 861 675 q 885 730 861 707 q 940 753 908 753 q 996 730 972 753 q 1019 675 1019 707 q 996 619 1019 642 q 940 596 972 596 q 885 619 908 596 q 861 675 861 642 m 861 476 q 885 531 861 508 q 940 554 908 554 q 996 531 972 554 q 1019 476 1019 508 q 996 420 1019 443 q 940 397 972 397 q 885 420 908 397 q 861 476 861 443 m 861 278 q 885 333 861 310 q 940 356 908 356 q 996 333 972 356 q 1019 278 1019 310 q 996 222 1019 244 q 940 199 972 199 q 885 222 908 199 q 861 278 861 244 m 861 79 q 885 134 861 111 q 940 157 908 157 q 996 134 972 157 q 1019 79 1019 111 q 996 23 1019 46 q 940 0 972 0 q 885 23 908 0 q 861 79 861 46 z "},"O":{"ha":889,"x_min":68,"x_max":821,"o":"m 68 675 q 91 730 68 707 q 147 753 114 753 q 202 730 179 753 q 225 675 225 707 q 202 619 225 642 q 147 596 179 596 q 91 619 114 596 q 68 675 68 642 m 68 476 q 91 531 68 508 q 147 554 114 554 q 202 531 179 554 q 225 476 225 508 q 202 420 225 443 q 147 397 179 397 q 91 420 114 397 q 68 476 68 443 m 68 278 q 91 333 68 310 q 147 356 114 356 q 202 333 179 356 q 225 278 225 310 q 202 222 225 244 q 147 199 179 199 q 91 222 114 199 q 68 278 68 244 m 267 874 q 290 928 267 906 q 346 951 313 951 q 401 928 378 951 q 424 874 424 906 q 401 817 424 840 q 346 794 378 794 q 290 817 313 794 q 267 874 267 840 m 267 79 q 290 134 267 111 q 346 157 313 157 q 401 134 378 157 q 424 79 424 111 q 401 23 424 46 q 346 0 378 0 q 290 23 313 0 q 267 79 267 46 m 465 874 q 488 928 465 906 q 543 951 511 951 q 599 928 576 951 q 622 874 622 906 q 599 817 622 840 q 543 794 576 794 q 488 817 511 794 q 465 874 465 840 m 465 79 q 488 134 465 111 q 543 157 511 157 q 599 134 576 157 q 622 79 622 111 q 599 23 622 46 q 543 0 576 0 q 488 23 511 0 q 465 79 465 46 m 664 675 q 687 730 664 707 q 742 753 710 753 q 798 730 775 753 q 821 675 821 707 q 798 619 821 642 q 742 596 775 596 q 687 619 710 596 q 664 675 664 642 m 664 476 q 687 531 664 508 q 742 554 710 554 q 798 531 775 554 q 821 476 821 508 q 798 420 821 443 q 742 397 775 397 q 687 420 710 397 q 664 476 664 443 m 664 278 q 687 333 664 310 q 742 356 710 356 q 798 333 775 356 q 821 278 821 310 q 798 222 821 244 q 742 199 775 199 q 687 222 710 199 q 664 278 664 244 z "},"P":{"ha":889,"x_min":68,"x_max":821,"o":"m 68 874 q 91 928 68 906 q 147 951 114 951 q 202 928 179 951 q 225 874 225 906 q 202 817 225 840 q 147 794 179 794 q 91 817 114 794 q 68 874 68 840 m 68 675 q 91 730 68 707 q 147 753 114 753 q 202 730 179 753 q 225 675 225 707 q 202 619 225 642 q 147 596 179 596 q 91 619 114 596 q 68 675 68 642 m 68 476 q 91 531 68 508 q 147 554 114 554 q 202 531 179 554 q 225 476 225 508 q 202 420 225 443 q 147 397 179 397 q 91 420 114 397 q 68 476 68 443 m 68 278 q 91 333 68 310 q 147 356 114 356 q 202 333 179 356 q 225 278 225 310 q 202 222 225 244 q 147 199 179 199 q 91 222 114 199 q 68 278 68 244 m 68 79 q 91 134 68 111 q 147 157 114 157 q 202 134 179 157 q 225 79 225 111 q 202 23 225 46 q 147 0 179 0 q 91 23 114 0 q 68 79 68 46 m 267 874 q 290 928 267 906 q 346 951 313 951 q 401 928 378 951 q 424 874 424 906 q 401 817 424 840 q 346 794 378 794 q 290 817 313 794 q 267 874 267 840 m 267 476 q 290 531 267 508 q 346 554 313 554 q 401 531 378 554 q 424 476 424 508 q 401 420 424 443 q 346 397 378 397 q 290 420 313 397 q 267 476 267 443 m 465 874 q 488 928 465 906 q 543 951 511 951 q 599 928 576 951 q 622 874 622 906 q 599 817 622 840 q 543 794 576 794 q 488 817 511 794 q 465 874 465 840 m 465 476 q 488 531 465 508 q 543 554 511 554 q 599 531 576 554 q 622 476 622 508 q 599 420 622 443 q 543 397 576 397 q 488 420 511 397 q 465 476 465 443 m 664 675 q 687 730 664 707 q 742 753 710 753 q 798 730 775 753 q 821 675 821 707 q 798 619 821 642 q 742 596 775 596 q 687 619 710 596 q 664 675 664 642 z "},"Q":{"ha":889,"x_min":68,"x_max":821,"o":"m 68 675 q 91 730 68 707 q 147 753 114 753 q 202 730 179 753 q 225 675 225 707 q 202 619 225 642 q 147 596 179 596 q 91 619 114 596 q 68 675 68 642 m 68 476 q 91 531 68 508 q 147 554 114 554 q 202 531 179 554 q 225 476 225 508 q 202 420 225 443 q 147 397 179 397 q 91 420 114 397 q 68 476 68 443 m 68 278 q 91 333 68 310 q 147 356 114 356 q 202 333 179 356 q 225 278 225 310 q 202 222 225 244 q 147 199 179 199 q 91 222 114 199 q 68 278 68 244 m 267 874 q 290 928 267 906 q 346 951 313 951 q 401 928 378 951 q 424 874 424 906 q 401 817 424 840 q 346 794 378 794 q 290 817 313 794 q 267 874 267 840 m 267 79 q 290 134 267 111 q 346 157 313 157 q 401 134 378 157 q 424 79 424 111 q 401 23 424 46 q 346 0 378 0 q 290 23 313 0 q 267 79 267 46 m 465 874 q 488 928 465 906 q 543 951 511 951 q 599 928 576 951 q 622 874 622 906 q 599 817 622 840 q 543 794 576 794 q 488 817 511 794 q 465 874 465 840 m 465 79 q 488 134 465 111 q 543 157 511 157 q 599 134 576 157 q 622 79 622 111 q 599 23 622 46 q 543 0 576 0 q 488 23 511 0 q 465 79 465 46 m 664 675 q 687 730 664 707 q 742 753 710 753 q 798 730 775 753 q 821 675 821 707 q 798 619 821 642 q 742 596 775 596 q 687 619 710 596 q 664 675 664 642 m 664 476 q 687 531 664 508 q 742 554 710 554 q 798 531 775 554 q 821 476 821 508 q 798 420 821 443 q 742 397 775 397 q 687 420 710 397 q 664 476 664 443 m 664 278 q 687 333 664 310 q 742 356 710 356 q 798 333 775 356 q 821 278 821 310 q 798 222 821 244 q 742 199 775 199 q 687 222 710 199 q 664 278 664 244 m 465 -119 q 488 -65 465 -87 q 543 -42 511 -42 q 599 -65 576 -42 q 622 -119 622 -87 q 599 -176 622 -153 q 543 -199 576 -199 q 488 -176 511 -199 q 465 -119 465 -153 z "},"R":{"ha":889,"x_min":68,"x_max":821,"o":"m 68 874 q 91 928 68 906 q 147 951 114 951 q 202 928 179 951 q 225 874 225 906 q 202 817 225 840 q 147 794 179 794 q 91 817 114 794 q 68 874 68 840 m 68 675 q 91 730 68 707 q 147 753 114 753 q 202 730 179 753 q 225 675 225 707 q 202 619 225 642 q 147 596 179 596 q 91 619 114 596 q 68 675 68 642 m 68 476 q 91 531 68 508 q 147 554 114 554 q 202 531 179 554 q 225 476 225 508 q 202 420 225 443 q 147 397 179 397 q 91 420 114 397 q 68 476 68 443 m 68 278 q 91 333 68 310 q 147 356 114 356 q 202 333 179 356 q 225 278 225 310 q 202 222 225 244 q 147 199 179 199 q 91 222 114 199 q 68 278 68 244 m 68 79 q 91 134 68 111 q 147 157 114 157 q 202 134 179 157 q 225 79 225 111 q 202 23 225 46 q 147 0 179 0 q 91 23 114 0 q 68 79 68 46 m 267 874 q 290 928 267 906 q 346 951 313 951 q 401 928 378 951 q 424 874 424 906 q 401 817 424 840 q 346 794 378 794 q 290 817 313 794 q 267 874 267 840 m 267 476 q 290 531 267 508 q 346 554 313 554 q 401 531 378 554 q 424 476 424 508 q 401 420 424 443 q 346 397 378 397 q 290 420 313 397 q 267 476 267 443 m 465 874 q 488 928 465 906 q 543 951 511 951 q 599 928 576 951 q 622 874 622 906 q 599 817 622 840 q 543 794 576 794 q 488 817 511 794 q 465 874 465 840 m 465 476 q 488 531 465 508 q 543 554 511 554 q 599 531 576 554 q 622 476 622 508 q 599 420 622 443 q 543 397 576 397 q 488 420 511 397 q 465 476 465 443 m 664 675 q 687 730 664 707 q 742 753 710 753 q 798 730 775 753 q 821 675 821 707 q 798 619 821 642 q 742 596 775 596 q 687 619 710 596 q 664 675 664 642 m 664 278 q 687 333 664 310 q 742 356 710 356 q 798 333 775 356 q 821 278 821 310 q 798 222 821 244 q 742 199 775 199 q 687 222 710 199 q 664 278 664 244 m 664 79 q 687 134 664 111 q 742 157 710 157 q 798 134 775 157 q 821 79 821 111 q 798 23 821 46 q 742 0 775 0 q 687 23 710 0 q 664 79 664 46 z "},"S":{"ha":889,"x_min":68,"x_max":821,"o":"m 68 675 q 91 730 68 707 q 147 753 114 753 q 202 730 179 753 q 225 675 225 707 q 202 619 225 642 q 147 596 179 596 q 91 619 114 596 q 68 675 68 642 m 68 79 q 91 134 68 111 q 147 157 114 157 q 202 134 179 157 q 225 79 225 111 q 202 23 225 46 q 147 0 179 0 q 91 23 114 0 q 68 79 68 46 m 267 874 q 290 928 267 906 q 346 951 313 951 q 401 928 378 951 q 424 874 424 906 q 401 817 424 840 q 346 794 378 794 q 290 817 313 794 q 267 874 267 840 m 267 476 q 290 531 267 508 q 346 554 313 554 q 401 531 378 554 q 424 476 424 508 q 401 420 424 443 q 346 397 378 397 q 290 420 313 397 q 267 476 267 443 m 267 79 q 290 134 267 111 q 346 157 313 157 q 401 134 378 157 q 424 79 424 111 q 401 23 424 46 q 346 0 378 0 q 290 23 313 0 q 267 79 267 46 m 465 874 q 488 928 465 906 q 543 951 511 951 q 599 928 576 951 q 622 874 622 906 q 599 817 622 840 q 543 794 576 794 q 488 817 511 794 q 465 874 465 840 m 465 476 q 488 531 465 508 q 543 554 511 554 q 599 531 576 554 q 622 476 622 508 q 599 420 622 443 q 543 397 576 397 q 488 420 511 397 q 465 476 465 443 m 465 79 q 488 134 465 111 q 543 157 511 157 q 599 134 576 157 q 622 79 622 111 q 599 23 622 46 q 543 0 576 0 q 488 23 511 0 q 465 79 465 46 m 664 874 q 687 928 664 906 q 742 951 710 951 q 798 928 775 951 q 821 874 821 906 q 798 817 821 840 q 742 794 775 794 q 687 817 710 794 q 664 874 664 840 m 664 278 q 687 333 664 310 q 742 356 710 356 q 798 333 775 356 q 821 278 821 310 q 798 222 821 244 q 742 199 775 199 q 687 222 710 199 q 664 278 664 244 z "},"T":{"ha":1086,"x_min":67,"x_max":1019,"o":"m 67 874 q 90 928 67 906 q 146 951 114 951 q 201 928 178 951 q 225 874 225 906 q 201 817 225 840 q 146 794 178 794 q 90 817 114 794 q 67 874 67 840 m 265 874 q 289 928 265 906 q 344 951 313 951 q 400 928 376 951 q 424 874 424 906 q 400 817 424 840 q 344 794 376 794 q 289 817 313 794 q 265 874 265 840 m 464 874 q 488 928 464 906 q 543 951 511 951 q 599 928 575 951 q 622 874 622 906 q 599 817 622 840 q 543 794 575 794 q 488 817 511 794 q 464 874 464 840 m 464 675 q 488 730 464 707 q 543 753 511 753 q 599 730 575 753 q 622 675 622 707 q 599 619 622 642 q 543 596 575 596 q 488 619 511 596 q 464 675 464 642 m 464 476 q 488 531 464 508 q 543 554 511 554 q 599 531 575 554 q 622 476 622 508 q 599 420 622 443 q 543 397 575 397 q 488 420 511 397 q 464 476 464 443 m 464 278 q 488 333 464 310 q 543 356 511 356 q 599 333 575 356 q 622 278 622 310 q 599 222 622 244 q 543 199 575 199 q 488 222 511 199 q 464 278 464 244 m 464 79 q 488 134 464 111 q 543 157 511 157 q 599 134 575 157 q 622 79 622 111 q 599 23 622 46 q 543 0 575 0 q 488 23 511 0 q 464 79 464 46 m 663 874 q 686 928 663 906 q 742 951 710 951 q 797 928 774 951 q 821 874 821 906 q 797 817 821 840 q 742 794 774 794 q 686 817 710 794 q 663 874 663 840 m 861 874 q 885 928 861 906 q 940 951 908 951 q 996 928 972 951 q 1019 874 1019 906 q 996 817 1019 840 q 940 794 972 794 q 885 817 908 794 q 861 874 861 840 z "},"U":{"ha":889,"x_min":68,"x_max":821,"o":"m 68 874 q 91 928 68 906 q 147 951 114 951 q 202 928 179 951 q 225 874 225 906 q 202 817 225 840 q 147 794 179 794 q 91 817 114 794 q 68 874 68 840 m 68 675 q 91 730 68 707 q 147 753 114 753 q 202 730 179 753 q 225 675 225 707 q 202 619 225 642 q 147 596 179 596 q 91 619 114 596 q 68 675 68 642 m 68 476 q 91 531 68 508 q 147 554 114 554 q 202 531 179 554 q 225 476 225 508 q 202 420 225 443 q 147 397 179 397 q 91 420 114 397 q 68 476 68 443 m 68 278 q 91 333 68 310 q 147 356 114 356 q 202 333 179 356 q 225 278 225 310 q 202 222 225 244 q 147 199 179 199 q 91 222 114 199 q 68 278 68 244 m 267 79 q 290 134 267 111 q 346 157 313 157 q 401 134 378 157 q 424 79 424 111 q 401 23 424 46 q 346 0 378 0 q 290 23 313 0 q 267 79 267 46 m 465 79 q 488 134 465 111 q 543 157 511 157 q 599 134 576 157 q 622 79 622 111 q 599 23 622 46 q 543 0 576 0 q 488 23 511 0 q 465 79 465 46 m 664 874 q 687 928 664 906 q 742 951 710 951 q 798 928 775 951 q 821 874 821 906 q 798 817 821 840 q 742 794 775 794 q 687 817 710 794 q 664 874 664 840 m 664 675 q 687 730 664 707 q 742 753 710 753 q 798 730 775 753 q 821 675 821 707 q 798 619 821 642 q 742 596 775 596 q 687 619 710 596 q 664 675 664 642 m 664 476 q 687 531 664 508 q 742 554 710 554 q 798 531 775 554 q 821 476 821 508 q 798 420 821 443 q 742 397 775 397 q 687 420 710 397 q 664 476 664 443 m 664 278 q 687 333 664 310 q 742 356 710 356 q 798 333 775 356 q 821 278 821 310 q 798 222 821 244 q 742 199 775 199 q 687 222 710 199 q 664 278 664 244 z "},"V":{"ha":1086,"x_min":67,"x_max":1019,"o":"m 67 874 q 90 928 67 906 q 146 951 114 951 q 201 928 178 951 q 225 874 225 906 q 201 817 225 840 q 146 794 178 794 q 90 817 114 794 q 67 874 67 840 m 67 675 q 90 730 67 707 q 146 753 114 753 q 201 730 178 753 q 225 675 225 707 q 201 619 225 642 q 146 596 178 596 q 90 619 114 596 q 67 675 67 642 m 146 0 m 265 476 q 289 531 265 508 q 344 554 313 554 q 400 531 376 554 q 424 476 424 508 q 400 420 424 443 q 344 397 376 397 q 289 420 313 397 q 265 476 265 443 m 265 278 q 289 333 265 310 q 344 356 313 356 q 400 333 376 356 q 424 278 424 310 q 400 222 424 244 q 344 199 376 199 q 289 222 313 199 q 265 278 265 244 m 464 79 q 488 134 464 111 q 543 157 511 157 q 599 134 575 157 q 622 79 622 111 q 599 23 622 46 q 543 0 575 0 q 488 23 511 0 q 464 79 464 46 m 663 476 q 686 531 663 508 q 742 554 710 554 q 797 531 774 554 q 821 476 821 508 q 797 420 821 443 q 742 397 774 397 q 686 420 710 397 q 663 476 663 443 m 663 278 q 686 333 663 310 q 742 356 710 356 q 797 333 774 356 q 821 278 821 310 q 797 222 821 244 q 742 199 774 199 q 686 222 710 199 q 663 278 663 244 m 861 874 q 885 928 861 906 q 940 951 908 951 q 996 928 972 951 q 1019 874 1019 906 q 996 817 1019 840 q 940 794 972 794 q 885 817 908 794 q 861 874 861 840 m 861 675 q 885 730 861 707 q 940 753 908 753 q 996 730 972 753 q 1019 675 1019 707 q 996 619 1019 642 q 940 596 972 596 q 885 619 908 596 q 861 675 861 642 z "},"W":{"ha":1086,"x_min":67,"x_max":1019,"o":"m 1019 79 q 996 23 1019 46 q 940 0 972 0 q 885 23 908 0 q 861 79 861 46 q 885 134 861 111 q 940 157 908 157 q 996 134 972 157 q 1019 79 1019 111 m 1019 278 q 996 222 1019 244 q 940 199 972 199 q 885 222 908 199 q 861 278 861 244 q 885 333 861 310 q 940 356 908 356 q 996 333 972 356 q 1019 278 1019 310 m 1019 476 q 996 420 1019 443 q 940 397 972 397 q 885 420 908 397 q 861 476 861 443 q 885 531 861 508 q 940 554 908 554 q 996 531 972 554 q 1019 476 1019 508 m 1019 675 q 996 619 1019 642 q 940 596 972 596 q 885 619 908 596 q 861 675 861 642 q 885 730 861 707 q 940 753 908 753 q 996 730 972 753 q 1019 675 1019 707 m 1019 874 q 996 817 1019 840 q 940 794 972 794 q 885 817 908 794 q 861 874 861 840 q 885 928 861 906 q 940 951 908 951 q 996 928 972 951 q 1019 874 1019 906 m 821 278 q 797 222 821 244 q 742 199 774 199 q 686 222 710 199 q 663 278 663 244 q 686 333 663 310 q 742 356 710 356 q 797 333 774 356 q 821 278 821 310 m 622 476 q 599 420 622 443 q 543 397 575 397 q 488 420 511 397 q 464 476 464 443 q 488 531 464 508 q 543 554 511 554 q 599 531 575 554 q 622 476 622 508 m 424 278 q 400 222 424 244 q 344 199 376 199 q 289 222 313 199 q 265 278 265 244 q 289 333 265 310 q 344 356 313 356 q 400 333 376 356 q 424 278 424 310 m 225 79 q 201 23 225 46 q 146 0 178 0 q 90 23 114 0 q 67 79 67 46 q 90 134 67 111 q 146 157 114 157 q 201 134 178 157 q 225 79 225 111 m 225 278 q 201 222 225 244 q 146 199 178 199 q 90 222 114 199 q 67 278 67 244 q 90 333 67 310 q 146 356 114 356 q 201 333 178 356 q 225 278 225 310 m 225 476 q 201 420 225 443 q 146 397 178 397 q 90 420 114 397 q 67 476 67 443 q 90 531 67 508 q 146 554 114 554 q 201 531 178 554 q 225 476 225 508 m 225 675 q 201 619 225 642 q 146 596 178 596 q 90 619 114 596 q 67 675 67 642 q 90 730 67 707 q 146 753 114 753 q 201 730 178 753 q 225 675 225 707 m 225 874 q 201 817 225 840 q 146 794 178 794 q 90 817 114 794 q 67 874 67 840 q 90 928 67 906 q 146 951 114 951 q 201 928 178 951 q 225 874 225 906 z "},"X":{"ha":1086,"x_min":67,"x_max":1019,"o":"m 67 874 q 90 928 67 906 q 146 951 114 951 q 201 928 178 951 q 225 874 225 906 q 201 817 225 840 q 146 794 178 794 q 90 817 114 794 q 67 874 67 840 m 67 79 q 90 134 67 111 q 146 157 114 157 q 201 134 178 157 q 225 79 225 111 q 201 23 225 46 q 146 0 178 0 q 90 23 114 0 q 67 79 67 46 m 265 675 q 289 730 265 707 q 344 753 313 753 q 400 730 376 753 q 424 675 424 707 q 400 619 424 642 q 344 596 376 596 q 289 619 313 596 q 265 675 265 642 m 265 278 q 289 333 265 310 q 344 356 313 356 q 400 333 376 356 q 424 278 424 310 q 400 222 424 244 q 344 199 376 199 q 289 222 313 199 q 265 278 265 244 m 464 476 q 488 531 464 508 q 543 554 511 554 q 599 531 575 554 q 622 476 622 508 q 599 420 622 443 q 543 397 575 397 q 488 420 511 397 q 464 476 464 443 m 663 675 q 686 730 663 707 q 742 753 710 753 q 797 730 774 753 q 821 675 821 707 q 797 619 821 642 q 742 596 774 596 q 686 619 710 596 q 663 675 663 642 m 663 278 q 686 333 663 310 q 742 356 710 356 q 797 333 774 356 q 821 278 821 310 q 797 222 821 244 q 742 199 774 199 q 686 222 710 199 q 663 278 663 244 m 861 874 q 885 928 861 906 q 940 951 908 951 q 996 928 972 951 q 1019 874 1019 906 q 996 817 1019 840 q 940 794 972 794 q 885 817 908 794 q 861 874 861 840 m 861 79 q 885 134 861 111 q 940 157 908 157 q 996 134 972 157 q 1019 79 1019 111 q 996 23 1019 46 q 940 0 972 0 q 885 23 908 0 q 861 79 861 46 z "},"Y":{"ha":1086,"x_min":67,"x_max":1019,"o":"m 67 874 q 90 928 67 906 q 146 951 114 951 q 201 928 178 951 q 225 874 225 906 q 201 817 225 840 q 146 794 178 794 q 90 817 114 794 q 67 874 67 840 m 67 675 q 90 730 67 707 q 146 753 114 753 q 201 730 178 753 q 225 675 225 707 q 201 619 225 642 q 146 596 178 596 q 90 619 114 596 q 67 675 67 642 m 265 476 q 289 531 265 508 q 344 554 313 554 q 400 531 376 554 q 424 476 424 508 q 400 420 424 443 q 344 397 376 397 q 289 420 313 397 q 265 476 265 443 m 464 476 q 488 531 464 508 q 543 554 511 554 q 599 531 575 554 q 622 476 622 508 q 599 420 622 443 q 543 397 575 397 q 488 420 511 397 q 464 476 464 443 m 464 278 q 488 333 464 310 q 543 356 511 356 q 599 333 575 356 q 622 278 622 310 q 599 222 622 244 q 543 199 575 199 q 488 222 511 199 q 464 278 464 244 m 464 79 q 488 134 464 111 q 543 157 511 157 q 599 134 575 157 q 622 79 622 111 q 599 23 622 46 q 543 0 575 0 q 488 23 511 0 q 464 79 464 46 m 663 476 q 686 531 663 508 q 742 554 710 554 q 797 531 774 554 q 821 476 821 508 q 797 420 821 443 q 742 397 774 397 q 686 420 710 397 q 663 476 663 443 m 861 874 q 885 928 861 906 q 940 951 908 951 q 996 928 972 951 q 1019 874 1019 906 q 996 817 1019 840 q 940 794 972 794 q 885 817 908 794 q 861 874 861 840 m 861 675 q 885 730 861 707 q 940 753 908 753 q 996 730 972 753 q 1019 675 1019 707 q 996 619 1019 642 q 940 596 972 596 q 885 619 908 596 q 861 675 861 642 z "},"Z":{"ha":889,"x_min":68,"x_max":821,"o":"m 68 874 q 91 928 68 906 q 147 951 114 951 q 202 928 179 951 q 225 874 225 906 q 202 817 225 840 q 147 794 179 794 q 91 817 114 794 q 68 874 68 840 m 68 278 q 91 333 68 310 q 147 356 114 356 q 202 333 179 356 q 225 278 225 310 q 202 222 225 244 q 147 199 179 199 q 91 222 114 199 q 68 278 68 244 m 68 79 q 91 134 68 111 q 147 157 114 157 q 202 134 179 157 q 225 79 225 111 q 202 23 225 46 q 147 0 179 0 q 91 23 114 0 q 68 79 68 46 m 267 874 q 290 928 267 906 q 346 951 313 951 q 401 928 378 951 q 424 874 424 906 q 401 817 424 840 q 346 794 378 794 q 290 817 313 794 q 267 874 267 840 m 267 476 q 290 531 267 508 q 346 554 313 554 q 401 531 378 554 q 424 476 424 508 q 401 420 424 443 q 346 397 378 397 q 290 420 313 397 q 267 476 267 443 m 267 79 q 290 134 267 111 q 346 157 313 157 q 401 134 378 157 q 424 79 424 111 q 401 23 424 46 q 346 0 378 0 q 290 23 313 0 q 267 79 267 46 m 465 874 q 488 928 465 906 q 543 951 511 951 q 599 928 576 951 q 622 874 622 906 q 599 817 622 840 q 543 794 576 794 q 488 817 511 794 q 465 874 465 840 m 465 675 q 488 730 465 707 q 543 753 511 753 q 599 730 576 753 q 622 675 622 707 q 599 619 622 642 q 543 596 576 596 q 488 619 511 596 q 465 675 465 642 m 465 79 q 488 134 465 111 q 543 157 511 157 q 599 134 576 157 q 622 79 622 111 q 599 23 622 46 q 543 0 576 0 q 488 23 511 0 q 465 79 465 46 m 664 874 q 687 928 664 906 q 742 951 710 951 q 798 928 775 951 q 821 874 821 906 q 798 817 821 840 q 742 794 775 794 q 687 817 710 794 q 664 874 664 840 m 664 79 q 687 134 664 111 q 742 157 710 157 q 798 134 775 157 q 821 79 821 111 q 798 23 821 46 q 742 0 775 0 q 687 23 710 0 q 664 79 664 46 z "},"[":{"ha":489,"x_min":67,"x_max":422,"o":"m 67 874 q 90 928 67 906 q 146 951 113 951 q 201 928 178 951 q 224 874 224 906 q 201 817 224 840 q 146 794 178 794 q 90 817 113 794 q 67 874 67 840 m 67 675 q 90 730 67 707 q 146 753 113 753 q 201 730 178 753 q 224 675 224 707 q 201 619 224 642 q 146 596 178 596 q 90 619 113 596 q 67 675 67 642 m 67 476 q 90 531 67 508 q 146 554 113 554 q 201 531 178 554 q 224 476 224 508 q 201 420 224 443 q 146 397 178 397 q 90 420 113 397 q 67 476 67 443 m 67 278 q 90 333 67 310 q 146 356 113 356 q 201 333 178 356 q 224 278 224 310 q 201 222 224 244 q 146 199 178 199 q 90 222 113 199 q 67 278 67 244 m 67 79 q 90 134 67 111 q 146 157 113 157 q 201 134 178 157 q 224 79 224 111 q 201 23 224 46 q 146 0 178 0 q 90 23 113 0 q 67 79 67 46 m 265 874 q 288 928 265 906 q 343 951 311 951 q 399 928 376 951 q 422 874 422 906 q 399 817 422 840 q 343 794 376 794 q 288 817 311 794 q 265 874 265 840 m 265 79 q 288 134 265 111 q 343 157 311 157 q 399 134 376 157 q 422 79 422 111 q 399 23 422 46 q 343 0 376 0 q 288 23 311 0 q 265 79 265 46 z "},"\\":{"ha":489,"x_min":67,"x_max":422,"o":"m 422 476 q 399 531 422 508 q 343 554 376 554 q 288 531 311 554 q 265 476 265 508 q 288 420 265 443 q 343 397 311 397 q 399 420 376 397 q 422 476 422 443 m 422 278 q 399 333 422 310 q 343 356 376 356 q 288 333 311 356 q 265 278 265 310 q 288 222 265 244 q 343 199 311 199 q 399 222 376 199 q 422 278 422 244 m 422 79 q 399 134 422 111 q 343 157 376 157 q 288 134 311 157 q 265 79 265 111 q 288 23 265 46 q 343 0 311 0 q 399 23 376 0 q 422 79 422 46 m 224 874 q 201 928 224 906 q 146 951 178 951 q 90 928 113 951 q 67 874 67 906 q 90 817 67 840 q 146 794 113 794 q 201 817 178 794 q 224 874 224 840 m 224 675 q 201 730 224 707 q 146 753 178 753 q 90 730 113 753 q 67 675 67 707 q 90 619 67 642 q 146 596 113 596 q 201 619 178 596 q 224 675 224 642 z "},"]":{"ha":489,"x_min":67,"x_max":422,"o":"m 422 874 q 399 928 422 906 q 343 951 376 951 q 288 928 311 951 q 265 874 265 906 q 288 817 265 840 q 343 794 311 794 q 399 817 376 794 q 422 874 422 840 m 422 675 q 399 730 422 707 q 343 753 376 753 q 288 730 311 753 q 265 675 265 707 q 288 619 265 642 q 343 596 311 596 q 399 619 376 596 q 422 675 422 642 m 422 476 q 399 531 422 508 q 343 554 376 554 q 288 531 311 554 q 265 476 265 508 q 288 420 265 443 q 343 397 311 397 q 399 420 376 397 q 422 476 422 443 m 422 278 q 399 333 422 310 q 343 356 376 356 q 288 333 311 356 q 265 278 265 310 q 288 222 265 244 q 343 199 311 199 q 399 222 376 199 q 422 278 422 244 m 422 79 q 399 134 422 111 q 343 157 376 157 q 288 134 311 157 q 265 79 265 111 q 288 23 265 46 q 343 0 311 0 q 399 23 376 0 q 422 79 422 46 m 224 874 q 201 928 224 906 q 146 951 178 951 q 90 928 113 951 q 67 874 67 906 q 90 817 67 840 q 146 794 113 794 q 201 817 178 794 q 224 874 224 840 m 224 79 q 201 134 224 111 q 146 157 178 157 q 90 134 113 157 q 67 79 67 111 q 90 23 67 46 q 146 0 113 0 q 201 23 178 0 q 224 79 224 46 z "},"^":{"ha":689,"x_min":67,"x_max":622,"o":"m 67 675 q 90 730 67 707 q 146 753 114 753 q 201 730 178 753 q 225 675 225 707 q 201 619 225 642 q 146 596 178 596 q 90 619 114 596 q 67 675 67 642 m 265 874 q 289 928 265 906 q 344 951 313 951 q 400 928 376 951 q 424 874 424 906 q 400 817 424 840 q 344 794 376 794 q 289 817 313 794 q 265 874 265 840 m 464 675 q 488 730 464 707 q 543 753 511 753 q 599 730 575 753 q 622 675 622 707 q 599 619 622 642 q 543 596 575 596 q 488 619 511 596 q 464 675 464 642 z "},"_":{"ha":889,"x_min":68,"x_max":821,"o":"m 68 79 q 91 134 68 111 q 147 157 114 157 q 202 134 179 157 q 225 79 225 111 q 202 23 225 46 q 147 0 179 0 q 91 23 114 0 q 68 79 68 46 m 267 79 q 290 134 267 111 q 346 157 313 157 q 401 134 378 157 q 424 79 424 111 q 401 23 424 46 q 346 0 378 0 q 290 23 313 0 q 267 79 267 46 m 465 79 q 488 134 465 111 q 543 157 511 157 q 599 134 576 157 q 622 79 622 111 q 599 23 622 46 q 543 0 576 0 q 488 23 511 0 q 465 79 465 46 m 664 79 q 687 134 664 111 q 742 157 710 157 q 798 134 775 157 q 821 79 821 111 q 798 23 821 46 q 742 0 775 0 q 687 23 710 0 q 664 79 664 46 z "},"`":{"ha":292,"x_min":67,"x_max":225,"o":"m 67 874 q 90 928 67 906 q 146 951 114 951 q 201 928 178 951 q 225 874 225 906 q 201 817 225 840 q 146 794 178 794 q 90 817 114 794 q 67 874 67 840 m 67 675 q 90 730 67 707 q 146 753 114 753 q 201 730 178 753 q 225 675 225 707 q 201 619 225 642 q 146 596 178 596 q 90 619 114 596 q 67 675 67 642 z "},"a":{"ha":889,"x_min":68,"x_max":821,"o":"m 68 874 q 91 928 68 906 q 147 951 114 951 q 202 928 179 951 q 225 874 225 906 q 202 817 225 840 q 147 794 179 794 q 91 817 114 794 q 68 874 68 840 m 68 278 q 91 333 68 310 q 147 356 114 356 q 202 333 179 356 q 225 278 225 310 q 202 222 225 244 q 147 199 179 199 q 91 222 114 199 q 68 278 68 244 m 267 874 q 290 928 267 906 q 346 951 313 951 q 401 928 378 951 q 424 874 424 906 q 401 817 424 840 q 346 794 378 794 q 290 817 313 794 q 267 874 267 840 m 267 476 q 290 531 267 508 q 346 554 313 554 q 401 531 378 554 q 424 476 424 508 q 401 420 424 443 q 346 397 378 397 q 290 420 313 397 q 267 476 267 443 m 267 79 q 290 134 267 111 q 346 157 313 157 q 401 134 378 157 q 424 79 424 111 q 401 23 424 46 q 346 0 378 0 q 290 23 313 0 q 267 79 267 46 m 465 874 q 488 928 465 906 q 543 951 511 951 q 599 928 576 951 q 622 874 622 906 q 599 817 622 840 q 543 794 576 794 q 488 817 511 794 q 465 874 465 840 m 465 476 q 488 531 465 508 q 543 554 511 554 q 599 531 576 554 q 622 476 622 508 q 599 420 622 443 q 543 397 576 397 q 488 420 511 397 q 465 476 465 443 m 465 79 q 488 134 465 111 q 543 157 511 157 q 599 134 576 157 q 622 79 622 111 q 599 23 622 46 q 543 0 576 0 q 488 23 511 0 q 465 79 465 46 m 664 675 q 687 730 664 707 q 742 753 710 753 q 798 730 775 753 q 821 675 821 707 q 798 619 821 642 q 742 596 775 596 q 687 619 710 596 q 664 675 664 642 m 664 476 q 687 531 664 508 q 742 554 710 554 q 798 531 775 554 q 821 476 821 508 q 798 420 821 443 q 742 397 775 397 q 687 420 710 397 q 664 476 664 443 m 664 278 q 687 333 664 310 q 742 356 710 356 q 798 333 775 356 q 821 278 821 310 q 798 222 821 244 q 742 199 775 199 q 687 222 710 199 q 664 278 664 244 m 664 79 q 687 134 664 111 q 742 157 710 157 q 798 134 775 157 q 821 79 821 111 q 798 23 821 46 q 742 0 775 0 q 687 23 710 0 q 664 79 664 46 z "},"b":{"ha":889,"x_min":68,"x_max":821,"o":"m 68 874 q 91 928 68 906 q 147 951 114 951 q 202 928 179 951 q 225 874 225 906 q 202 817 225 840 q 147 794 179 794 q 91 817 114 794 q 68 874 68 840 m 68 675 q 91 730 68 707 q 147 753 114 753 q 202 730 179 753 q 225 675 225 707 q 202 619 225 642 q 147 596 179 596 q 91 619 114 596 q 68 675 68 642 m 68 476 q 91 531 68 508 q 147 554 114 554 q 202 531 179 554 q 225 476 225 508 q 202 420 225 443 q 147 397 179 397 q 91 420 114 397 q 68 476 68 443 m 68 278 q 91 333 68 310 q 147 356 114 356 q 202 333 179 356 q 225 278 225 310 q 202 222 225 244 q 147 199 179 199 q 91 222 114 199 q 68 278 68 244 m 68 79 q 91 134 68 111 q 147 157 114 157 q 202 134 179 157 q 225 79 225 111 q 202 23 225 46 q 147 0 179 0 q 91 23 114 0 q 68 79 68 46 m 267 874 q 290 928 267 906 q 346 951 313 951 q 401 928 378 951 q 424 874 424 906 q 401 817 424 840 q 346 794 378 794 q 290 817 313 794 q 267 874 267 840 m 267 476 q 290 531 267 508 q 346 554 313 554 q 401 531 378 554 q 424 476 424 508 q 401 420 424 443 q 346 397 378 397 q 290 420 313 397 q 267 476 267 443 m 267 79 q 290 134 267 111 q 346 157 313 157 q 401 134 378 157 q 424 79 424 111 q 401 23 424 46 q 346 0 378 0 q 290 23 313 0 q 267 79 267 46 m 465 874 q 488 928 465 906 q 543 951 511 951 q 599 928 576 951 q 622 874 622 906 q 599 817 622 840 q 543 794 576 794 q 488 817 511 794 q 465 874 465 840 m 465 476 q 488 531 465 508 q 543 554 511 554 q 599 531 576 554 q 622 476 622 508 q 599 420 622 443 q 543 397 576 397 q 488 420 511 397 q 465 476 465 443 m 465 79 q 488 134 465 111 q 543 157 511 157 q 599 134 576 157 q 622 79 622 111 q 599 23 622 46 q 543 0 576 0 q 488 23 511 0 q 465 79 465 46 m 664 675 q 687 730 664 707 q 742 753 710 753 q 798 730 775 753 q 821 675 821 707 q 798 619 821 642 q 742 596 775 596 q 687 619 710 596 q 664 675 664 642 m 664 278 q 687 333 664 310 q 742 356 710 356 q 798 333 775 356 q 821 278 821 310 q 798 222 821 244 q 742 199 775 199 q 687 222 710 199 q 664 278 664 244 z "},"c":{"ha":889,"x_min":68,"x_max":821,"o":"m 68 675 q 91 730 68 707 q 147 753 114 753 q 202 730 179 753 q 225 675 225 707 q 202 619 225 642 q 147 596 179 596 q 91 619 114 596 q 68 675 68 642 m 68 476 q 91 531 68 508 q 147 554 114 554 q 202 531 179 554 q 225 476 225 508 q 202 420 225 443 q 147 397 179 397 q 91 420 114 397 q 68 476 68 443 m 68 278 q 91 333 68 310 q 147 356 114 356 q 202 333 179 356 q 225 278 225 310 q 202 222 225 244 q 147 199 179 199 q 91 222 114 199 q 68 278 68 244 m 267 874 q 290 928 267 906 q 346 951 313 951 q 401 928 378 951 q 424 874 424 906 q 401 817 424 840 q 346 794 378 794 q 290 817 313 794 q 267 874 267 840 m 267 79 q 290 134 267 111 q 346 157 313 157 q 401 134 378 157 q 424 79 424 111 q 401 23 424 46 q 346 0 378 0 q 290 23 313 0 q 267 79 267 46 m 465 874 q 488 928 465 906 q 543 951 511 951 q 599 928 576 951 q 622 874 622 906 q 599 817 622 840 q 543 794 576 794 q 488 817 511 794 q 465 874 465 840 m 465 79 q 488 134 465 111 q 543 157 511 157 q 599 134 576 157 q 622 79 622 111 q 599 23 622 46 q 543 0 576 0 q 488 23 511 0 q 465 79 465 46 m 664 874 q 687 928 664 906 q 742 951 710 951 q 798 928 775 951 q 821 874 821 906 q 798 817 821 840 q 742 794 775 794 q 687 817 710 794 q 664 874 664 840 m 664 79 q 687 134 664 111 q 742 157 710 157 q 798 134 775 157 q 821 79 821 111 q 798 23 821 46 q 742 0 775 0 q 687 23 710 0 q 664 79 664 46 z "},"d":{"ha":889,"x_min":68,"x_max":821,"o":"m 68 874 q 91 928 68 906 q 147 951 114 951 q 202 928 179 951 q 225 874 225 906 q 202 817 225 840 q 147 794 179 794 q 91 817 114 794 q 68 874 68 840 m 68 675 q 91 730 68 707 q 147 753 114 753 q 202 730 179 753 q 225 675 225 707 q 202 619 225 642 q 147 596 179 596 q 91 619 114 596 q 68 675 68 642 m 68 476 q 91 531 68 508 q 147 554 114 554 q 202 531 179 554 q 225 476 225 508 q 202 420 225 443 q 147 397 179 397 q 91 420 114 397 q 68 476 68 443 m 68 278 q 91 333 68 310 q 147 356 114 356 q 202 333 179 356 q 225 278 225 310 q 202 222 225 244 q 147 199 179 199 q 91 222 114 199 q 68 278 68 244 m 68 79 q 91 134 68 111 q 147 157 114 157 q 202 134 179 157 q 225 79 225 111 q 202 23 225 46 q 147 0 179 0 q 91 23 114 0 q 68 79 68 46 m 267 874 q 290 928 267 906 q 346 951 313 951 q 401 928 378 951 q 424 874 424 906 q 401 817 424 840 q 346 794 378 794 q 290 817 313 794 q 267 874 267 840 m 267 79 q 290 134 267 111 q 346 157 313 157 q 401 134 378 157 q 424 79 424 111 q 401 23 424 46 q 346 0 378 0 q 290 23 313 0 q 267 79 267 46 m 465 874 q 488 928 465 906 q 543 951 511 951 q 599 928 576 951 q 622 874 622 906 q 599 817 622 840 q 543 794 576 794 q 488 817 511 794 q 465 874 465 840 m 465 79 q 488 134 465 111 q 543 157 511 157 q 599 134 576 157 q 622 79 622 111 q 599 23 622 46 q 543 0 576 0 q 488 23 511 0 q 465 79 465 46 m 664 675 q 687 730 664 707 q 742 753 710 753 q 798 730 775 753 q 821 675 821 707 q 798 619 821 642 q 742 596 775 596 q 687 619 710 596 q 664 675 664 642 m 664 476 q 687 531 664 508 q 742 554 710 554 q 798 531 775 554 q 821 476 821 508 q 798 420 821 443 q 742 397 775 397 q 687 420 710 397 q 664 476 664 443 m 664 278 q 687 333 664 310 q 742 356 710 356 q 798 333 775 356 q 821 278 821 310 q 798 222 821 244 q 742 199 775 199 q 687 222 710 199 q 664 278 664 244 z "},"e":{"ha":889,"x_min":68,"x_max":821,"o":"m 68 675 q 91 730 68 707 q 147 753 114 753 q 202 730 179 753 q 225 675 225 707 q 202 619 225 642 q 147 596 179 596 q 91 619 114 596 q 68 675 68 642 m 68 476 q 91 531 68 508 q 147 554 114 554 q 202 531 179 554 q 225 476 225 508 q 202 420 225 443 q 147 397 179 397 q 91 420 114 397 q 68 476 68 443 m 68 278 q 91 333 68 310 q 147 356 114 356 q 202 333 179 356 q 225 278 225 310 q 202 222 225 244 q 147 199 179 199 q 91 222 114 199 q 68 278 68 244 m 267 874 q 290 928 267 906 q 346 951 313 951 q 401 928 378 951 q 424 874 424 906 q 401 817 424 840 q 346 794 378 794 q 290 817 313 794 q 267 874 267 840 m 267 476 q 290 531 267 508 q 346 554 313 554 q 401 531 378 554 q 424 476 424 508 q 401 420 424 443 q 346 397 378 397 q 290 420 313 397 q 267 476 267 443 m 267 79 q 290 134 267 111 q 346 157 313 157 q 401 134 378 157 q 424 79 424 111 q 401 23 424 46 q 346 0 378 0 q 290 23 313 0 q 267 79 267 46 m 465 874 q 488 928 465 906 q 543 951 511 951 q 599 928 576 951 q 622 874 622 906 q 599 817 622 840 q 543 794 576 794 q 488 817 511 794 q 465 874 465 840 m 465 476 q 488 531 465 508 q 543 554 511 554 q 599 531 576 554 q 622 476 622 508 q 599 420 622 443 q 543 397 576 397 q 488 420 511 397 q 465 476 465 443 m 465 79 q 488 134 465 111 q 543 157 511 157 q 599 134 576 157 q 622 79 622 111 q 599 23 622 46 q 543 0 576 0 q 488 23 511 0 q 465 79 465 46 m 664 675 q 687 730 664 707 q 742 753 710 753 q 798 730 775 753 q 821 675 821 707 q 798 619 821 642 q 742 596 775 596 q 687 619 710 596 q 664 675 664 642 m 664 476 q 687 531 664 508 q 742 554 710 554 q 798 531 775 554 q 821 476 821 508 q 798 420 821 443 q 742 397 775 397 q 687 420 710 397 q 664 476 664 443 m 664 79 q 687 134 664 111 q 742 157 710 157 q 798 134 775 157 q 821 79 821 111 q 798 23 821 46 q 742 0 775 0 q 687 23 710 0 q 664 79 664 46 z "},"f":{"ha":889,"x_min":68,"x_max":821,"o":"m 68 675 q 91 730 68 707 q 147 753 114 753 q 202 730 179 753 q 225 675 225 707 q 202 619 225 642 q 147 596 179 596 q 91 619 114 596 q 68 675 68 642 m 68 476 q 91 531 68 508 q 147 554 114 554 q 202 531 179 554 q 225 476 225 508 q 202 420 225 443 q 147 397 179 397 q 91 420 114 397 q 68 476 68 443 m 68 278 q 91 333 68 310 q 147 356 114 356 q 202 333 179 356 q 225 278 225 310 q 202 222 225 244 q 147 199 179 199 q 91 222 114 199 q 68 278 68 244 m 68 79 q 91 134 68 111 q 147 157 114 157 q 202 134 179 157 q 225 79 225 111 q 202 23 225 46 q 147 0 179 0 q 91 23 114 0 q 68 79 68 46 m 267 874 q 290 928 267 906 q 346 951 313 951 q 401 928 378 951 q 424 874 424 906 q 401 817 424 840 q 346 794 378 794 q 290 817 313 794 q 267 874 267 840 m 267 476 q 290 531 267 508 q 346 554 313 554 q 401 531 378 554 q 424 476 424 508 q 401 420 424 443 q 346 397 378 397 q 290 420 313 397 q 267 476 267 443 m 465 874 q 488 928 465 906 q 543 951 511 951 q 599 928 576 951 q 622 874 622 906 q 599 817 622 840 q 543 794 576 794 q 488 817 511 794 q 465 874 465 840 m 465 476 q 488 531 465 508 q 543 554 511 554 q 599 531 576 554 q 622 476 622 508 q 599 420 622 443 q 543 397 576 397 q 488 420 511 397 q 465 476 465 443 m 664 874 q 687 928 664 906 q 742 951 710 951 q 798 928 775 951 q 821 874 821 906 q 798 817 821 840 q 742 794 775 794 q 687 817 710 794 q 664 874 664 840 z "},"g":{"ha":889,"x_min":68,"x_max":821,"o":"m 68 675 q 91 730 68 707 q 147 753 114 753 q 202 730 179 753 q 225 675 225 707 q 202 619 225 642 q 147 596 179 596 q 91 619 114 596 q 68 675 68 642 m 68 476 q 91 531 68 508 q 147 554 114 554 q 202 531 179 554 q 225 476 225 508 q 202 420 225 443 q 147 397 179 397 q 91 420 114 397 q 68 476 68 443 m 68 278 q 91 333 68 310 q 147 356 114 356 q 202 333 179 356 q 225 278 225 310 q 202 222 225 244 q 147 199 179 199 q 91 222 114 199 q 68 278 68 244 m 267 874 q 290 928 267 906 q 346 951 313 951 q 401 928 378 951 q 424 874 424 906 q 401 817 424 840 q 346 794 378 794 q 290 817 313 794 q 267 874 267 840 m 267 79 q 290 134 267 111 q 346 157 313 157 q 401 134 378 157 q 424 79 424 111 q 401 23 424 46 q 346 0 378 0 q 290 23 313 0 q 267 79 267 46 m 465 874 q 488 928 465 906 q 543 951 511 951 q 599 928 576 951 q 622 874 622 906 q 599 817 622 840 q 543 794 576 794 q 488 817 511 794 q 465 874 465 840 m 465 476 q 488 531 465 508 q 543 554 511 554 q 599 531 576 554 q 622 476 622 508 q 599 420 622 443 q 543 397 576 397 q 488 420 511 397 q 465 476 465 443 m 465 79 q 488 134 465 111 q 543 157 511 157 q 599 134 576 157 q 622 79 622 111 q 599 23 622 46 q 543 0 576 0 q 488 23 511 0 q 465 79 465 46 m 664 874 q 687 928 664 906 q 742 951 710 951 q 798 928 775 951 q 821 874 821 906 q 798 817 821 840 q 742 794 775 794 q 687 817 710 794 q 664 874 664 840 m 664 476 q 687 531 664 508 q 742 554 710 554 q 798 531 775 554 q 821 476 821 508 q 798 420 821 443 q 742 397 775 397 q 687 420 710 397 q 664 476 664 443 m 664 278 q 687 333 664 310 q 742 356 710 356 q 798 333 775 356 q 821 278 821 310 q 798 222 821 244 q 742 199 775 199 q 687 222 710 199 q 664 278 664 244 m 664 79 q 687 134 664 111 q 742 157 710 157 q 798 134 775 157 q 821 79 821 111 q 798 23 821 46 q 742 0 775 0 q 687 23 710 0 q 664 79 664 46 z "},"h":{"ha":889,"x_min":68,"x_max":821,"o":"m 68 874 q 91 928 68 906 q 147 951 114 951 q 202 928 179 951 q 225 874 225 906 q 202 817 225 840 q 147 794 179 794 q 91 817 114 794 q 68 874 68 840 m 68 675 q 91 730 68 707 q 147 753 114 753 q 202 730 179 753 q 225 675 225 707 q 202 619 225 642 q 147 596 179 596 q 91 619 114 596 q 68 675 68 642 m 68 476 q 91 531 68 508 q 147 554 114 554 q 202 531 179 554 q 225 476 225 508 q 202 420 225 443 q 147 397 179 397 q 91 420 114 397 q 68 476 68 443 m 68 278 q 91 333 68 310 q 147 356 114 356 q 202 333 179 356 q 225 278 225 310 q 202 222 225 244 q 147 199 179 199 q 91 222 114 199 q 68 278 68 244 m 68 79 q 91 134 68 111 q 147 157 114 157 q 202 134 179 157 q 225 79 225 111 q 202 23 225 46 q 147 0 179 0 q 91 23 114 0 q 68 79 68 46 m 267 476 q 290 531 267 508 q 346 554 313 554 q 401 531 378 554 q 424 476 424 508 q 401 420 424 443 q 346 397 378 397 q 290 420 313 397 q 267 476 267 443 m 465 476 q 488 531 465 508 q 543 554 511 554 q 599 531 576 554 q 622 476 622 508 q 599 420 622 443 q 543 397 576 397 q 488 420 511 397 q 465 476 465 443 m 664 874 q 687 928 664 906 q 742 951 710 951 q 798 928 775 951 q 821 874 821 906 q 798 817 821 840 q 742 794 775 794 q 687 817 710 794 q 664 874 664 840 m 664 675 q 687 730 664 707 q 742 753 710 753 q 798 730 775 753 q 821 675 821 707 q 798 619 821 642 q 742 596 775 596 q 687 619 710 596 q 664 675 664 642 m 664 476 q 687 531 664 508 q 742 554 710 554 q 798 531 775 554 q 821 476 821 508 q 798 420 821 443 q 742 397 775 397 q 687 420 710 397 q 664 476 664 443 m 664 278 q 687 333 664 310 q 742 356 710 356 q 798 333 775 356 q 821 278 821 310 q 798 222 821 244 q 742 199 775 199 q 687 222 710 199 q 664 278 664 244 m 664 79 q 687 134 664 111 q 742 157 710 157 q 798 134 775 157 q 821 79 821 111 q 798 23 821 46 q 742 0 775 0 q 687 23 710 0 q 664 79 664 46 z "},"i":{"ha":292,"x_min":67,"x_max":225,"o":"m 67 874 q 90 928 67 906 q 146 951 114 951 q 201 928 178 951 q 225 874 225 906 q 201 817 225 840 q 146 794 178 794 q 90 817 114 794 q 67 874 67 840 m 67 675 q 90 730 67 707 q 146 753 114 753 q 201 730 178 753 q 225 675 225 707 q 201 619 225 642 q 146 596 178 596 q 90 619 114 596 q 67 675 67 642 m 67 476 q 90 531 67 508 q 146 554 114 554 q 201 531 178 554 q 225 476 225 508 q 201 420 225 443 q 146 397 178 397 q 90 420 114 397 q 67 476 67 443 m 67 278 q 90 333 67 310 q 146 356 114 356 q 201 333 178 356 q 225 278 225 310 q 201 222 225 244 q 146 199 178 199 q 90 222 114 199 q 67 278 67 244 m 67 79 q 90 134 67 111 q 146 157 114 157 q 201 134 178 157 q 225 79 225 111 q 201 23 225 46 q 146 0 178 0 q 90 23 114 0 q 67 79 67 46 z "},"j":{"ha":889,"x_min":68,"x_max":821,"o":"m 68 79 q 91 134 68 111 q 147 157 114 157 q 202 134 179 157 q 225 79 225 111 q 202 23 225 46 q 147 0 179 0 q 91 23 114 0 q 68 79 68 46 m 267 79 q 290 134 267 111 q 346 157 313 157 q 401 134 378 157 q 424 79 424 111 q 401 23 424 46 q 346 0 378 0 q 290 23 313 0 q 267 79 267 46 m 465 79 q 488 134 465 111 q 543 157 511 157 q 599 134 576 157 q 622 79 622 111 q 599 23 622 46 q 543 0 576 0 q 488 23 511 0 q 465 79 465 46 m 664 874 q 687 928 664 906 q 742 951 710 951 q 798 928 775 951 q 821 874 821 906 q 798 817 821 840 q 742 794 775 794 q 687 817 710 794 q 664 874 664 840 m 664 675 q 687 730 664 707 q 742 753 710 753 q 798 730 775 753 q 821 675 821 707 q 798 619 821 642 q 742 596 775 596 q 687 619 710 596 q 664 675 664 642 m 664 476 q 687 531 664 508 q 742 554 710 554 q 798 531 775 554 q 821 476 821 508 q 798 420 821 443 q 742 397 775 397 q 687 420 710 397 q 664 476 664 443 m 664 278 q 687 333 664 310 q 742 356 710 356 q 798 333 775 356 q 821 278 821 310 q 798 222 821 244 q 742 199 775 199 q 687 222 710 199 q 664 278 664 244 z "},"k":{"ha":889,"x_min":68,"x_max":821,"o":"m 68 874 q 91 928 68 906 q 147 951 114 951 q 202 928 179 951 q 225 874 225 906 q 202 817 225 840 q 147 794 179 794 q 91 817 114 794 q 68 874 68 840 m 68 675 q 91 730 68 707 q 147 753 114 753 q 202 730 179 753 q 225 675 225 707 q 202 619 225 642 q 147 596 179 596 q 91 619 114 596 q 68 675 68 642 m 68 476 q 91 531 68 508 q 147 554 114 554 q 202 531 179 554 q 225 476 225 508 q 202 420 225 443 q 147 397 179 397 q 91 420 114 397 q 68 476 68 443 m 68 278 q 91 333 68 310 q 147 356 114 356 q 202 333 179 356 q 225 278 225 310 q 202 222 225 244 q 147 199 179 199 q 91 222 114 199 q 68 278 68 244 m 68 79 q 91 134 68 111 q 147 157 114 157 q 202 134 179 157 q 225 79 225 111 q 202 23 225 46 q 147 0 179 0 q 91 23 114 0 q 68 79 68 46 m 267 476 q 290 531 267 508 q 346 554 313 554 q 401 531 378 554 q 424 476 424 508 q 401 420 424 443 q 346 397 378 397 q 290 420 313 397 q 267 476 267 443 m 465 476 q 488 531 465 508 q 543 554 511 554 q 599 531 576 554 q 622 476 622 508 q 599 420 622 443 q 543 397 576 397 q 488 420 511 397 q 465 476 465 443 m 664 675 q 687 730 664 707 q 742 753 710 753 q 798 730 775 753 q 821 675 821 707 q 798 619 821 642 q 742 596 775 596 q 687 619 710 596 q 664 675 664 642 m 664 278 q 687 333 664 310 q 742 356 710 356 q 798 333 775 356 q 821 278 821 310 q 798 222 821 244 q 742 199 775 199 q 687 222 710 199 q 664 278 664 244 m 664 79 q 687 134 664 111 q 742 157 710 157 q 798 134 775 157 q 821 79 821 111 q 798 23 821 46 q 742 0 775 0 q 687 23 710 0 q 664 79 664 46 z "},"l":{"ha":889,"x_min":68,"x_max":821,"o":"m 68 874 q 91 928 68 906 q 147 951 114 951 q 202 928 179 951 q 225 874 225 906 q 202 817 225 840 q 147 794 179 794 q 91 817 114 794 q 68 874 68 840 m 68 675 q 91 730 68 707 q 147 753 114 753 q 202 730 179 753 q 225 675 225 707 q 202 619 225 642 q 147 596 179 596 q 91 619 114 596 q 68 675 68 642 m 68 476 q 91 531 68 508 q 147 554 114 554 q 202 531 179 554 q 225 476 225 508 q 202 420 225 443 q 147 397 179 397 q 91 420 114 397 q 68 476 68 443 m 68 278 q 91 333 68 310 q 147 356 114 356 q 202 333 179 356 q 225 278 225 310 q 202 222 225 244 q 147 199 179 199 q 91 222 114 199 q 68 278 68 244 m 68 79 q 91 134 68 111 q 147 157 114 157 q 202 134 179 157 q 225 79 225 111 q 202 23 225 46 q 147 0 179 0 q 91 23 114 0 q 68 79 68 46 m 267 79 q 290 134 267 111 q 346 157 313 157 q 401 134 378 157 q 424 79 424 111 q 401 23 424 46 q 346 0 378 0 q 290 23 313 0 q 267 79 267 46 m 465 79 q 488 134 465 111 q 543 157 511 157 q 599 134 576 157 q 622 79 622 111 q 599 23 622 46 q 543 0 576 0 q 488 23 511 0 q 465 79 465 46 m 664 79 q 687 134 664 111 q 742 157 710 157 q 798 134 775 157 q 821 79 821 111 q 798 23 821 46 q 742 0 775 0 q 687 23 710 0 q 664 79 664 46 z "},"m":{"ha":1086,"x_min":67,"x_max":1019,"o":"m 67 675 q 90 730 67 707 q 146 753 114 753 q 201 730 178 753 q 225 675 225 707 q 201 619 225 642 q 146 596 178 596 q 90 619 114 596 q 67 675 67 642 m 67 476 q 90 531 67 508 q 146 554 114 554 q 201 531 178 554 q 225 476 225 508 q 201 420 225 443 q 146 397 178 397 q 90 420 114 397 q 67 476 67 443 m 67 278 q 90 333 67 310 q 146 356 114 356 q 201 333 178 356 q 225 278 225 310 q 201 222 225 244 q 146 199 178 199 q 90 222 114 199 q 67 278 67 244 m 67 79 q 90 134 67 111 q 146 157 114 157 q 201 134 178 157 q 225 79 225 111 q 201 23 225 46 q 146 0 178 0 q 90 23 114 0 q 67 79 67 46 m 265 874 q 289 928 265 906 q 344 951 313 951 q 400 928 376 951 q 424 874 424 906 q 400 817 424 840 q 344 794 376 794 q 289 817 313 794 q 265 874 265 840 m 464 675 q 488 730 464 707 q 543 753 511 753 q 599 730 575 753 q 622 675 622 707 q 599 619 622 642 q 543 596 575 596 q 488 619 511 596 q 464 675 464 642 m 464 476 q 488 531 464 508 q 543 554 511 554 q 599 531 575 554 q 622 476 622 508 q 599 420 622 443 q 543 397 575 397 q 488 420 511 397 q 464 476 464 443 m 464 278 q 488 333 464 310 q 543 356 511 356 q 599 333 575 356 q 622 278 622 310 q 599 222 622 244 q 543 199 575 199 q 488 222 511 199 q 464 278 464 244 m 464 79 q 488 134 464 111 q 543 157 511 157 q 599 134 575 157 q 622 79 622 111 q 599 23 622 46 q 543 0 575 0 q 488 23 511 0 q 464 79 464 46 m 663 874 q 686 928 663 906 q 742 951 710 951 q 797 928 774 951 q 821 874 821 906 q 797 817 821 840 q 742 794 774 794 q 686 817 710 794 q 663 874 663 840 m 861 675 q 885 730 861 707 q 940 753 908 753 q 996 730 972 753 q 1019 675 1019 707 q 996 619 1019 642 q 940 596 972 596 q 885 619 908 596 q 861 675 861 642 m 861 476 q 885 531 861 508 q 940 554 908 554 q 996 531 972 554 q 1019 476 1019 508 q 996 420 1019 443 q 940 397 972 397 q 885 420 908 397 q 861 476 861 443 m 861 278 q 885 333 861 310 q 940 356 908 356 q 996 333 972 356 q 1019 278 1019 310 q 996 222 1019 244 q 940 199 972 199 q 885 222 908 199 q 861 278 861 244 m 861 79 q 885 134 861 111 q 940 157 908 157 q 996 134 972 157 q 1019 79 1019 111 q 996 23 1019 46 q 940 0 972 0 q 885 23 908 0 q 861 79 861 46 z "},"n":{"ha":889,"x_min":68,"x_max":821,"o":"m 68 874 q 91 928 68 906 q 147 951 114 951 q 202 928 179 951 q 225 874 225 906 q 202 817 225 840 q 147 794 179 794 q 91 817 114 794 q 68 874 68 840 m 68 675 q 91 730 68 707 q 147 753 114 753 q 202 730 179 753 q 225 675 225 707 q 202 619 225 642 q 147 596 179 596 q 91 619 114 596 q 68 675 68 642 m 68 476 q 91 531 68 508 q 147 554 114 554 q 202 531 179 554 q 225 476 225 508 q 202 420 225 443 q 147 397 179 397 q 91 420 114 397 q 68 476 68 443 m 68 278 q 91 333 68 310 q 147 356 114 356 q 202 333 179 356 q 225 278 225 310 q 202 222 225 244 q 147 199 179 199 q 91 222 114 199 q 68 278 68 244 m 68 79 q 91 134 68 111 q 147 157 114 157 q 202 134 179 157 q 225 79 225 111 q 202 23 225 46 q 147 0 179 0 q 91 23 114 0 q 68 79 68 46 m 267 874 q 290 928 267 906 q 346 951 313 951 q 401 928 378 951 q 424 874 424 906 q 401 817 424 840 q 346 794 378 794 q 290 817 313 794 q 267 874 267 840 m 465 874 q 488 928 465 906 q 543 951 511 951 q 599 928 576 951 q 622 874 622 906 q 599 817 622 840 q 543 794 576 794 q 488 817 511 794 q 465 874 465 840 m 664 675 q 687 730 664 707 q 742 753 710 753 q 798 730 775 753 q 821 675 821 707 q 798 619 821 642 q 742 596 775 596 q 687 619 710 596 q 664 675 664 642 m 664 476 q 687 531 664 508 q 742 554 710 554 q 798 531 775 554 q 821 476 821 508 q 798 420 821 443 q 742 397 775 397 q 687 420 710 397 q 664 476 664 443 m 664 278 q 687 333 664 310 q 742 356 710 356 q 798 333 775 356 q 821 278 821 310 q 798 222 821 244 q 742 199 775 199 q 687 222 710 199 q 664 278 664 244 m 664 79 q 687 134 664 111 q 742 157 710 157 q 798 134 775 157 q 821 79 821 111 q 798 23 821 46 q 742 0 775 0 q 687 23 710 0 q 664 79 664 46 z "},"o":{"ha":889,"x_min":68,"x_max":821,"o":"m 68 675 q 91 730 68 707 q 147 753 114 753 q 202 730 179 753 q 225 675 225 707 q 202 619 225 642 q 147 596 179 596 q 91 619 114 596 q 68 675 68 642 m 68 476 q 91 531 68 508 q 147 554 114 554 q 202 531 179 554 q 225 476 225 508 q 202 420 225 443 q 147 397 179 397 q 91 420 114 397 q 68 476 68 443 m 68 278 q 91 333 68 310 q 147 356 114 356 q 202 333 179 356 q 225 278 225 310 q 202 222 225 244 q 147 199 179 199 q 91 222 114 199 q 68 278 68 244 m 267 874 q 290 928 267 906 q 346 951 313 951 q 401 928 378 951 q 424 874 424 906 q 401 817 424 840 q 346 794 378 794 q 290 817 313 794 q 267 874 267 840 m 267 79 q 290 134 267 111 q 346 157 313 157 q 401 134 378 157 q 424 79 424 111 q 401 23 424 46 q 346 0 378 0 q 290 23 313 0 q 267 79 267 46 m 465 874 q 488 928 465 906 q 543 951 511 951 q 599 928 576 951 q 622 874 622 906 q 599 817 622 840 q 543 794 576 794 q 488 817 511 794 q 465 874 465 840 m 465 79 q 488 134 465 111 q 543 157 511 157 q 599 134 576 157 q 622 79 622 111 q 599 23 622 46 q 543 0 576 0 q 488 23 511 0 q 465 79 465 46 m 664 675 q 687 730 664 707 q 742 753 710 753 q 798 730 775 753 q 821 675 821 707 q 798 619 821 642 q 742 596 775 596 q 687 619 710 596 q 664 675 664 642 m 664 476 q 687 531 664 508 q 742 554 710 554 q 798 531 775 554 q 821 476 821 508 q 798 420 821 443 q 742 397 775 397 q 687 420 710 397 q 664 476 664 443 m 664 278 q 687 333 664 310 q 742 356 710 356 q 798 333 775 356 q 821 278 821 310 q 798 222 821 244 q 742 199 775 199 q 687 222 710 199 q 664 278 664 244 z "},"p":{"ha":889,"x_min":68,"x_max":821,"o":"m 68 874 q 91 928 68 906 q 147 951 114 951 q 202 928 179 951 q 225 874 225 906 q 202 817 225 840 q 147 794 179 794 q 91 817 114 794 q 68 874 68 840 m 68 675 q 91 730 68 707 q 147 753 114 753 q 202 730 179 753 q 225 675 225 707 q 202 619 225 642 q 147 596 179 596 q 91 619 114 596 q 68 675 68 642 m 68 476 q 91 531 68 508 q 147 554 114 554 q 202 531 179 554 q 225 476 225 508 q 202 420 225 443 q 147 397 179 397 q 91 420 114 397 q 68 476 68 443 m 68 278 q 91 333 68 310 q 147 356 114 356 q 202 333 179 356 q 225 278 225 310 q 202 222 225 244 q 147 199 179 199 q 91 222 114 199 q 68 278 68 244 m 68 79 q 91 134 68 111 q 147 157 114 157 q 202 134 179 157 q 225 79 225 111 q 202 23 225 46 q 147 0 179 0 q 91 23 114 0 q 68 79 68 46 m 267 874 q 290 928 267 906 q 346 951 313 951 q 401 928 378 951 q 424 874 424 906 q 401 817 424 840 q 346 794 378 794 q 290 817 313 794 q 267 874 267 840 m 267 476 q 290 531 267 508 q 346 554 313 554 q 401 531 378 554 q 424 476 424 508 q 401 420 424 443 q 346 397 378 397 q 290 420 313 397 q 267 476 267 443 m 465 874 q 488 928 465 906 q 543 951 511 951 q 599 928 576 951 q 622 874 622 906 q 599 817 622 840 q 543 794 576 794 q 488 817 511 794 q 465 874 465 840 m 465 476 q 488 531 465 508 q 543 554 511 554 q 599 531 576 554 q 622 476 622 508 q 599 420 622 443 q 543 397 576 397 q 488 420 511 397 q 465 476 465 443 m 664 675 q 687 730 664 707 q 742 753 710 753 q 798 730 775 753 q 821 675 821 707 q 798 619 821 642 q 742 596 775 596 q 687 619 710 596 q 664 675 664 642 z "},"q":{"ha":889,"x_min":68,"x_max":821,"o":"m 68 675 q 91 730 68 707 q 147 753 114 753 q 202 730 179 753 q 225 675 225 707 q 202 619 225 642 q 147 596 179 596 q 91 619 114 596 q 68 675 68 642 m 68 476 q 91 531 68 508 q 147 554 114 554 q 202 531 179 554 q 225 476 225 508 q 202 420 225 443 q 147 397 179 397 q 91 420 114 397 q 68 476 68 443 m 68 278 q 91 333 68 310 q 147 356 114 356 q 202 333 179 356 q 225 278 225 310 q 202 222 225 244 q 147 199 179 199 q 91 222 114 199 q 68 278 68 244 m 267 874 q 290 928 267 906 q 346 951 313 951 q 401 928 378 951 q 424 874 424 906 q 401 817 424 840 q 346 794 378 794 q 290 817 313 794 q 267 874 267 840 m 267 79 q 290 134 267 111 q 346 157 313 157 q 401 134 378 157 q 424 79 424 111 q 401 23 424 46 q 346 0 378 0 q 290 23 313 0 q 267 79 267 46 m 465 874 q 488 928 465 906 q 543 951 511 951 q 599 928 576 951 q 622 874 622 906 q 599 817 622 840 q 543 794 576 794 q 488 817 511 794 q 465 874 465 840 m 465 79 q 488 134 465 111 q 543 157 511 157 q 599 134 576 157 q 622 79 622 111 q 599 23 622 46 q 543 0 576 0 q 488 23 511 0 q 465 79 465 46 m 664 675 q 687 730 664 707 q 742 753 710 753 q 798 730 775 753 q 821 675 821 707 q 798 619 821 642 q 742 596 775 596 q 687 619 710 596 q 664 675 664 642 m 664 476 q 687 531 664 508 q 742 554 710 554 q 798 531 775 554 q 821 476 821 508 q 798 420 821 443 q 742 397 775 397 q 687 420 710 397 q 664 476 664 443 m 664 278 q 687 333 664 310 q 742 356 710 356 q 798 333 775 356 q 821 278 821 310 q 798 222 821 244 q 742 199 775 199 q 687 222 710 199 q 664 278 664 244 m 465 -119 q 488 -65 465 -87 q 543 -42 511 -42 q 599 -65 576 -42 q 622 -119 622 -87 q 599 -176 622 -153 q 543 -199 576 -199 q 488 -176 511 -199 q 465 -119 465 -153 z "},"r":{"ha":889,"x_min":68,"x_max":821,"o":"m 68 874 q 91 928 68 906 q 147 951 114 951 q 202 928 179 951 q 225 874 225 906 q 202 817 225 840 q 147 794 179 794 q 91 817 114 794 q 68 874 68 840 m 68 675 q 91 730 68 707 q 147 753 114 753 q 202 730 179 753 q 225 675 225 707 q 202 619 225 642 q 147 596 179 596 q 91 619 114 596 q 68 675 68 642 m 68 476 q 91 531 68 508 q 147 554 114 554 q 202 531 179 554 q 225 476 225 508 q 202 420 225 443 q 147 397 179 397 q 91 420 114 397 q 68 476 68 443 m 68 278 q 91 333 68 310 q 147 356 114 356 q 202 333 179 356 q 225 278 225 310 q 202 222 225 244 q 147 199 179 199 q 91 222 114 199 q 68 278 68 244 m 68 79 q 91 134 68 111 q 147 157 114 157 q 202 134 179 157 q 225 79 225 111 q 202 23 225 46 q 147 0 179 0 q 91 23 114 0 q 68 79 68 46 m 267 675 q 290 730 267 707 q 346 753 313 753 q 401 730 378 753 q 424 675 424 707 q 401 619 424 642 q 346 596 378 596 q 290 619 313 596 q 267 675 267 642 m 465 874 q 488 928 465 906 q 543 951 511 951 q 599 928 576 951 q 622 874 622 906 q 599 817 622 840 q 543 794 576 794 q 488 817 511 794 q 465 874 465 840 m 664 874 q 687 928 664 906 q 742 951 710 951 q 798 928 775 951 q 821 874 821 906 q 798 817 821 840 q 742 794 775 794 q 687 817 710 794 q 664 874 664 840 z "},"s":{"ha":889,"x_min":68,"x_max":821,"o":"m 68 675 q 91 730 68 707 q 147 753 114 753 q 202 730 179 753 q 225 675 225 707 q 202 619 225 642 q 147 596 179 596 q 91 619 114 596 q 68 675 68 642 m 68 79 q 91 134 68 111 q 147 157 114 157 q 202 134 179 157 q 225 79 225 111 q 202 23 225 46 q 147 0 179 0 q 91 23 114 0 q 68 79 68 46 m 267 874 q 290 928 267 906 q 346 951 313 951 q 401 928 378 951 q 424 874 424 906 q 401 817 424 840 q 346 794 378 794 q 290 817 313 794 q 267 874 267 840 m 267 476 q 290 531 267 508 q 346 554 313 554 q 401 531 378 554 q 424 476 424 508 q 401 420 424 443 q 346 397 378 397 q 290 420 313 397 q 267 476 267 443 m 267 79 q 290 134 267 111 q 346 157 313 157 q 401 134 378 157 q 424 79 424 111 q 401 23 424 46 q 346 0 378 0 q 290 23 313 0 q 267 79 267 46 m 465 874 q 488 928 465 906 q 543 951 511 951 q 599 928 576 951 q 622 874 622 906 q 599 817 622 840 q 543 794 576 794 q 488 817 511 794 q 465 874 465 840 m 465 476 q 488 531 465 508 q 543 554 511 554 q 599 531 576 554 q 622 476 622 508 q 599 420 622 443 q 543 397 576 397 q 488 420 511 397 q 465 476 465 443 m 465 79 q 488 134 465 111 q 543 157 511 157 q 599 134 576 157 q 622 79 622 111 q 599 23 622 46 q 543 0 576 0 q 488 23 511 0 q 465 79 465 46 m 664 874 q 687 928 664 906 q 742 951 710 951 q 798 928 775 951 q 821 874 821 906 q 798 817 821 840 q 742 794 775 794 q 687 817 710 794 q 664 874 664 840 m 664 278 q 687 333 664 310 q 742 356 710 356 q 798 333 775 356 q 821 278 821 310 q 798 222 821 244 q 742 199 775 199 q 687 222 710 199 q 664 278 664 244 z "},"t":{"ha":889,"x_min":68,"x_max":821,"o":"m 68 874 q 91 928 68 906 q 147 951 114 951 q 202 928 179 951 q 225 874 225 906 q 202 817 225 840 q 147 794 179 794 q 91 817 114 794 q 68 874 68 840 m 68 675 q 91 730 68 707 q 147 753 114 753 q 202 730 179 753 q 225 675 225 707 q 202 619 225 642 q 147 596 179 596 q 91 619 114 596 q 68 675 68 642 m 68 476 q 91 531 68 508 q 147 554 114 554 q 202 531 179 554 q 225 476 225 508 q 202 420 225 443 q 147 397 179 397 q 91 420 114 397 q 68 476 68 443 m 68 278 q 91 333 68 310 q 147 356 114 356 q 202 333 179 356 q 225 278 225 310 q 202 222 225 244 q 147 199 179 199 q 91 222 114 199 q 68 278 68 244 m 267 675 q 290 730 267 707 q 346 753 313 753 q 401 730 378 753 q 424 675 424 707 q 401 619 424 642 q 346 596 378 596 q 290 619 313 596 q 267 675 267 642 m 267 79 q 290 134 267 111 q 346 157 313 157 q 401 134 378 157 q 424 79 424 111 q 401 23 424 46 q 346 0 378 0 q 290 23 313 0 q 267 79 267 46 m 465 675 q 488 730 465 707 q 543 753 511 753 q 599 730 576 753 q 622 675 622 707 q 599 619 622 642 q 543 596 576 596 q 488 619 511 596 q 465 675 465 642 m 465 79 q 488 134 465 111 q 543 157 511 157 q 599 134 576 157 q 622 79 622 111 q 599 23 622 46 q 543 0 576 0 q 488 23 511 0 q 465 79 465 46 m 664 278 q 687 333 664 310 q 742 356 710 356 q 798 333 775 356 q 821 278 821 310 q 798 222 821 244 q 742 199 775 199 q 687 222 710 199 q 664 278 664 244 z "},"u":{"ha":889,"x_min":68,"x_max":821,"o":"m 68 874 q 91 928 68 906 q 147 951 114 951 q 202 928 179 951 q 225 874 225 906 q 202 817 225 840 q 147 794 179 794 q 91 817 114 794 q 68 874 68 840 m 68 675 q 91 730 68 707 q 147 753 114 753 q 202 730 179 753 q 225 675 225 707 q 202 619 225 642 q 147 596 179 596 q 91 619 114 596 q 68 675 68 642 m 68 476 q 91 531 68 508 q 147 554 114 554 q 202 531 179 554 q 225 476 225 508 q 202 420 225 443 q 147 397 179 397 q 91 420 114 397 q 68 476 68 443 m 68 278 q 91 333 68 310 q 147 356 114 356 q 202 333 179 356 q 225 278 225 310 q 202 222 225 244 q 147 199 179 199 q 91 222 114 199 q 68 278 68 244 m 267 79 q 290 134 267 111 q 346 157 313 157 q 401 134 378 157 q 424 79 424 111 q 401 23 424 46 q 346 0 378 0 q 290 23 313 0 q 267 79 267 46 m 465 79 q 488 134 465 111 q 543 157 511 157 q 599 134 576 157 q 622 79 622 111 q 599 23 622 46 q 543 0 576 0 q 488 23 511 0 q 465 79 465 46 m 664 874 q 687 928 664 906 q 742 951 710 951 q 798 928 775 951 q 821 874 821 906 q 798 817 821 840 q 742 794 775 794 q 687 817 710 794 q 664 874 664 840 m 664 675 q 687 730 664 707 q 742 753 710 753 q 798 730 775 753 q 821 675 821 707 q 798 619 821 642 q 742 596 775 596 q 687 619 710 596 q 664 675 664 642 m 664 476 q 687 531 664 508 q 742 554 710 554 q 798 531 775 554 q 821 476 821 508 q 798 420 821 443 q 742 397 775 397 q 687 420 710 397 q 664 476 664 443 m 664 278 q 687 333 664 310 q 742 356 710 356 q 798 333 775 356 q 821 278 821 310 q 798 222 821 244 q 742 199 775 199 q 687 222 710 199 q 664 278 664 244 z "},"v":{"ha":889,"x_min":68,"x_max":821,"o":"m 68 874 q 91 928 68 906 q 147 951 114 951 q 202 928 179 951 q 225 874 225 906 q 202 817 225 840 q 147 794 179 794 q 91 817 114 794 q 68 874 68 840 m 68 675 q 91 730 68 707 q 147 753 114 753 q 202 730 179 753 q 225 675 225 707 q 202 619 225 642 q 147 596 179 596 q 91 619 114 596 q 68 675 68 642 m 68 476 q 91 531 68 508 q 147 554 114 554 q 202 531 179 554 q 225 476 225 508 q 202 420 225 443 q 147 397 179 397 q 91 420 114 397 q 68 476 68 443 m 68 278 q 91 333 68 310 q 147 356 114 356 q 202 333 179 356 q 225 278 225 310 q 202 222 225 244 q 147 199 179 199 q 91 222 114 199 q 68 278 68 244 m 68 79 q 91 134 68 111 q 147 157 114 157 q 202 134 179 157 q 225 79 225 111 q 202 23 225 46 q 147 0 179 0 q 91 23 114 0 q 68 79 68 46 m 267 79 q 290 134 267 111 q 346 157 313 157 q 401 134 378 157 q 424 79 424 111 q 401 23 424 46 q 346 0 378 0 q 290 23 313 0 q 267 79 267 46 m 465 79 q 488 134 465 111 q 543 157 511 157 q 599 134 576 157 q 622 79 622 111 q 599 23 622 46 q 543 0 576 0 q 488 23 511 0 q 465 79 465 46 m 664 874 q 687 928 664 906 q 742 951 710 951 q 798 928 775 951 q 821 874 821 906 q 798 817 821 840 q 742 794 775 794 q 687 817 710 794 q 664 874 664 840 m 664 675 q 687 730 664 707 q 742 753 710 753 q 798 730 775 753 q 821 675 821 707 q 798 619 821 642 q 742 596 775 596 q 687 619 710 596 q 664 675 664 642 m 664 476 q 687 531 664 508 q 742 554 710 554 q 798 531 775 554 q 821 476 821 508 q 798 420 821 443 q 742 397 775 397 q 687 420 710 397 q 664 476 664 443 m 664 278 q 687 333 664 310 q 742 356 710 356 q 798 333 775 356 q 821 278 821 310 q 798 222 821 244 q 742 199 775 199 q 687 222 710 199 q 664 278 664 244 z "},"w":{"ha":1086,"x_min":67,"x_max":1019,"o":"m 1019 278 q 996 222 1019 244 q 940 199 972 199 q 885 222 908 199 q 861 278 861 244 q 885 333 861 310 q 940 356 908 356 q 996 333 972 356 q 1019 278 1019 310 m 1019 476 q 996 420 1019 443 q 940 397 972 397 q 885 420 908 397 q 861 476 861 443 q 885 531 861 508 q 940 554 908 554 q 996 531 972 554 q 1019 476 1019 508 m 1019 675 q 996 619 1019 642 q 940 596 972 596 q 885 619 908 596 q 861 675 861 642 q 885 730 861 707 q 940 753 908 753 q 996 730 972 753 q 1019 675 1019 707 m 1019 874 q 996 817 1019 840 q 940 794 972 794 q 885 817 908 794 q 861 874 861 840 q 885 928 861 906 q 940 951 908 951 q 996 928 972 951 q 1019 874 1019 906 m 821 79 q 797 23 821 46 q 742 0 774 0 q 686 23 710 0 q 663 79 663 46 q 686 134 663 111 q 742 157 710 157 q 797 134 774 157 q 821 79 821 111 m 622 278 q 599 222 622 244 q 543 199 575 199 q 488 222 511 199 q 464 278 464 244 q 488 333 464 310 q 543 356 511 356 q 599 333 575 356 q 622 278 622 310 m 622 476 q 599 420 622 443 q 543 397 575 397 q 488 420 511 397 q 464 476 464 443 q 488 531 464 508 q 543 554 511 554 q 599 531 575 554 q 622 476 622 508 m 622 675 q 599 619 622 642 q 543 596 575 596 q 488 619 511 596 q 464 675 464 642 q 488 730 464 707 q 543 753 511 753 q 599 730 575 753 q 622 675 622 707 m 622 874 q 599 817 622 840 q 543 794 575 794 q 488 817 511 794 q 464 874 464 840 q 488 928 464 906 q 543 951 511 951 q 599 928 575 951 q 622 874 622 906 m 424 79 q 400 23 424 46 q 344 0 376 0 q 289 23 313 0 q 265 79 265 46 q 289 134 265 111 q 344 157 313 157 q 400 134 376 157 q 424 79 424 111 m 225 278 q 201 222 225 244 q 146 199 178 199 q 90 222 114 199 q 67 278 67 244 q 90 333 67 310 q 146 356 114 356 q 201 333 178 356 q 225 278 225 310 m 225 476 q 201 420 225 443 q 146 397 178 397 q 90 420 114 397 q 67 476 67 443 q 90 531 67 508 q 146 554 114 554 q 201 531 178 554 q 225 476 225 508 m 225 675 q 201 619 225 642 q 146 596 178 596 q 90 619 114 596 q 67 675 67 642 q 90 730 67 707 q 146 753 114 753 q 201 730 178 753 q 225 675 225 707 m 225 874 q 201 817 225 840 q 146 794 178 794 q 90 817 114 794 q 67 874 67 840 q 90 928 67 906 q 146 951 114 951 q 201 928 178 951 q 225 874 225 906 z "},"x":{"ha":889,"x_min":68,"x_max":821,"o":"m 68 874 q 91 928 68 906 q 147 951 114 951 q 202 928 179 951 q 225 874 225 906 q 202 817 225 840 q 147 794 179 794 q 91 817 114 794 q 68 874 68 840 m 68 675 q 91 730 68 707 q 147 753 114 753 q 202 730 179 753 q 225 675 225 707 q 202 619 225 642 q 147 596 179 596 q 91 619 114 596 q 68 675 68 642 m 68 278 q 91 333 68 310 q 147 356 114 356 q 202 333 179 356 q 225 278 225 310 q 202 222 225 244 q 147 199 179 199 q 91 222 114 199 q 68 278 68 244 m 68 79 q 91 134 68 111 q 147 157 114 157 q 202 134 179 157 q 225 79 225 111 q 202 23 225 46 q 147 0 179 0 q 91 23 114 0 q 68 79 68 46 m 267 476 q 290 531 267 508 q 346 554 313 554 q 401 531 378 554 q 424 476 424 508 q 401 420 424 443 q 346 397 378 397 q 290 420 313 397 q 267 476 267 443 m 465 476 q 488 531 465 508 q 543 554 511 554 q 599 531 576 554 q 622 476 622 508 q 599 420 622 443 q 543 397 576 397 q 488 420 511 397 q 465 476 465 443 m 664 874 q 687 928 664 906 q 742 951 710 951 q 798 928 775 951 q 821 874 821 906 q 798 817 821 840 q 742 794 775 794 q 687 817 710 794 q 664 874 664 840 m 664 675 q 687 730 664 707 q 742 753 710 753 q 798 730 775 753 q 821 675 821 707 q 798 619 821 642 q 742 596 775 596 q 687 619 710 596 q 664 675 664 642 m 664 278 q 687 333 664 310 q 742 356 710 356 q 798 333 775 356 q 821 278 821 310 q 798 222 821 244 q 742 199 775 199 q 687 222 710 199 q 664 278 664 244 m 664 79 q 687 134 664 111 q 742 157 710 157 q 798 134 775 157 q 821 79 821 111 q 798 23 821 46 q 742 0 775 0 q 687 23 710 0 q 664 79 664 46 z "},"y":{"ha":889,"x_min":68,"x_max":821,"o":"m 68 874 q 91 928 68 906 q 147 951 114 951 q 202 928 179 951 q 225 874 225 906 q 202 817 225 840 q 147 794 179 794 q 91 817 114 794 q 68 874 68 840 m 68 675 q 91 730 68 707 q 147 753 114 753 q 202 730 179 753 q 225 675 225 707 q 202 619 225 642 q 147 596 179 596 q 91 619 114 596 q 68 675 68 642 m 267 476 q 290 531 267 508 q 346 554 313 554 q 401 531 378 554 q 424 476 424 508 q 401 420 424 443 q 346 397 378 397 q 290 420 313 397 q 267 476 267 443 m 267 79 q 290 134 267 111 q 346 157 313 157 q 401 134 378 157 q 424 79 424 111 q 401 23 424 46 q 346 0 378 0 q 290 23 313 0 q 267 79 267 46 m 465 476 q 488 531 465 508 q 543 554 511 554 q 599 531 576 554 q 622 476 622 508 q 599 420 622 443 q 543 397 576 397 q 488 420 511 397 q 465 476 465 443 m 465 79 q 488 134 465 111 q 543 157 511 157 q 599 134 576 157 q 622 79 622 111 q 599 23 622 46 q 543 0 576 0 q 488 23 511 0 q 465 79 465 46 m 664 874 q 687 928 664 906 q 742 951 710 951 q 798 928 775 951 q 821 874 821 906 q 798 817 821 840 q 742 794 775 794 q 687 817 710 794 q 664 874 664 840 m 664 675 q 687 730 664 707 q 742 753 710 753 q 798 730 775 753 q 821 675 821 707 q 798 619 821 642 q 742 596 775 596 q 687 619 710 596 q 664 675 664 642 m 664 476 q 687 531 664 508 q 742 554 710 554 q 798 531 775 554 q 821 476 821 508 q 798 420 821 443 q 742 397 775 397 q 687 420 710 397 q 664 476 664 443 m 664 278 q 687 333 664 310 q 742 356 710 356 q 798 333 775 356 q 821 278 821 310 q 798 222 821 244 q 742 199 775 199 q 687 222 710 199 q 664 278 664 244 z "},"z":{"ha":889,"x_min":68,"x_max":821,"o":"m 68 874 q 91 928 68 906 q 147 951 114 951 q 202 928 179 951 q 225 874 225 906 q 202 817 225 840 q 147 794 179 794 q 91 817 114 794 q 68 874 68 840 m 68 278 q 91 333 68 310 q 147 356 114 356 q 202 333 179 356 q 225 278 225 310 q 202 222 225 244 q 147 199 179 199 q 91 222 114 199 q 68 278 68 244 m 68 79 q 91 134 68 111 q 147 157 114 157 q 202 134 179 157 q 225 79 225 111 q 202 23 225 46 q 147 0 179 0 q 91 23 114 0 q 68 79 68 46 m 267 874 q 290 928 267 906 q 346 951 313 951 q 401 928 378 951 q 424 874 424 906 q 401 817 424 840 q 346 794 378 794 q 290 817 313 794 q 267 874 267 840 m 267 476 q 290 531 267 508 q 346 554 313 554 q 401 531 378 554 q 424 476 424 508 q 401 420 424 443 q 346 397 378 397 q 290 420 313 397 q 267 476 267 443 m 267 79 q 290 134 267 111 q 346 157 313 157 q 401 134 378 157 q 424 79 424 111 q 401 23 424 46 q 346 0 378 0 q 290 23 313 0 q 267 79 267 46 m 465 874 q 488 928 465 906 q 543 951 511 951 q 599 928 576 951 q 622 874 622 906 q 599 817 622 840 q 543 794 576 794 q 488 817 511 794 q 465 874 465 840 m 465 675 q 488 730 465 707 q 543 753 511 753 q 599 730 576 753 q 622 675 622 707 q 599 619 622 642 q 543 596 576 596 q 488 619 511 596 q 465 675 465 642 m 465 79 q 488 134 465 111 q 543 157 511 157 q 599 134 576 157 q 622 79 622 111 q 599 23 622 46 q 543 0 576 0 q 488 23 511 0 q 465 79 465 46 m 664 874 q 687 928 664 906 q 742 951 710 951 q 798 928 775 951 q 821 874 821 906 q 798 817 821 840 q 742 794 775 794 q 687 817 710 794 q 664 874 664 840 m 664 79 q 687 134 664 111 q 742 157 710 157 q 798 134 775 157 q 821 79 821 111 q 798 23 821 46 q 742 0 775 0 q 687 23 710 0 q 664 79 664 46 z "},"{":{"ha":689,"x_min":67,"x_max":622,"o":"m 67 476 q 90 531 67 508 q 146 554 114 554 q 201 531 178 554 q 225 476 225 508 q 201 420 225 443 q 146 397 178 397 q 90 420 114 397 q 67 476 67 443 m 265 874 q 289 928 265 906 q 344 951 313 951 q 400 928 376 951 q 424 874 424 906 q 400 817 424 840 q 344 794 376 794 q 289 817 313 794 q 265 874 265 840 m 265 675 q 289 730 265 707 q 344 753 313 753 q 400 730 376 753 q 424 675 424 707 q 400 619 424 642 q 344 596 376 596 q 289 619 313 596 q 265 675 265 642 m 265 278 q 289 333 265 310 q 344 356 313 356 q 400 333 376 356 q 424 278 424 310 q 400 222 424 244 q 344 199 376 199 q 289 222 313 199 q 265 278 265 244 m 265 79 q 289 134 265 111 q 344 157 313 157 q 400 134 376 157 q 424 79 424 111 q 400 23 424 46 q 344 0 376 0 q 289 23 313 0 q 265 79 265 46 m 464 874 q 488 928 464 906 q 543 951 511 951 q 599 928 575 951 q 622 874 622 906 q 599 817 622 840 q 543 794 575 794 q 488 817 511 794 q 464 874 464 840 m 464 79 q 488 134 464 111 q 543 157 511 157 q 599 134 575 157 q 622 79 622 111 q 599 23 622 46 q 543 0 575 0 q 488 23 511 0 q 464 79 464 46 z "},"|":{"ha":292,"x_min":67,"x_max":225,"o":"m 67 874 q 90 928 67 906 q 146 951 114 951 q 201 928 178 951 q 225 874 225 906 q 201 817 225 840 q 146 794 178 794 q 90 817 114 794 q 67 874 67 840 m 67 675 q 90 730 67 707 q 146 753 114 753 q 201 730 178 753 q 225 675 225 707 q 201 619 225 642 q 146 596 178 596 q 90 619 114 596 q 67 675 67 642 m 67 476 q 90 531 67 508 q 146 554 114 554 q 201 531 178 554 q 225 476 225 508 q 201 420 225 443 q 146 397 178 397 q 90 420 114 397 q 67 476 67 443 m 67 278 q 90 333 67 310 q 146 356 114 356 q 201 333 178 356 q 225 278 225 310 q 201 222 225 244 q 146 199 178 199 q 90 222 114 199 q 67 278 67 244 m 67 79 q 90 134 67 111 q 146 157 114 157 q 201 134 178 157 q 225 79 225 111 q 201 23 225 46 q 146 0 178 0 q 90 23 114 0 q 67 79 67 46 z "},"}":{"ha":689,"x_min":67,"x_max":622,"o":"m 622 476 q 599 531 622 508 q 543 554 575 554 q 488 531 511 554 q 464 476 464 508 q 488 420 464 443 q 543 397 511 397 q 599 420 575 397 q 622 476 622 443 m 424 874 q 400 928 424 906 q 344 951 376 951 q 289 928 313 951 q 265 874 265 906 q 289 817 265 840 q 344 794 313 794 q 400 817 376 794 q 424 874 424 840 m 424 675 q 400 730 424 707 q 344 753 376 753 q 289 730 313 753 q 265 675 265 707 q 289 619 265 642 q 344 596 313 596 q 400 619 376 596 q 424 675 424 642 m 424 278 q 400 333 424 310 q 344 356 376 356 q 289 333 313 356 q 265 278 265 310 q 289 222 265 244 q 344 199 313 199 q 400 222 376 199 q 424 278 424 244 m 424 79 q 400 134 424 111 q 344 157 376 157 q 289 134 313 157 q 265 79 265 111 q 289 23 265 46 q 344 0 313 0 q 400 23 376 0 q 424 79 424 46 m 225 874 q 201 928 225 906 q 146 951 178 951 q 90 928 114 951 q 67 874 67 906 q 90 817 67 840 q 146 794 114 794 q 201 817 178 794 q 225 874 225 840 m 225 79 q 201 134 225 111 q 146 157 178 157 q 90 134 114 157 q 67 79 67 111 q 90 23 67 46 q 146 0 114 0 q 201 23 178 0 q 225 79 225 46 z "},"~":{"ha":889,"x_min":68,"x_max":821,"o":"m 68 675 q 91 730 68 707 q 147 753 114 753 q 202 730 179 753 q 225 675 225 707 q 202 619 225 642 q 147 596 179 596 q 91 619 114 596 q 68 675 68 642 m 267 874 q 290 928 267 906 q 346 951 313 951 q 401 928 378 951 q 424 874 424 906 q 401 817 424 840 q 346 794 378 794 q 290 817 313 794 q 267 874 267 840 m 465 675 q 488 730 465 707 q 543 753 511 753 q 599 730 576 753 q 622 675 622 707 q 599 619 622 642 q 543 596 576 596 q 488 619 511 596 q 465 675 465 642 m 664 874 q 687 928 664 906 q 742 951 710 951 q 798 928 775 951 q 821 874 821 906 q 798 817 821 840 q 742 794 775 794 q 687 817 710 794 q 664 874 664 840 z "},"":{"ha":292,"x_min":67,"x_max":225,"o":"m 67 874 q 90 928 67 906 q 146 951 114 951 q 201 928 178 951 q 225 874 225 906 q 201 817 225 840 q 146 794 178 794 q 90 817 114 794 q 67 874 67 840 m 67 476 q 90 531 67 508 q 146 554 114 554 q 201 531 178 554 q 225 476 225 508 q 201 420 225 443 q 146 397 178 397 q 90 420 114 397 q 67 476 67 443 m 67 278 q 90 333 67 310 q 146 356 114 356 q 201 333 178 356 q 225 278 225 310 q 201 222 225 244 q 146 199 178 199 q 90 222 114 199 q 67 278 67 244 m 67 79 q 90 134 67 111 q 146 157 114 157 q 201 134 178 157 q 225 79 225 111 q 201 23 225 46 q 146 0 178 0 q 90 23 114 0 q 67 79 67 46 z "},"":{"ha":889,"x_min":68,"x_max":821,"o":"m 68 675 q 91 730 68 707 q 147 753 114 753 q 202 730 179 753 q 225 675 225 707 q 202 619 225 642 q 147 596 179 596 q 91 619 114 596 q 68 675 68 642 m 68 476 q 91 531 68 508 q 147 554 114 554 q 202 531 179 554 q 225 476 225 508 q 202 420 225 443 q 147 397 179 397 q 91 420 114 397 q 68 476 68 443 m 68 278 q 91 333 68 310 q 147 356 114 356 q 202 333 179 356 q 225 278 225 310 q 202 222 225 244 q 147 199 179 199 q 91 222 114 199 q 68 278 68 244 m 267 874 q 290 928 267 906 q 346 951 313 951 q 401 928 378 951 q 424 874 424 906 q 401 817 424 840 q 346 794 378 794 q 290 817 313 794 q 267 874 267 840 m 267 79 q 290 134 267 111 q 346 157 313 157 q 401 134 378 157 q 424 79 424 111 q 401 23 424 46 q 346 0 378 0 q 290 23 313 0 q 267 79 267 46 m 465 874 q 488 928 465 906 q 543 951 511 951 q 599 928 576 951 q 622 874 622 906 q 599 817 622 840 q 543 794 576 794 q 488 817 511 794 q 465 874 465 840 m 465 675 q 488 730 465 707 q 543 753 511 753 q 599 730 576 753 q 622 675 622 707 q 599 619 622 642 q 543 596 576 596 q 488 619 511 596 q 465 675 465 642 m 465 476 q 488 531 465 508 q 543 554 511 554 q 599 531 576 554 q 622 476 622 508 q 599 420 622 443 q 543 397 576 397 q 488 420 511 397 q 465 476 465 443 m 465 278 q 488 333 465 310 q 543 356 511 356 q 599 333 576 356 q 622 278 622 310 q 599 222 622 244 q 543 199 576 199 q 488 222 511 199 q 465 278 465 244 m 465 79 q 488 134 465 111 q 543 157 511 157 q 599 134 576 157 q 622 79 622 111 q 599 23 622 46 q 543 0 576 0 q 488 23 511 0 q 465 79 465 46 m 664 874 q 687 928 664 906 q 742 951 710 951 q 798 928 775 951 q 821 874 821 906 q 798 817 821 840 q 742 794 775 794 q 687 817 710 794 q 664 874 664 840 m 664 79 q 687 134 664 111 q 742 157 710 157 q 798 134 775 157 q 821 79 821 111 q 798 23 821 46 q 742 0 775 0 q 687 23 710 0 q 664 79 664 46 m 465 1072 q 488 1127 465 1104 q 543 1150 511 1150 q 599 1127 576 1150 q 622 1072 622 1104 q 599 1016 622 1039 q 543 993 576 993 q 488 1016 511 993 q 465 1072 465 1039 m 465 -119 q 488 -65 465 -87 q 543 -42 511 -42 q 599 -65 576 -42 q 622 -119 622 -87 q 599 -176 622 -153 q 543 -199 576 -199 q 488 -176 511 -199 q 465 -119 465 -153 z "},"":{"ha":889,"x_min":167,"x_max":722,"o":"m 167 476 q 190 531 167 508 q 246 554 214 554 q 301 531 278 554 q 325 476 325 508 q 301 420 325 443 q 246 397 278 397 q 190 420 214 397 q 167 476 167 443 m 167 79 q 190 134 167 111 q 246 157 214 157 q 301 134 278 157 q 325 79 325 111 q 301 23 325 46 q 246 0 278 0 q 190 23 214 0 q 167 79 167 46 m 365 675 q 389 730 365 707 q 444 753 413 753 q 500 730 476 753 q 524 675 524 707 q 500 619 524 642 q 444 596 476 596 q 389 619 413 596 q 365 675 365 642 m 365 476 q 389 531 365 508 q 444 554 413 554 q 500 531 476 554 q 524 476 524 508 q 500 420 524 443 q 444 397 476 397 q 389 420 413 397 q 365 476 365 443 m 365 278 q 389 333 365 310 q 444 356 413 356 q 500 333 476 356 q 524 278 524 310 q 500 222 524 244 q 444 199 476 199 q 389 222 413 199 q 365 278 365 244 m 365 79 q 389 134 365 111 q 444 157 413 157 q 500 134 476 157 q 524 79 524 111 q 500 23 524 46 q 444 0 476 0 q 389 23 413 0 q 365 79 365 46 m 564 874 q 588 928 564 906 q 643 951 611 951 q 699 928 675 951 q 722 874 722 906 q 699 817 722 840 q 643 794 675 794 q 588 817 611 794 q 564 874 564 840 m 564 476 q 588 531 564 508 q 643 554 611 554 q 699 531 675 554 q 722 476 722 508 q 699 420 722 443 q 643 397 675 397 q 588 420 611 397 q 564 476 564 443 m 564 79 q 588 134 564 111 q 643 157 611 157 q 699 134 675 157 q 722 79 722 111 q 699 23 722 46 q 643 0 675 0 q 588 23 611 0 q 564 79 564 46 z "},"":{"ha":1086,"x_min":67,"x_max":1019,"o":"m 67 874 q 90 928 67 906 q 146 951 114 951 q 201 928 178 951 q 225 874 225 906 q 201 817 225 840 q 146 794 178 794 q 90 817 114 794 q 67 874 67 840 m 67 79 q 90 134 67 111 q 146 157 114 157 q 201 134 178 157 q 225 79 225 111 q 201 23 225 46 q 146 0 178 0 q 90 23 114 0 q 67 79 67 46 m 265 675 q 289 730 265 707 q 344 753 313 753 q 400 730 376 753 q 424 675 424 707 q 400 619 424 642 q 344 596 376 596 q 289 619 313 596 q 265 675 265 642 m 265 476 q 289 531 265 508 q 344 554 313 554 q 400 531 376 554 q 424 476 424 508 q 400 420 424 443 q 344 397 376 397 q 289 420 313 397 q 265 476 265 443 m 265 278 q 289 333 265 310 q 344 356 313 356 q 400 333 376 356 q 424 278 424 310 q 400 222 424 244 q 344 199 376 199 q 289 222 313 199 q 265 278 265 244 m 464 675 q 488 730 464 707 q 543 753 511 753 q 599 730 575 753 q 622 675 622 707 q 599 619 622 642 q 543 596 575 596 q 488 619 511 596 q 464 675 464 642 m 464 278 q 488 333 464 310 q 543 356 511 356 q 599 333 575 356 q 622 278 622 310 q 599 222 622 244 q 543 199 575 199 q 488 222 511 199 q 464 278 464 244 m 663 675 q 686 730 663 707 q 742 753 710 753 q 797 730 774 753 q 821 675 821 707 q 797 619 821 642 q 742 596 774 596 q 686 619 710 596 q 663 675 663 642 m 663 476 q 686 531 663 508 q 742 554 710 554 q 797 531 774 554 q 821 476 821 508 q 797 420 821 443 q 742 397 774 397 q 686 420 710 397 q 663 476 663 443 m 663 278 q 686 333 663 310 q 742 356 710 356 q 797 333 774 356 q 821 278 821 310 q 797 222 821 244 q 742 199 774 199 q 686 222 710 199 q 663 278 663 244 m 861 874 q 885 928 861 906 q 940 951 908 951 q 996 928 972 951 q 1019 874 1019 906 q 996 817 1019 840 q 940 794 972 794 q 885 817 908 794 q 861 874 861 840 m 861 79 q 885 134 861 111 q 940 157 908 157 q 996 134 972 157 q 1019 79 1019 111 q 996 23 1019 46 q 940 0 972 0 q 885 23 908 0 q 861 79 861 46 z "},"":{"ha":1086,"x_min":67,"x_max":1019,"o":"m 67 874 q 90 928 67 906 q 146 951 114 951 q 201 928 178 951 q 225 874 225 906 q 201 817 225 840 q 146 794 178 794 q 90 817 114 794 q 67 874 67 840 m 265 675 q 289 730 265 707 q 344 753 313 753 q 400 730 376 753 q 424 675 424 707 q 400 619 424 642 q 344 596 376 596 q 289 619 313 596 q 265 675 265 642 m 265 278 q 289 333 265 310 q 344 356 313 356 q 400 333 376 356 q 424 278 424 310 q 400 222 424 244 q 344 199 376 199 q 289 222 313 199 q 265 278 265 244 m 464 675 q 488 730 464 707 q 543 753 511 753 q 599 730 575 753 q 622 675 622 707 q 599 619 622 642 q 543 596 575 596 q 488 619 511 596 q 464 675 464 642 m 464 476 q 488 531 464 508 q 543 554 511 554 q 599 531 575 554 q 622 476 622 508 q 599 420 622 443 q 543 397 575 397 q 488 420 511 397 q 464 476 464 443 m 464 278 q 488 333 464 310 q 543 356 511 356 q 599 333 575 356 q 622 278 622 310 q 599 222 622 244 q 543 199 575 199 q 488 222 511 199 q 464 278 464 244 m 464 79 q 488 134 464 111 q 543 157 511 157 q 599 134 575 157 q 622 79 622 111 q 599 23 622 46 q 543 0 575 0 q 488 23 511 0 q 464 79 464 46 m 663 675 q 686 730 663 707 q 742 753 710 753 q 797 730 774 753 q 821 675 821 707 q 797 619 821 642 q 742 596 774 596 q 686 619 710 596 q 663 675 663 642 m 663 278 q 686 333 663 310 q 742 356 710 356 q 797 333 774 356 q 821 278 821 310 q 797 222 821 244 q 742 199 774 199 q 686 222 710 199 q 663 278 663 244 m 861 874 q 885 928 861 906 q 940 951 908 951 q 996 928 972 951 q 1019 874 1019 906 q 996 817 1019 840 q 940 794 972 794 q 885 817 908 794 q 861 874 861 840 z "},"":{"ha":292,"x_min":67,"x_max":225,"o":"m 67 874 q 90 928 67 906 q 146 951 114 951 q 201 928 178 951 q 225 874 225 906 q 201 817 225 840 q 146 794 178 794 q 90 817 114 794 q 67 874 67 840 m 67 675 q 90 730 67 707 q 146 753 114 753 q 201 730 178 753 q 225 675 225 707 q 201 619 225 642 q 146 596 178 596 q 90 619 114 596 q 67 675 67 642 m 67 278 q 90 333 67 310 q 146 356 114 356 q 201 333 178 356 q 225 278 225 310 q 201 222 225 244 q 146 199 178 199 q 90 222 114 199 q 67 278 67 244 m 67 79 q 90 134 67 111 q 146 157 114 157 q 201 134 178 157 q 225 79 225 111 q 201 23 225 46 q 146 0 178 0 q 90 23 114 0 q 67 79 67 46 z "},"":{"ha":689,"x_min":67,"x_max":622,"o":"m 67 675 q 90 730 67 707 q 146 753 114 753 q 201 730 178 753 q 225 675 225 707 q 201 619 225 642 q 146 596 178 596 q 90 619 114 596 q 67 675 67 642 m 67 79 q 90 134 67 111 q 146 157 114 157 q 201 134 178 157 q 225 79 225 111 q 201 23 225 46 q 146 0 178 0 q 90 23 114 0 q 67 79 67 46 m 265 874 q 289 928 265 906 q 344 951 313 951 q 400 928 376 951 q 424 874 424 906 q 400 817 424 840 q 344 794 376 794 q 289 817 313 794 q 265 874 265 840 m 265 476 q 289 531 265 508 q 344 554 313 554 q 400 531 376 554 q 424 476 424 508 q 400 420 424 443 q 344 397 376 397 q 289 420 313 397 q 265 476 265 443 m 265 79 q 289 134 265 111 q 344 157 313 157 q 400 134 376 157 q 424 79 424 111 q 400 23 424 46 q 344 0 376 0 q 289 23 313 0 q 265 79 265 46 m 464 874 q 488 928 464 906 q 543 951 511 951 q 599 928 575 951 q 622 874 622 906 q 599 817 622 840 q 543 794 575 794 q 488 817 511 794 q 464 874 464 840 m 464 278 q 488 333 464 310 q 543 356 511 356 q 599 333 575 356 q 622 278 622 310 q 599 222 622 244 q 543 199 575 199 q 488 222 511 199 q 464 278 464 244 z "},"":{"ha":689,"x_min":67,"x_max":622,"o":"m 67 874 q 90 928 67 906 q 146 951 114 951 q 201 928 178 951 q 225 874 225 906 q 201 817 225 840 q 146 794 178 794 q 90 817 114 794 q 67 874 67 840 m 464 874 q 488 928 464 906 q 543 951 511 951 q 599 928 575 951 q 622 874 622 906 q 599 817 622 840 q 543 794 575 794 q 488 817 511 794 q 464 874 464 840 z "},"":{"ha":1482,"x_min":67,"x_max":1415,"o":"m 464 476 q 487 531 464 508 q 543 554 510 554 q 598 531 575 554 q 621 476 621 508 q 598 420 621 443 q 543 397 575 397 q 487 420 510 397 q 464 476 464 443 m 663 675 q 685 730 663 707 q 742 753 708 753 q 797 730 774 753 q 819 675 819 707 q 797 619 819 642 q 742 596 774 596 q 685 619 708 596 q 663 675 663 642 m 663 278 q 685 333 663 310 q 742 356 708 356 q 797 333 774 356 q 819 278 819 310 q 797 222 819 244 q 742 199 774 199 q 685 222 708 199 q 663 278 663 244 m 861 675 q 884 730 861 707 q 939 753 907 753 q 995 730 972 753 q 1018 675 1018 707 q 995 619 1018 642 q 939 596 972 596 q 884 619 907 596 q 861 675 861 642 m 861 278 q 884 333 861 310 q 939 356 907 356 q 995 333 972 356 q 1018 278 1018 310 q 995 222 1018 244 q 939 199 972 199 q 884 222 907 199 q 861 278 861 244 m 265 1072 q 288 1127 265 1104 q 344 1150 311 1150 q 399 1127 376 1150 q 422 1072 422 1104 q 399 1016 422 1039 q 344 993 376 993 q 288 1016 311 993 q 265 1072 265 1039 m 464 1072 q 487 1127 464 1104 q 543 1150 510 1150 q 598 1127 575 1150 q 621 1072 621 1104 q 598 1016 621 1039 q 543 993 575 993 q 487 1016 510 993 q 464 1072 464 1039 m 663 1072 q 685 1127 663 1104 q 742 1150 708 1150 q 797 1127 774 1150 q 819 1072 819 1104 q 797 1016 819 1039 q 742 993 774 993 q 685 1016 708 993 q 663 1072 663 1039 m 861 1072 q 884 1127 861 1104 q 939 1150 907 1150 q 995 1127 972 1150 q 1018 1072 1018 1104 q 995 1016 1018 1039 q 939 993 972 993 q 884 1016 907 993 q 861 1072 861 1039 m 1060 1072 q 1083 1127 1060 1104 q 1138 1150 1106 1150 q 1194 1127 1171 1150 q 1217 1072 1217 1104 q 1194 1016 1217 1039 q 1138 993 1171 993 q 1083 1016 1106 993 q 1060 1072 1060 1039 m 265 -119 q 288 -65 265 -87 q 344 -42 311 -42 q 399 -65 376 -42 q 422 -119 422 -87 q 399 -176 422 -153 q 344 -199 376 -199 q 288 -176 311 -199 q 265 -119 265 -153 m 464 -119 q 487 -65 464 -87 q 543 -42 510 -42 q 598 -65 575 -42 q 621 -119 621 -87 q 598 -176 621 -153 q 543 -199 575 -199 q 487 -176 510 -199 q 464 -119 464 -153 m 663 -119 q 685 -65 663 -87 q 742 -42 708 -42 q 797 -65 774 -42 q 819 -119 819 -87 q 797 -176 819 -153 q 742 -199 774 -199 q 685 -176 708 -199 q 663 -119 663 -153 m 861 -119 q 884 -65 861 -87 q 939 -42 907 -42 q 995 -65 972 -42 q 1018 -119 1018 -87 q 995 -176 1018 -153 q 939 -199 972 -199 q 884 -176 907 -199 q 861 -119 861 -153 m 1060 -119 q 1083 -65 1060 -87 q 1138 -42 1106 -42 q 1194 -65 1171 -42 q 1217 -119 1217 -87 q 1194 -176 1217 -153 q 1138 -199 1171 -199 q 1083 -176 1106 -199 q 1060 -119 1060 -153 m 67 874 q 90 928 67 906 q 146 951 113 951 q 201 928 178 951 q 224 874 224 906 q 201 817 224 840 q 146 794 178 794 q 90 817 113 794 q 67 874 67 840 m 67 675 q 90 730 67 707 q 146 753 113 753 q 201 730 178 753 q 224 675 224 707 q 201 619 224 642 q 146 596 178 596 q 90 619 113 596 q 67 675 67 642 m 67 476 q 90 531 67 508 q 146 554 113 554 q 201 531 178 554 q 224 476 224 508 q 201 420 224 443 q 146 397 178 397 q 90 420 113 397 q 67 476 67 443 m 67 278 q 90 333 67 310 q 146 356 113 356 q 201 333 178 356 q 224 278 224 310 q 201 222 224 244 q 146 199 178 199 q 90 222 113 199 q 67 278 67 244 m 67 79 q 90 134 67 111 q 146 157 113 157 q 201 134 178 157 q 224 79 224 111 q 201 23 224 46 q 146 0 178 0 q 90 23 113 0 q 67 79 67 46 m 1258 874 q 1281 928 1258 906 q 1336 951 1304 951 q 1392 928 1369 951 q 1415 874 1415 906 q 1392 817 1415 840 q 1336 794 1369 794 q 1281 817 1304 794 q 1258 874 1258 840 m 1258 675 q 1281 730 1258 707 q 1336 753 1304 753 q 1392 730 1369 753 q 1415 675 1415 707 q 1392 619 1415 642 q 1336 596 1369 596 q 1281 619 1304 596 q 1258 675 1258 642 m 1258 476 q 1281 531 1258 508 q 1336 554 1304 554 q 1392 531 1369 554 q 1415 476 1415 508 q 1392 420 1415 443 q 1336 397 1369 397 q 1281 420 1304 397 q 1258 476 1258 443 m 1258 278 q 1281 333 1258 310 q 1336 356 1304 356 q 1392 333 1369 356 q 1415 278 1415 310 q 1392 222 1415 244 q 1336 199 1369 199 q 1281 222 1304 199 q 1258 278 1258 244 m 1258 79 q 1281 134 1258 111 q 1336 157 1304 157 q 1392 134 1369 157 q 1415 79 1415 111 q 1392 23 1415 46 q 1336 0 1369 0 q 1281 23 1304 0 q 1258 79 1258 46 z "},"":{"ha":889,"x_min":68,"x_max":821,"o":"m 68 675 q 91 730 68 707 q 147 753 114 753 q 202 730 179 753 q 225 675 225 707 q 202 619 225 642 q 147 596 179 596 q 91 619 114 596 q 68 675 68 642 m 68 79 q 91 134 68 111 q 147 157 114 157 q 202 134 179 157 q 225 79 225 111 q 202 23 225 46 q 147 0 179 0 q 91 23 114 0 q 68 79 68 46 m 267 874 q 290 928 267 906 q 346 951 313 951 q 401 928 378 951 q 424 874 424 906 q 401 817 424 840 q 346 794 378 794 q 290 817 313 794 q 267 874 267 840 m 267 476 q 290 531 267 508 q 346 554 313 554 q 401 531 378 554 q 424 476 424 508 q 401 420 424 443 q 346 397 378 397 q 290 420 313 397 q 267 476 267 443 m 267 79 q 290 134 267 111 q 346 157 313 157 q 401 134 378 157 q 424 79 424 111 q 401 23 424 46 q 346 0 378 0 q 290 23 313 0 q 267 79 267 46 m 465 874 q 488 928 465 906 q 543 951 511 951 q 599 928 576 951 q 622 874 622 906 q 599 817 622 840 q 543 794 576 794 q 488 817 511 794 q 465 874 465 840 m 465 476 q 488 531 465 508 q 543 554 511 554 q 599 531 576 554 q 622 476 622 508 q 599 420 622 443 q 543 397 576 397 q 488 420 511 397 q 465 476 465 443 m 465 79 q 488 134 465 111 q 543 157 511 157 q 599 134 576 157 q 622 79 622 111 q 599 23 622 46 q 543 0 576 0 q 488 23 511 0 q 465 79 465 46 m 664 675 q 687 730 664 707 q 742 753 710 753 q 798 730 775 753 q 821 675 821 707 q 798 619 821 642 q 742 596 775 596 q 687 619 710 596 q 664 675 664 642 m 664 476 q 687 531 664 508 q 742 554 710 554 q 798 531 775 554 q 821 476 821 508 q 798 420 821 443 q 742 397 775 397 q 687 420 710 397 q 664 476 664 443 m 664 79 q 687 134 664 111 q 742 157 710 157 q 798 134 775 157 q 821 79 821 111 q 798 23 821 46 q 742 0 775 0 q 687 23 710 0 q 664 79 664 46 z "},"":{"ha":889,"x_min":68,"x_max":821,"o":"m 68 476 q 91 531 68 508 q 147 554 114 554 q 202 531 179 554 q 225 476 225 508 q 202 420 225 443 q 147 397 179 397 q 91 420 114 397 q 68 476 68 443 m 267 675 q 290 730 267 707 q 346 753 313 753 q 401 730 378 753 q 424 675 424 707 q 401 619 424 642 q 346 596 378 596 q 290 619 313 596 q 267 675 267 642 m 267 278 q 290 333 267 310 q 346 356 313 356 q 401 333 378 356 q 424 278 424 310 q 401 222 424 244 q 346 199 378 199 q 290 222 313 199 q 267 278 267 244 m 465 476 q 488 531 465 508 q 543 554 511 554 q 599 531 576 554 q 622 476 622 508 q 599 420 622 443 q 543 397 576 397 q 488 420 511 397 q 465 476 465 443 m 664 675 q 687 730 664 707 q 742 753 710 753 q 798 730 775 753 q 821 675 821 707 q 798 619 821 642 q 742 596 775 596 q 687 619 710 596 q 664 675 664 642 m 664 278 q 687 333 664 310 q 742 356 710 356 q 798 333 775 356 q 821 278 821 310 q 798 222 821 244 q 742 199 775 199 q 687 222 710 199 q 664 278 664 244 z "},"":{"ha":1482,"x_min":67,"x_max":1415,"o":"m 464 476 q 487 531 464 508 q 543 554 510 554 q 598 531 575 554 q 621 476 621 508 q 598 420 621 443 q 543 397 575 397 q 487 420 510 397 q 464 476 464 443 m 663 675 q 685 730 663 707 q 742 753 708 753 q 797 730 774 753 q 819 675 819 707 q 797 619 819 642 q 742 596 774 596 q 685 619 708 596 q 663 675 663 642 m 663 476 q 685 531 663 508 q 742 554 708 554 q 797 531 774 554 q 819 476 819 508 q 797 420 819 443 q 742 397 774 397 q 685 420 708 397 q 663 476 663 443 m 861 675 q 884 730 861 707 q 939 753 907 753 q 995 730 972 753 q 1018 675 1018 707 q 995 619 1018 642 q 939 596 972 596 q 884 619 907 596 q 861 675 861 642 m 861 278 q 884 333 861 310 q 939 356 907 356 q 995 333 972 356 q 1018 278 1018 310 q 995 222 1018 244 q 939 199 972 199 q 884 222 907 199 q 861 278 861 244 m 265 1072 q 288 1127 265 1104 q 344 1150 311 1150 q 399 1127 376 1150 q 422 1072 422 1104 q 399 1016 422 1039 q 344 993 376 993 q 288 1016 311 993 q 265 1072 265 1039 m 464 1072 q 487 1127 464 1104 q 543 1150 510 1150 q 598 1127 575 1150 q 621 1072 621 1104 q 598 1016 621 1039 q 543 993 575 993 q 487 1016 510 993 q 464 1072 464 1039 m 663 1072 q 685 1127 663 1104 q 742 1150 708 1150 q 797 1127 774 1150 q 819 1072 819 1104 q 797 1016 819 1039 q 742 993 774 993 q 685 1016 708 993 q 663 1072 663 1039 m 861 1072 q 884 1127 861 1104 q 939 1150 907 1150 q 995 1127 972 1150 q 1018 1072 1018 1104 q 995 1016 1018 1039 q 939 993 972 993 q 884 1016 907 993 q 861 1072 861 1039 m 1060 1072 q 1083 1127 1060 1104 q 1138 1150 1106 1150 q 1194 1127 1171 1150 q 1217 1072 1217 1104 q 1194 1016 1217 1039 q 1138 993 1171 993 q 1083 1016 1106 993 q 1060 1072 1060 1039 m 265 -119 q 288 -65 265 -87 q 344 -42 311 -42 q 399 -65 376 -42 q 422 -119 422 -87 q 399 -176 422 -153 q 344 -199 376 -199 q 288 -176 311 -199 q 265 -119 265 -153 m 464 -119 q 487 -65 464 -87 q 543 -42 510 -42 q 598 -65 575 -42 q 621 -119 621 -87 q 598 -176 621 -153 q 543 -199 575 -199 q 487 -176 510 -199 q 464 -119 464 -153 m 663 -119 q 685 -65 663 -87 q 742 -42 708 -42 q 797 -65 774 -42 q 819 -119 819 -87 q 797 -176 819 -153 q 742 -199 774 -199 q 685 -176 708 -199 q 663 -119 663 -153 m 861 -119 q 884 -65 861 -87 q 939 -42 907 -42 q 995 -65 972 -42 q 1018 -119 1018 -87 q 995 -176 1018 -153 q 939 -199 972 -199 q 884 -176 907 -199 q 861 -119 861 -153 m 1060 -119 q 1083 -65 1060 -87 q 1138 -42 1106 -42 q 1194 -65 1171 -42 q 1217 -119 1217 -87 q 1194 -176 1217 -153 q 1138 -199 1171 -199 q 1083 -176 1106 -199 q 1060 -119 1060 -153 m 67 874 q 90 928 67 906 q 146 951 113 951 q 201 928 178 951 q 224 874 224 906 q 201 817 224 840 q 146 794 178 794 q 90 817 113 794 q 67 874 67 840 m 67 675 q 90 730 67 707 q 146 753 113 753 q 201 730 178 753 q 224 675 224 707 q 201 619 224 642 q 146 596 178 596 q 90 619 113 596 q 67 675 67 642 m 67 476 q 90 531 67 508 q 146 554 113 554 q 201 531 178 554 q 224 476 224 508 q 201 420 224 443 q 146 397 178 397 q 90 420 113 397 q 67 476 67 443 m 67 278 q 90 333 67 310 q 146 356 113 356 q 201 333 178 356 q 224 278 224 310 q 201 222 224 244 q 146 199 178 199 q 90 222 113 199 q 67 278 67 244 m 67 79 q 90 134 67 111 q 146 157 113 157 q 201 134 178 157 q 224 79 224 111 q 201 23 224 46 q 146 0 178 0 q 90 23 113 0 q 67 79 67 46 m 1258 874 q 1281 928 1258 906 q 1336 951 1304 951 q 1392 928 1369 951 q 1415 874 1415 906 q 1392 817 1415 840 q 1336 794 1369 794 q 1281 817 1304 794 q 1258 874 1258 840 m 1258 675 q 1281 730 1258 707 q 1336 753 1304 753 q 1392 730 1369 753 q 1415 675 1415 707 q 1392 619 1415 642 q 1336 596 1369 596 q 1281 619 1304 596 q 1258 675 1258 642 m 1258 476 q 1281 531 1258 508 q 1336 554 1304 554 q 1392 531 1369 554 q 1415 476 1415 508 q 1392 420 1415 443 q 1336 397 1369 397 q 1281 420 1304 397 q 1258 476 1258 443 m 1258 278 q 1281 333 1258 310 q 1336 356 1304 356 q 1392 333 1369 356 q 1415 278 1415 310 q 1392 222 1415 244 q 1336 199 1369 199 q 1281 222 1304 199 q 1258 278 1258 244 m 1258 79 q 1281 134 1258 111 q 1336 157 1304 157 q 1392 134 1369 157 q 1415 79 1415 111 q 1392 23 1415 46 q 1336 0 1369 0 q 1281 23 1304 0 q 1258 79 1258 46 m 464 278 q 487 333 464 310 q 543 356 510 356 q 598 333 575 356 q 621 278 621 310 q 598 222 621 244 q 543 199 575 199 q 487 222 510 199 q 464 278 464 244 m 464 675 q 487 730 464 707 q 543 753 510 753 q 598 730 575 753 q 621 675 621 707 q 598 619 621 642 q 543 596 575 596 q 487 619 510 596 q 464 675 464 642 z "},"":{"ha":292,"x_min":67,"x_max":225,"o":"m 67 874 q 90 928 67 906 q 146 951 114 951 q 201 928 178 951 q 225 874 225 906 q 201 817 225 840 q 146 794 178 794 q 90 817 114 794 q 67 874 67 840 z "},"":{"ha":689,"x_min":67,"x_max":622,"o":"m 67 675 q 90 730 67 707 q 146 753 114 753 q 201 730 178 753 q 225 675 225 707 q 201 619 225 642 q 146 596 178 596 q 90 619 114 596 q 67 675 67 642 m 67 79 q 90 134 67 111 q 146 157 114 157 q 201 134 178 157 q 225 79 225 111 q 201 23 225 46 q 146 0 178 0 q 90 23 114 0 q 67 79 67 46 m 265 874 q 289 928 265 906 q 344 951 313 951 q 400 928 376 951 q 424 874 424 906 q 400 817 424 840 q 344 794 376 794 q 289 817 313 794 q 265 874 265 840 m 265 675 q 289 730 265 707 q 344 753 313 753 q 400 730 376 753 q 424 675 424 707 q 400 619 424 642 q 344 596 376 596 q 289 619 313 596 q 265 675 265 642 m 265 476 q 289 531 265 508 q 344 554 313 554 q 400 531 376 554 q 424 476 424 508 q 400 420 424 443 q 344 397 376 397 q 289 420 313 397 q 265 476 265 443 m 265 79 q 289 134 265 111 q 344 157 313 157 q 400 134 376 157 q 424 79 424 111 q 400 23 424 46 q 344 0 376 0 q 289 23 313 0 q 265 79 265 46 m 464 675 q 488 730 464 707 q 543 753 511 753 q 599 730 575 753 q 622 675 622 707 q 599 619 622 642 q 543 596 575 596 q 488 619 511 596 q 464 675 464 642 m 464 79 q 488 134 464 111 q 543 157 511 157 q 599 134 575 157 q 622 79 622 111 q 599 23 622 46 q 543 0 575 0 q 488 23 511 0 q 464 79 464 46 z "},"":{"ha":1086,"x_min":67,"x_max":1019,"o":"m 67 675 q 90 730 67 707 q 146 753 114 753 q 201 730 178 753 q 225 675 225 707 q 201 619 225 642 q 146 596 178 596 q 90 619 114 596 q 67 675 67 642 m 67 476 q 90 531 67 508 q 146 554 114 554 q 201 531 178 554 q 225 476 225 508 q 201 420 225 443 q 146 397 178 397 q 90 420 114 397 q 67 476 67 443 m 67 278 q 90 333 67 310 q 146 356 114 356 q 201 333 178 356 q 225 278 225 310 q 201 222 225 244 q 146 199 178 199 q 90 222 114 199 q 67 278 67 244 m 67 79 q 90 134 67 111 q 146 157 114 157 q 201 134 178 157 q 225 79 225 111 q 201 23 225 46 q 146 0 178 0 q 90 23 114 0 q 67 79 67 46 m 67 -119 q 90 -65 67 -87 q 146 -42 114 -42 q 201 -65 178 -42 q 225 -119 225 -87 q 201 -176 225 -153 q 146 -199 178 -199 q 90 -176 114 -199 q 67 -119 67 -153 m 265 79 q 289 134 265 111 q 344 157 313 157 q 400 134 376 157 q 424 79 424 111 q 400 23 424 46 q 344 0 376 0 q 289 23 313 0 q 265 79 265 46 m 464 79 q 488 134 464 111 q 543 157 511 157 q 599 134 575 157 q 622 79 622 111 q 599 23 622 46 q 543 0 575 0 q 488 23 511 0 q 464 79 464 46 m 663 675 q 686 730 663 707 q 742 753 710 753 q 797 730 774 753 q 821 675 821 707 q 797 619 821 642 q 742 596 774 596 q 686 619 710 596 q 663 675 663 642 m 663 476 q 686 531 663 508 q 742 554 710 554 q 797 531 774 554 q 821 476 821 508 q 797 420 821 443 q 742 397 774 397 q 686 420 710 397 q 663 476 663 443 m 663 278 q 686 333 663 310 q 742 356 710 356 q 797 333 774 356 q 821 278 821 310 q 797 222 821 244 q 742 199 774 199 q 686 222 710 199 q 663 278 663 244 m 861 79 q 885 134 861 111 q 940 157 908 157 q 996 134 972 157 q 1019 79 1019 111 q 996 23 1019 46 q 940 0 972 0 q 885 23 908 0 q 861 79 861 46 z "},"":{"ha":1086,"x_min":67,"x_max":1019,"o":"m 67 675 q 90 730 67 707 q 146 753 114 753 q 201 730 178 753 q 225 675 225 707 q 201 619 225 642 q 146 596 178 596 q 90 619 114 596 q 67 675 67 642 m 67 476 q 90 531 67 508 q 146 554 114 554 q 201 531 178 554 q 225 476 225 508 q 201 420 225 443 q 146 397 178 397 q 90 420 114 397 q 67 476 67 443 m 265 874 q 289 928 265 906 q 344 951 313 951 q 400 928 376 951 q 424 874 424 906 q 400 817 424 840 q 344 794 376 794 q 289 817 313 794 q 265 874 265 840 m 265 675 q 289 730 265 707 q 344 753 313 753 q 400 730 376 753 q 424 675 424 707 q 400 619 424 642 q 344 596 376 596 q 289 619 313 596 q 265 675 265 642 m 265 476 q 289 531 265 508 q 344 554 313 554 q 400 531 376 554 q 424 476 424 508 q 400 420 424 443 q 344 397 376 397 q 289 420 313 397 q 265 476 265 443 m 265 278 q 289 333 265 310 q 344 356 313 356 q 400 333 376 356 q 424 278 424 310 q 400 222 424 244 q 344 199 376 199 q 289 222 313 199 q 265 278 265 244 m 265 79 q 289 134 265 111 q 344 157 313 157 q 400 134 376 157 q 424 79 424 111 q 400 23 424 46 q 344 0 376 0 q 289 23 313 0 q 265 79 265 46 m 464 874 q 488 928 464 906 q 543 951 511 951 q 599 928 575 951 q 622 874 622 906 q 599 817 622 840 q 543 794 575 794 q 488 817 511 794 q 464 874 464 840 m 663 874 q 686 928 663 906 q 742 951 710 951 q 797 928 774 951 q 821 874 821 906 q 797 817 821 840 q 742 794 774 794 q 686 817 710 794 q 663 874 663 840 m 663 675 q 686 730 663 707 q 742 753 710 753 q 797 730 774 753 q 821 675 821 707 q 797 619 821 642 q 742 596 774 596 q 686 619 710 596 q 663 675 663 642 m 663 476 q 686 531 663 508 q 742 554 710 554 q 797 531 774 554 q 821 476 821 508 q 797 420 821 443 q 742 397 774 397 q 686 420 710 397 q 663 476 663 443 m 663 278 q 686 333 663 310 q 742 356 710 356 q 797 333 774 356 q 821 278 821 310 q 797 222 821 244 q 742 199 774 199 q 686 222 710 199 q 663 278 663 244 m 663 79 q 686 134 663 111 q 742 157 710 157 q 797 134 774 157 q 821 79 821 111 q 797 23 821 46 q 742 0 774 0 q 686 23 710 0 q 663 79 663 46 m 861 874 q 885 928 861 906 q 940 951 908 951 q 996 928 972 951 q 1019 874 1019 906 q 996 817 1019 840 q 940 794 972 794 q 885 817 908 794 q 861 874 861 840 z "},"":{"ha":1444,"x_min":0,"x_max":0,"o":""},"":{"ha":292,"x_min":67,"x_max":225,"o":"m 67 874 q 90 928 67 906 q 146 951 114 951 q 201 928 178 951 q 225 874 225 906 q 201 817 225 840 q 146 794 178 794 q 90 817 114 794 q 67 874 67 840 z "},"":{"ha":889,"x_min":68,"x_max":821,"o":"m 821 476 q 798 531 821 508 q 742 554 775 554 q 687 531 710 554 q 664 476 664 508 q 687 420 664 443 q 742 397 710 397 q 798 420 775 397 q 821 476 821 443 m 622 675 q 599 730 622 707 q 543 753 576 753 q 488 730 511 753 q 465 675 465 707 q 488 619 465 642 q 543 596 511 596 q 599 619 576 596 q 622 675 622 642 m 622 278 q 599 333 622 310 q 543 356 576 356 q 488 333 511 356 q 465 278 465 310 q 488 222 465 244 q 543 199 511 199 q 599 222 576 199 q 622 278 622 244 m 424 476 q 401 531 424 508 q 346 554 378 554 q 290 531 313 554 q 267 476 267 508 q 290 420 267 443 q 346 397 313 397 q 401 420 378 397 q 424 476 424 443 m 225 675 q 202 730 225 707 q 147 753 179 753 q 91 730 114 753 q 68 675 68 707 q 91 619 68 642 q 147 596 114 596 q 202 619 179 596 q 225 675 225 642 m 225 278 q 202 333 225 310 q 147 356 179 356 q 91 333 114 356 q 68 278 68 310 q 91 222 68 244 q 147 199 114 199 q 202 222 179 199 q 225 278 225 244 z "},"":{"ha":889,"x_min":68,"x_max":821,"o":"m 821 79 q 798 23 821 46 q 742 0 775 0 q 687 23 710 0 q 664 79 664 46 q 687 134 664 111 q 742 157 710 157 q 798 134 775 157 q 821 79 821 111 m 622 79 q 599 23 622 46 q 543 0 576 0 q 488 23 511 0 q 465 79 465 46 q 488 134 465 111 q 543 157 511 157 q 599 134 576 157 q 622 79 622 111 m 622 476 q 599 420 622 443 q 543 397 576 397 q 488 420 511 397 q 465 476 465 443 q 488 531 465 508 q 543 554 511 554 q 599 531 576 554 q 622 476 622 508 m 622 874 q 599 817 622 840 q 543 794 576 794 q 488 817 511 794 q 465 874 465 840 q 488 928 465 906 q 543 951 511 951 q 599 928 576 951 q 622 874 622 906 m 424 79 q 401 23 424 46 q 346 0 378 0 q 290 23 313 0 q 267 79 267 46 q 290 134 267 111 q 346 157 313 157 q 401 134 378 157 q 424 79 424 111 m 424 476 q 401 420 424 443 q 346 397 378 397 q 290 420 313 397 q 267 476 267 443 q 290 531 267 508 q 346 554 313 554 q 401 531 378 554 q 424 476 424 508 m 225 278 q 202 222 225 244 q 147 199 179 199 q 91 222 114 199 q 68 278 68 244 q 91 333 68 310 q 147 356 114 356 q 202 333 179 356 q 225 278 225 310 z "},"":{"ha":889,"x_min":68,"x_max":821,"o":"m 465 1072 q 488 1127 465 1104 q 543 1150 511 1150 q 599 1127 576 1150 q 622 1072 622 1104 q 599 1016 622 1039 q 543 993 576 993 q 488 1016 511 993 q 465 1072 465 1039 m 269 1271 q 292 1326 269 1303 q 349 1349 315 1349 q 403 1326 381 1349 q 426 1271 426 1303 q 403 1215 426 1238 q 349 1192 381 1192 q 292 1215 315 1192 q 269 1271 269 1238 m 68 675 q 91 730 68 707 q 147 753 114 753 q 202 730 179 753 q 225 675 225 707 q 202 619 225 642 q 147 596 179 596 q 91 619 114 596 q 68 675 68 642 m 68 476 q 91 531 68 508 q 147 554 114 554 q 202 531 179 554 q 225 476 225 508 q 202 420 225 443 q 147 397 179 397 q 91 420 114 397 q 68 476 68 443 m 68 278 q 91 333 68 310 q 147 356 114 356 q 202 333 179 356 q 225 278 225 310 q 202 222 225 244 q 147 199 179 199 q 91 222 114 199 q 68 278 68 244 m 68 79 q 91 134 68 111 q 147 157 114 157 q 202 134 179 157 q 225 79 225 111 q 202 23 225 46 q 147 0 179 0 q 91 23 114 0 q 68 79 68 46 m 267 874 q 290 928 267 906 q 346 951 313 951 q 401 928 378 951 q 424 874 424 906 q 401 817 424 840 q 346 794 378 794 q 290 817 313 794 q 267 874 267 840 m 267 476 q 290 531 267 508 q 346 554 313 554 q 401 531 378 554 q 424 476 424 508 q 401 420 424 443 q 346 397 378 397 q 290 420 313 397 q 267 476 267 443 m 465 874 q 488 928 465 906 q 543 951 511 951 q 599 928 576 951 q 622 874 622 906 q 599 817 622 840 q 543 794 576 794 q 488 817 511 794 q 465 874 465 840 m 465 476 q 488 531 465 508 q 543 554 511 554 q 599 531 576 554 q 622 476 622 508 q 599 420 622 443 q 543 397 576 397 q 488 420 511 397 q 465 476 465 443 m 664 675 q 687 730 664 707 q 742 753 710 753 q 798 730 775 753 q 821 675 821 707 q 798 619 821 642 q 742 596 775 596 q 687 619 710 596 q 664 675 664 642 m 664 476 q 687 531 664 508 q 742 554 710 554 q 798 531 775 554 q 821 476 821 508 q 798 420 821 443 q 742 397 775 397 q 687 420 710 397 q 664 476 664 443 m 664 278 q 687 333 664 310 q 742 356 710 356 q 798 333 775 356 q 821 278 821 310 q 798 222 821 244 q 742 199 775 199 q 687 222 710 199 q 664 278 664 244 m 664 79 q 687 134 664 111 q 742 157 710 157 q 798 134 775 157 q 821 79 821 111 q 798 23 821 46 q 742 0 775 0 q 687 23 710 0 q 664 79 664 46 z "},"":{"ha":889,"x_min":68,"x_max":821,"o":"m 267 1072 q 290 1127 267 1104 q 346 1150 313 1150 q 401 1127 378 1150 q 424 1072 424 1104 q 401 1016 424 1039 q 346 993 378 993 q 290 1016 313 993 q 267 1072 267 1039 m 468 1271 q 491 1326 468 1303 q 547 1349 514 1349 q 602 1326 579 1349 q 625 1271 625 1303 q 602 1215 625 1238 q 547 1192 579 1192 q 491 1215 514 1192 q 468 1271 468 1238 m 68 675 q 91 730 68 707 q 147 753 114 753 q 202 730 179 753 q 225 675 225 707 q 202 619 225 642 q 147 596 179 596 q 91 619 114 596 q 68 675 68 642 m 68 476 q 91 531 68 508 q 147 554 114 554 q 202 531 179 554 q 225 476 225 508 q 202 420 225 443 q 147 397 179 397 q 91 420 114 397 q 68 476 68 443 m 68 278 q 91 333 68 310 q 147 356 114 356 q 202 333 179 356 q 225 278 225 310 q 202 222 225 244 q 147 199 179 199 q 91 222 114 199 q 68 278 68 244 m 68 79 q 91 134 68 111 q 147 157 114 157 q 202 134 179 157 q 225 79 225 111 q 202 23 225 46 q 147 0 179 0 q 91 23 114 0 q 68 79 68 46 m 267 874 q 290 928 267 906 q 346 951 313 951 q 401 928 378 951 q 424 874 424 906 q 401 817 424 840 q 346 794 378 794 q 290 817 313 794 q 267 874 267 840 m 267 476 q 290 531 267 508 q 346 554 313 554 q 401 531 378 554 q 424 476 424 508 q 401 420 424 443 q 346 397 378 397 q 290 420 313 397 q 267 476 267 443 m 465 874 q 488 928 465 906 q 543 951 511 951 q 599 928 576 951 q 622 874 622 906 q 599 817 622 840 q 543 794 576 794 q 488 817 511 794 q 465 874 465 840 m 465 476 q 488 531 465 508 q 543 554 511 554 q 599 531 576 554 q 622 476 622 508 q 599 420 622 443 q 543 397 576 397 q 488 420 511 397 q 465 476 465 443 m 664 675 q 687 730 664 707 q 742 753 710 753 q 798 730 775 753 q 821 675 821 707 q 798 619 821 642 q 742 596 775 596 q 687 619 710 596 q 664 675 664 642 m 664 476 q 687 531 664 508 q 742 554 710 554 q 798 531 775 554 q 821 476 821 508 q 798 420 821 443 q 742 397 775 397 q 687 420 710 397 q 664 476 664 443 m 664 278 q 687 333 664 310 q 742 356 710 356 q 798 333 775 356 q 821 278 821 310 q 798 222 821 244 q 742 199 775 199 q 687 222 710 199 q 664 278 664 244 m 664 79 q 687 134 664 111 q 742 157 710 157 q 798 134 775 157 q 821 79 821 111 q 798 23 821 46 q 742 0 775 0 q 687 23 710 0 q 664 79 664 46 z "},"":{"ha":889,"x_min":68,"x_max":821,"o":"m 267 1072 q 290 1127 267 1104 q 346 1150 313 1150 q 401 1127 378 1150 q 424 1072 424 1104 q 401 1016 424 1039 q 346 993 378 993 q 290 1016 313 993 q 267 1072 267 1039 m 664 1072 q 687 1127 664 1104 q 742 1150 710 1150 q 798 1127 775 1150 q 821 1072 821 1104 q 798 1016 821 1039 q 742 993 775 993 q 687 1016 710 993 q 664 1072 664 1039 m 468 1271 q 491 1326 468 1303 q 547 1349 514 1349 q 602 1326 579 1349 q 625 1271 625 1303 q 602 1215 625 1238 q 547 1192 579 1192 q 491 1215 514 1192 q 468 1271 468 1238 m 68 675 q 91 730 68 707 q 147 753 114 753 q 202 730 179 753 q 225 675 225 707 q 202 619 225 642 q 147 596 179 596 q 91 619 114 596 q 68 675 68 642 m 68 476 q 91 531 68 508 q 147 554 114 554 q 202 531 179 554 q 225 476 225 508 q 202 420 225 443 q 147 397 179 397 q 91 420 114 397 q 68 476 68 443 m 68 278 q 91 333 68 310 q 147 356 114 356 q 202 333 179 356 q 225 278 225 310 q 202 222 225 244 q 147 199 179 199 q 91 222 114 199 q 68 278 68 244 m 68 79 q 91 134 68 111 q 147 157 114 157 q 202 134 179 157 q 225 79 225 111 q 202 23 225 46 q 147 0 179 0 q 91 23 114 0 q 68 79 68 46 m 267 874 q 290 928 267 906 q 346 951 313 951 q 401 928 378 951 q 424 874 424 906 q 401 817 424 840 q 346 794 378 794 q 290 817 313 794 q 267 874 267 840 m 267 476 q 290 531 267 508 q 346 554 313 554 q 401 531 378 554 q 424 476 424 508 q 401 420 424 443 q 346 397 378 397 q 290 420 313 397 q 267 476 267 443 m 465 874 q 488 928 465 906 q 543 951 511 951 q 599 928 576 951 q 622 874 622 906 q 599 817 622 840 q 543 794 576 794 q 488 817 511 794 q 465 874 465 840 m 465 476 q 488 531 465 508 q 543 554 511 554 q 599 531 576 554 q 622 476 622 508 q 599 420 622 443 q 543 397 576 397 q 488 420 511 397 q 465 476 465 443 m 664 675 q 687 730 664 707 q 742 753 710 753 q 798 730 775 753 q 821 675 821 707 q 798 619 821 642 q 742 596 775 596 q 687 619 710 596 q 664 675 664 642 m 664 476 q 687 531 664 508 q 742 554 710 554 q 798 531 775 554 q 821 476 821 508 q 798 420 821 443 q 742 397 775 397 q 687 420 710 397 q 664 476 664 443 m 664 278 q 687 333 664 310 q 742 356 710 356 q 798 333 775 356 q 821 278 821 310 q 798 222 821 244 q 742 199 775 199 q 687 222 710 199 q 664 278 664 244 m 664 79 q 687 134 664 111 q 742 157 710 157 q 798 134 775 157 q 821 79 821 111 q 798 23 821 46 q 742 0 775 0 q 687 23 710 0 q 664 79 664 46 z "},"":{"ha":889,"x_min":67,"x_max":822,"o":"m 67 1072 q 90 1127 67 1104 q 144 1150 113 1150 q 201 1127 178 1150 q 224 1072 224 1104 q 201 1016 224 1039 q 144 993 178 993 q 90 1016 113 993 q 67 1072 67 1039 m 464 1072 q 487 1127 464 1104 q 542 1150 510 1150 q 598 1127 575 1150 q 621 1072 621 1104 q 598 1016 621 1039 q 542 993 575 993 q 487 1016 510 993 q 464 1072 464 1039 m 268 1271 q 291 1326 268 1303 q 347 1349 314 1349 q 402 1326 379 1349 q 425 1271 425 1303 q 402 1215 425 1238 q 347 1192 379 1192 q 291 1215 314 1192 q 268 1271 268 1238 m 665 1271 q 688 1326 665 1303 q 744 1349 711 1349 q 799 1326 776 1349 q 822 1271 822 1303 q 799 1215 822 1238 q 744 1192 776 1192 q 688 1215 711 1192 q 665 1271 665 1238 m 67 675 q 90 730 67 707 q 144 753 113 753 q 201 730 178 753 q 224 675 224 707 q 201 619 224 642 q 144 596 178 596 q 90 619 113 596 q 67 675 67 642 m 67 476 q 90 531 67 508 q 144 554 113 554 q 201 531 178 554 q 224 476 224 508 q 201 420 224 443 q 144 397 178 397 q 90 420 113 397 q 67 476 67 443 m 67 278 q 90 333 67 310 q 144 356 113 356 q 201 333 178 356 q 224 278 224 310 q 201 222 224 244 q 144 199 178 199 q 90 222 113 199 q 67 278 67 244 m 67 79 q 90 134 67 111 q 144 157 113 157 q 201 134 178 157 q 224 79 224 111 q 201 23 224 46 q 144 0 178 0 q 90 23 113 0 q 67 79 67 46 m 265 874 q 288 928 265 906 q 343 951 311 951 q 399 928 376 951 q 422 874 422 906 q 399 817 422 840 q 343 794 376 794 q 288 817 311 794 q 265 874 265 840 m 265 476 q 288 531 265 508 q 343 554 311 554 q 399 531 376 554 q 422 476 422 508 q 399 420 422 443 q 343 397 376 397 q 288 420 311 397 q 265 476 265 443 m 464 874 q 487 928 464 906 q 542 951 510 951 q 598 928 575 951 q 621 874 621 906 q 598 817 621 840 q 542 794 575 794 q 487 817 510 794 q 464 874 464 840 m 464 476 q 487 531 464 508 q 542 554 510 554 q 598 531 575 554 q 621 476 621 508 q 598 420 621 443 q 542 397 575 397 q 487 420 510 397 q 464 476 464 443 m 663 675 q 685 730 663 707 q 740 753 708 753 q 797 730 774 753 q 819 675 819 707 q 797 619 819 642 q 740 596 774 596 q 685 619 708 596 q 663 675 663 642 m 663 476 q 685 531 663 508 q 740 554 708 554 q 797 531 774 554 q 819 476 819 508 q 797 420 819 443 q 740 397 774 397 q 685 420 708 397 q 663 476 663 443 m 663 278 q 685 333 663 310 q 740 356 708 356 q 797 333 774 356 q 819 278 819 310 q 797 222 819 244 q 740 199 774 199 q 685 222 708 199 q 663 278 663 244 m 663 79 q 685 134 663 111 q 740 157 708 157 q 797 134 774 157 q 819 79 819 111 q 797 23 819 46 q 740 0 774 0 q 685 23 708 0 q 663 79 663 46 z "},"":{"ha":889,"x_min":68,"x_max":821,"o":"m 68 1072 q 91 1127 68 1104 q 147 1150 114 1150 q 202 1127 179 1150 q 225 1072 225 1104 q 202 1016 225 1039 q 147 993 179 993 q 91 1016 114 993 q 68 1072 68 1039 m 664 1072 q 687 1127 664 1104 q 742 1150 710 1150 q 798 1127 775 1150 q 821 1072 821 1104 q 798 1016 821 1039 q 742 993 775 993 q 687 1016 710 993 q 664 1072 664 1039 m 68 675 q 91 730 68 707 q 147 753 114 753 q 202 730 179 753 q 225 675 225 707 q 202 619 225 642 q 147 596 179 596 q 91 619 114 596 q 68 675 68 642 m 68 476 q 91 531 68 508 q 147 554 114 554 q 202 531 179 554 q 225 476 225 508 q 202 420 225 443 q 147 397 179 397 q 91 420 114 397 q 68 476 68 443 m 68 278 q 91 333 68 310 q 147 356 114 356 q 202 333 179 356 q 225 278 225 310 q 202 222 225 244 q 147 199 179 199 q 91 222 114 199 q 68 278 68 244 m 68 79 q 91 134 68 111 q 147 157 114 157 q 202 134 179 157 q 225 79 225 111 q 202 23 225 46 q 147 0 179 0 q 91 23 114 0 q 68 79 68 46 m 267 874 q 290 928 267 906 q 346 951 313 951 q 401 928 378 951 q 424 874 424 906 q 401 817 424 840 q 346 794 378 794 q 290 817 313 794 q 267 874 267 840 m 267 476 q 290 531 267 508 q 346 554 313 554 q 401 531 378 554 q 424 476 424 508 q 401 420 424 443 q 346 397 378 397 q 290 420 313 397 q 267 476 267 443 m 465 874 q 488 928 465 906 q 543 951 511 951 q 599 928 576 951 q 622 874 622 906 q 599 817 622 840 q 543 794 576 794 q 488 817 511 794 q 465 874 465 840 m 465 476 q 488 531 465 508 q 543 554 511 554 q 599 531 576 554 q 622 476 622 508 q 599 420 622 443 q 543 397 576 397 q 488 420 511 397 q 465 476 465 443 m 664 675 q 687 730 664 707 q 742 753 710 753 q 798 730 775 753 q 821 675 821 707 q 798 619 821 642 q 742 596 775 596 q 687 619 710 596 q 664 675 664 642 m 664 476 q 687 531 664 508 q 742 554 710 554 q 798 531 775 554 q 821 476 821 508 q 798 420 821 443 q 742 397 775 397 q 687 420 710 397 q 664 476 664 443 m 664 278 q 687 333 664 310 q 742 356 710 356 q 798 333 775 356 q 821 278 821 310 q 798 222 821 244 q 742 199 775 199 q 687 222 710 199 q 664 278 664 244 m 664 79 q 687 134 664 111 q 742 157 710 157 q 798 134 775 157 q 821 79 821 111 q 798 23 821 46 q 742 0 775 0 q 687 23 710 0 q 664 79 664 46 z "},"":{"ha":889,"x_min":68,"x_max":821,"o":"m 68 1072 q 91 1127 68 1104 q 147 1150 114 1150 q 202 1127 179 1150 q 225 1072 225 1104 q 202 1016 225 1039 q 147 993 179 993 q 91 1016 114 993 q 68 1072 68 1039 m 664 1072 q 687 1127 664 1104 q 742 1150 710 1150 q 798 1127 775 1150 q 821 1072 821 1104 q 798 1016 821 1039 q 742 993 775 993 q 687 1016 710 993 q 664 1072 664 1039 m 269 1271 q 292 1326 269 1303 q 349 1349 315 1349 q 403 1326 381 1349 q 426 1271 426 1303 q 403 1215 426 1238 q 349 1192 381 1192 q 292 1215 315 1192 q 269 1271 269 1238 m 468 1271 q 491 1326 468 1303 q 547 1349 514 1349 q 602 1326 579 1349 q 625 1271 625 1303 q 602 1215 625 1238 q 547 1192 579 1192 q 491 1215 514 1192 q 468 1271 468 1238 m 68 675 q 91 730 68 707 q 147 753 114 753 q 202 730 179 753 q 225 675 225 707 q 202 619 225 642 q 147 596 179 596 q 91 619 114 596 q 68 675 68 642 m 68 476 q 91 531 68 508 q 147 554 114 554 q 202 531 179 554 q 225 476 225 508 q 202 420 225 443 q 147 397 179 397 q 91 420 114 397 q 68 476 68 443 m 68 278 q 91 333 68 310 q 147 356 114 356 q 202 333 179 356 q 225 278 225 310 q 202 222 225 244 q 147 199 179 199 q 91 222 114 199 q 68 278 68 244 m 68 79 q 91 134 68 111 q 147 157 114 157 q 202 134 179 157 q 225 79 225 111 q 202 23 225 46 q 147 0 179 0 q 91 23 114 0 q 68 79 68 46 m 267 874 q 290 928 267 906 q 346 951 313 951 q 401 928 378 951 q 424 874 424 906 q 401 817 424 840 q 346 794 378 794 q 290 817 313 794 q 267 874 267 840 m 267 476 q 290 531 267 508 q 346 554 313 554 q 401 531 378 554 q 424 476 424 508 q 401 420 424 443 q 346 397 378 397 q 290 420 313 397 q 267 476 267 443 m 465 874 q 488 928 465 906 q 543 951 511 951 q 599 928 576 951 q 622 874 622 906 q 599 817 622 840 q 543 794 576 794 q 488 817 511 794 q 465 874 465 840 m 465 476 q 488 531 465 508 q 543 554 511 554 q 599 531 576 554 q 622 476 622 508 q 599 420 622 443 q 543 397 576 397 q 488 420 511 397 q 465 476 465 443 m 664 675 q 687 730 664 707 q 742 753 710 753 q 798 730 775 753 q 821 675 821 707 q 798 619 821 642 q 742 596 775 596 q 687 619 710 596 q 664 675 664 642 m 664 476 q 687 531 664 508 q 742 554 710 554 q 798 531 775 554 q 821 476 821 508 q 798 420 821 443 q 742 397 775 397 q 687 420 710 397 q 664 476 664 443 m 664 278 q 687 333 664 310 q 742 356 710 356 q 798 333 775 356 q 821 278 821 310 q 798 222 821 244 q 742 199 775 199 q 687 222 710 199 q 664 278 664 244 m 664 79 q 687 134 664 111 q 742 157 710 157 q 798 134 775 157 q 821 79 821 111 q 798 23 821 46 q 742 0 775 0 q 687 23 710 0 q 664 79 664 46 z "},"":{"ha":1086,"x_min":67,"x_max":1019,"o":"m 67 675 q 90 730 67 707 q 146 753 114 753 q 201 730 178 753 q 225 675 225 707 q 201 619 225 642 q 146 596 178 596 q 90 619 114 596 q 67 675 67 642 m 67 476 q 90 531 67 508 q 146 554 114 554 q 201 531 178 554 q 225 476 225 508 q 201 420 225 443 q 146 397 178 397 q 90 420 114 397 q 67 476 67 443 m 67 278 q 90 333 67 310 q 146 356 114 356 q 201 333 178 356 q 225 278 225 310 q 201 222 225 244 q 146 199 178 199 q 90 222 114 199 q 67 278 67 244 m 67 79 q 90 134 67 111 q 146 157 114 157 q 201 134 178 157 q 225 79 225 111 q 201 23 225 46 q 146 0 178 0 q 90 23 114 0 q 67 79 67 46 m 265 874 q 289 928 265 906 q 344 951 313 951 q 400 928 376 951 q 424 874 424 906 q 400 817 424 840 q 344 794 376 794 q 289 817 313 794 q 265 874 265 840 m 265 476 q 289 531 265 508 q 344 554 313 554 q 400 531 376 554 q 424 476 424 508 q 400 420 424 443 q 344 397 376 397 q 289 420 313 397 q 265 476 265 443 m 464 675 q 488 730 464 707 q 543 753 511 753 q 599 730 575 753 q 622 675 622 707 q 599 619 622 642 q 543 596 575 596 q 488 619 511 596 q 464 675 464 642 m 464 476 q 488 531 464 508 q 543 554 511 554 q 599 531 575 554 q 622 476 622 508 q 599 420 622 443 q 543 397 575 397 q 488 420 511 397 q 464 476 464 443 m 464 278 q 488 333 464 310 q 543 356 511 356 q 599 333 575 356 q 622 278 622 310 q 599 222 622 244 q 543 199 575 199 q 488 222 511 199 q 464 278 464 244 m 464 79 q 488 134 464 111 q 543 157 511 157 q 599 134 575 157 q 622 79 622 111 q 599 23 622 46 q 543 0 575 0 q 488 23 511 0 q 464 79 464 46 m 663 874 q 686 928 663 906 q 742 951 710 951 q 797 928 774 951 q 821 874 821 906 q 797 817 821 840 q 742 794 774 794 q 686 817 710 794 q 663 874 663 840 m 663 476 q 686 531 663 508 q 742 554 710 554 q 797 531 774 554 q 821 476 821 508 q 797 420 821 443 q 742 397 774 397 q 686 420 710 397 q 663 476 663 443 m 663 79 q 686 134 663 111 q 742 157 710 157 q 797 134 774 157 q 821 79 821 111 q 797 23 821 46 q 742 0 774 0 q 686 23 710 0 q 663 79 663 46 m 861 874 q 885 928 861 906 q 940 951 908 951 q 996 928 972 951 q 1019 874 1019 906 q 996 817 1019 840 q 940 794 972 794 q 885 817 908 794 q 861 874 861 840 m 861 476 q 885 531 861 508 q 940 554 908 554 q 996 531 972 554 q 1019 476 1019 508 q 996 420 1019 443 q 940 397 972 397 q 885 420 908 397 q 861 476 861 443 m 861 79 q 885 134 861 111 q 940 157 908 157 q 996 134 972 157 q 1019 79 1019 111 q 996 23 1019 46 q 940 0 972 0 q 885 23 908 0 q 861 79 861 46 z "},"":{"ha":889,"x_min":68,"x_max":821,"o":"m 68 675 q 91 730 68 707 q 147 753 114 753 q 202 730 179 753 q 225 675 225 707 q 202 619 225 642 q 147 596 179 596 q 91 619 114 596 q 68 675 68 642 m 68 476 q 91 531 68 508 q 147 554 114 554 q 202 531 179 554 q 225 476 225 508 q 202 420 225 443 q 147 397 179 397 q 91 420 114 397 q 68 476 68 443 m 68 278 q 91 333 68 310 q 147 356 114 356 q 202 333 179 356 q 225 278 225 310 q 202 222 225 244 q 147 199 179 199 q 91 222 114 199 q 68 278 68 244 m 267 874 q 290 928 267 906 q 346 951 313 951 q 401 928 378 951 q 424 874 424 906 q 401 817 424 840 q 346 794 378 794 q 290 817 313 794 q 267 874 267 840 m 267 79 q 290 134 267 111 q 346 157 313 157 q 401 134 378 157 q 424 79 424 111 q 401 23 424 46 q 346 0 378 0 q 290 23 313 0 q 267 79 267 46 m 465 874 q 488 928 465 906 q 543 951 511 951 q 599 928 576 951 q 622 874 622 906 q 599 817 622 840 q 543 794 576 794 q 488 817 511 794 q 465 874 465 840 m 465 79 q 488 134 465 111 q 543 157 511 157 q 599 134 576 157 q 622 79 622 111 q 599 23 622 46 q 543 0 576 0 q 488 23 511 0 q 465 79 465 46 m 664 874 q 687 928 664 906 q 742 951 710 951 q 798 928 775 951 q 821 874 821 906 q 798 817 821 840 q 742 794 775 794 q 687 817 710 794 q 664 874 664 840 m 664 79 q 687 134 664 111 q 742 157 710 157 q 798 134 775 157 q 821 79 821 111 q 798 23 821 46 q 742 0 775 0 q 687 23 710 0 q 664 79 664 46 m 465 -119 q 488 -65 465 -87 q 543 -42 511 -42 q 599 -65 576 -42 q 622 -119 622 -87 q 599 -176 622 -153 q 543 -199 576 -199 q 488 -176 511 -199 q 465 -119 465 -153 z "},"":{"ha":889,"x_min":68,"x_max":821,"o":"m 68 675 q 91 730 68 707 q 147 753 114 753 q 202 730 179 753 q 225 675 225 707 q 202 619 225 642 q 147 596 179 596 q 91 619 114 596 q 68 675 68 642 m 68 476 q 91 531 68 508 q 147 554 114 554 q 202 531 179 554 q 225 476 225 508 q 202 420 225 443 q 147 397 179 397 q 91 420 114 397 q 68 476 68 443 m 68 278 q 91 333 68 310 q 147 356 114 356 q 202 333 179 356 q 225 278 225 310 q 202 222 225 244 q 147 199 179 199 q 91 222 114 199 q 68 278 68 244 m 267 874 q 290 928 267 906 q 346 951 313 951 q 401 928 378 951 q 424 874 424 906 q 401 817 424 840 q 346 794 378 794 q 290 817 313 794 q 267 874 267 840 m 267 476 q 290 531 267 508 q 346 554 313 554 q 401 531 378 554 q 424 476 424 508 q 401 420 424 443 q 346 397 378 397 q 290 420 313 397 q 267 476 267 443 m 267 79 q 290 134 267 111 q 346 157 313 157 q 401 134 378 157 q 424 79 424 111 q 401 23 424 46 q 346 0 378 0 q 290 23 313 0 q 267 79 267 46 m 465 874 q 488 928 465 906 q 543 951 511 951 q 599 928 576 951 q 622 874 622 906 q 599 817 622 840 q 543 794 576 794 q 488 817 511 794 q 465 874 465 840 m 465 476 q 488 531 465 508 q 543 554 511 554 q 599 531 576 554 q 622 476 622 508 q 599 420 622 443 q 543 397 576 397 q 488 420 511 397 q 465 476 465 443 m 465 79 q 488 134 465 111 q 543 157 511 157 q 599 134 576 157 q 622 79 622 111 q 599 23 622 46 q 543 0 576 0 q 488 23 511 0 q 465 79 465 46 m 664 874 q 687 928 664 906 q 742 951 710 951 q 798 928 775 951 q 821 874 821 906 q 798 817 821 840 q 742 794 775 794 q 687 817 710 794 q 664 874 664 840 m 664 476 q 687 531 664 508 q 742 554 710 554 q 798 531 775 554 q 821 476 821 508 q 798 420 821 443 q 742 397 775 397 q 687 420 710 397 q 664 476 664 443 m 664 79 q 687 134 664 111 q 742 157 710 157 q 798 134 775 157 q 821 79 821 111 q 798 23 821 46 q 742 0 775 0 q 687 23 710 0 q 664 79 664 46 m 465 1072 q 488 1127 465 1104 q 543 1150 511 1150 q 599 1127 576 1150 q 622 1072 622 1104 q 599 1016 622 1039 q 543 993 576 993 q 488 1016 511 993 q 465 1072 465 1039 m 269 1271 q 292 1326 269 1303 q 349 1349 315 1349 q 403 1326 381 1349 q 426 1271 426 1303 q 403 1215 426 1238 q 349 1192 381 1192 q 292 1215 315 1192 q 269 1271 269 1238 z "},"":{"ha":889,"x_min":68,"x_max":821,"o":"m 68 675 q 91 730 68 707 q 147 753 114 753 q 202 730 179 753 q 225 675 225 707 q 202 619 225 642 q 147 596 179 596 q 91 619 114 596 q 68 675 68 642 m 68 476 q 91 531 68 508 q 147 554 114 554 q 202 531 179 554 q 225 476 225 508 q 202 420 225 443 q 147 397 179 397 q 91 420 114 397 q 68 476 68 443 m 68 278 q 91 333 68 310 q 147 356 114 356 q 202 333 179 356 q 225 278 225 310 q 202 222 225 244 q 147 199 179 199 q 91 222 114 199 q 68 278 68 244 m 267 874 q 290 928 267 906 q 346 951 313 951 q 401 928 378 951 q 424 874 424 906 q 401 817 424 840 q 346 794 378 794 q 290 817 313 794 q 267 874 267 840 m 267 476 q 290 531 267 508 q 346 554 313 554 q 401 531 378 554 q 424 476 424 508 q 401 420 424 443 q 346 397 378 397 q 290 420 313 397 q 267 476 267 443 m 267 79 q 290 134 267 111 q 346 157 313 157 q 401 134 378 157 q 424 79 424 111 q 401 23 424 46 q 346 0 378 0 q 290 23 313 0 q 267 79 267 46 m 465 874 q 488 928 465 906 q 543 951 511 951 q 599 928 576 951 q 622 874 622 906 q 599 817 622 840 q 543 794 576 794 q 488 817 511 794 q 465 874 465 840 m 465 476 q 488 531 465 508 q 543 554 511 554 q 599 531 576 554 q 622 476 622 508 q 599 420 622 443 q 543 397 576 397 q 488 420 511 397 q 465 476 465 443 m 465 79 q 488 134 465 111 q 543 157 511 157 q 599 134 576 157 q 622 79 622 111 q 599 23 622 46 q 543 0 576 0 q 488 23 511 0 q 465 79 465 46 m 664 874 q 687 928 664 906 q 742 951 710 951 q 798 928 775 951 q 821 874 821 906 q 798 817 821 840 q 742 794 775 794 q 687 817 710 794 q 664 874 664 840 m 664 476 q 687 531 664 508 q 742 554 710 554 q 798 531 775 554 q 821 476 821 508 q 798 420 821 443 q 742 397 775 397 q 687 420 710 397 q 664 476 664 443 m 664 79 q 687 134 664 111 q 742 157 710 157 q 798 134 775 157 q 821 79 821 111 q 798 23 821 46 q 742 0 775 0 q 687 23 710 0 q 664 79 664 46 m 267 1072 q 290 1127 267 1104 q 346 1150 313 1150 q 401 1127 378 1150 q 424 1072 424 1104 q 401 1016 424 1039 q 346 993 378 993 q 290 1016 313 993 q 267 1072 267 1039 m 468 1271 q 491 1326 468 1303 q 547 1349 514 1349 q 602 1326 579 1349 q 625 1271 625 1303 q 602 1215 625 1238 q 547 1192 579 1192 q 491 1215 514 1192 q 468 1271 468 1238 z "},"":{"ha":889,"x_min":68,"x_max":821,"o":"m 68 675 q 91 730 68 707 q 147 753 114 753 q 202 730 179 753 q 225 675 225 707 q 202 619 225 642 q 147 596 179 596 q 91 619 114 596 q 68 675 68 642 m 68 476 q 91 531 68 508 q 147 554 114 554 q 202 531 179 554 q 225 476 225 508 q 202 420 225 443 q 147 397 179 397 q 91 420 114 397 q 68 476 68 443 m 68 278 q 91 333 68 310 q 147 356 114 356 q 202 333 179 356 q 225 278 225 310 q 202 222 225 244 q 147 199 179 199 q 91 222 114 199 q 68 278 68 244 m 267 874 q 290 928 267 906 q 346 951 313 951 q 401 928 378 951 q 424 874 424 906 q 401 817 424 840 q 346 794 378 794 q 290 817 313 794 q 267 874 267 840 m 267 476 q 290 531 267 508 q 346 554 313 554 q 401 531 378 554 q 424 476 424 508 q 401 420 424 443 q 346 397 378 397 q 290 420 313 397 q 267 476 267 443 m 267 79 q 290 134 267 111 q 346 157 313 157 q 401 134 378 157 q 424 79 424 111 q 401 23 424 46 q 346 0 378 0 q 290 23 313 0 q 267 79 267 46 m 465 874 q 488 928 465 906 q 543 951 511 951 q 599 928 576 951 q 622 874 622 906 q 599 817 622 840 q 543 794 576 794 q 488 817 511 794 q 465 874 465 840 m 465 476 q 488 531 465 508 q 543 554 511 554 q 599 531 576 554 q 622 476 622 508 q 599 420 622 443 q 543 397 576 397 q 488 420 511 397 q 465 476 465 443 m 465 79 q 488 134 465 111 q 543 157 511 157 q 599 134 576 157 q 622 79 622 111 q 599 23 622 46 q 543 0 576 0 q 488 23 511 0 q 465 79 465 46 m 664 874 q 687 928 664 906 q 742 951 710 951 q 798 928 775 951 q 821 874 821 906 q 798 817 821 840 q 742 794 775 794 q 687 817 710 794 q 664 874 664 840 m 664 476 q 687 531 664 508 q 742 554 710 554 q 798 531 775 554 q 821 476 821 508 q 798 420 821 443 q 742 397 775 397 q 687 420 710 397 q 664 476 664 443 m 664 79 q 687 134 664 111 q 742 157 710 157 q 798 134 775 157 q 821 79 821 111 q 798 23 821 46 q 742 0 775 0 q 687 23 710 0 q 664 79 664 46 m 267 1072 q 290 1127 267 1104 q 346 1150 313 1150 q 401 1127 378 1150 q 424 1072 424 1104 q 401 1016 424 1039 q 346 993 378 993 q 290 1016 313 993 q 267 1072 267 1039 m 664 1072 q 687 1127 664 1104 q 742 1150 710 1150 q 798 1127 775 1150 q 821 1072 821 1104 q 798 1016 821 1039 q 742 993 775 993 q 687 1016 710 993 q 664 1072 664 1039 m 468 1271 q 491 1326 468 1303 q 547 1349 514 1349 q 602 1326 579 1349 q 625 1271 625 1303 q 602 1215 625 1238 q 547 1192 579 1192 q 491 1215 514 1192 q 468 1271 468 1238 z "},"":{"ha":889,"x_min":68,"x_max":821,"o":"m 68 675 q 91 730 68 707 q 147 753 114 753 q 202 730 179 753 q 225 675 225 707 q 202 619 225 642 q 147 596 179 596 q 91 619 114 596 q 68 675 68 642 m 68 476 q 91 531 68 508 q 147 554 114 554 q 202 531 179 554 q 225 476 225 508 q 202 420 225 443 q 147 397 179 397 q 91 420 114 397 q 68 476 68 443 m 68 278 q 91 333 68 310 q 147 356 114 356 q 202 333 179 356 q 225 278 225 310 q 202 222 225 244 q 147 199 179 199 q 91 222 114 199 q 68 278 68 244 m 267 874 q 290 928 267 906 q 346 951 313 951 q 401 928 378 951 q 424 874 424 906 q 401 817 424 840 q 346 794 378 794 q 290 817 313 794 q 267 874 267 840 m 267 476 q 290 531 267 508 q 346 554 313 554 q 401 531 378 554 q 424 476 424 508 q 401 420 424 443 q 346 397 378 397 q 290 420 313 397 q 267 476 267 443 m 267 79 q 290 134 267 111 q 346 157 313 157 q 401 134 378 157 q 424 79 424 111 q 401 23 424 46 q 346 0 378 0 q 290 23 313 0 q 267 79 267 46 m 465 874 q 488 928 465 906 q 543 951 511 951 q 599 928 576 951 q 622 874 622 906 q 599 817 622 840 q 543 794 576 794 q 488 817 511 794 q 465 874 465 840 m 465 476 q 488 531 465 508 q 543 554 511 554 q 599 531 576 554 q 622 476 622 508 q 599 420 622 443 q 543 397 576 397 q 488 420 511 397 q 465 476 465 443 m 465 79 q 488 134 465 111 q 543 157 511 157 q 599 134 576 157 q 622 79 622 111 q 599 23 622 46 q 543 0 576 0 q 488 23 511 0 q 465 79 465 46 m 664 874 q 687 928 664 906 q 742 951 710 951 q 798 928 775 951 q 821 874 821 906 q 798 817 821 840 q 742 794 775 794 q 687 817 710 794 q 664 874 664 840 m 664 476 q 687 531 664 508 q 742 554 710 554 q 798 531 775 554 q 821 476 821 508 q 798 420 821 443 q 742 397 775 397 q 687 420 710 397 q 664 476 664 443 m 664 79 q 687 134 664 111 q 742 157 710 157 q 798 134 775 157 q 821 79 821 111 q 798 23 821 46 q 742 0 775 0 q 687 23 710 0 q 664 79 664 46 m 68 1072 q 91 1127 68 1104 q 147 1150 114 1150 q 202 1127 179 1150 q 225 1072 225 1104 q 202 1016 225 1039 q 147 993 179 993 q 91 1016 114 993 q 68 1072 68 1039 m 664 1072 q 687 1127 664 1104 q 742 1150 710 1150 q 798 1127 775 1150 q 821 1072 821 1104 q 798 1016 821 1039 q 742 993 775 993 q 687 1016 710 993 q 664 1072 664 1039 z "},"":{"ha":489,"x_min":68,"x_max":421,"o":"m 264 675 q 287 730 264 707 q 342 753 310 753 q 398 730 375 753 q 421 675 421 707 q 398 619 421 642 q 342 596 375 596 q 287 619 310 596 q 264 675 264 642 m 264 476 q 287 531 264 508 q 342 554 310 554 q 398 531 375 554 q 421 476 421 508 q 398 420 421 443 q 342 397 375 397 q 287 420 310 397 q 264 476 264 443 m 264 278 q 287 333 264 310 q 342 356 310 356 q 398 333 375 356 q 421 278 421 310 q 398 222 421 244 q 342 199 375 199 q 287 222 310 199 q 264 278 264 244 m 264 79 q 287 134 264 111 q 342 157 310 157 q 398 134 375 157 q 421 79 421 111 q 398 23 421 46 q 342 0 375 0 q 287 23 310 0 q 264 79 264 46 m 264 1072 q 287 1127 264 1104 q 342 1150 310 1150 q 398 1127 375 1150 q 421 1072 421 1104 q 398 1016 421 1039 q 342 993 375 993 q 287 1016 310 993 q 264 1072 264 1039 m 68 1271 q 91 1326 68 1303 q 147 1349 114 1349 q 202 1326 179 1349 q 225 1271 225 1303 q 202 1215 225 1238 q 147 1192 179 1192 q 91 1215 114 1192 q 68 1271 68 1238 z "},"":{"ha":489,"x_min":65,"x_max":424,"o":"m 65 675 q 88 730 65 707 q 143 753 111 753 q 199 730 176 753 q 222 675 222 707 q 199 619 222 642 q 143 596 176 596 q 88 619 111 596 q 65 675 65 642 m 65 476 q 88 531 65 508 q 143 554 111 554 q 199 531 176 554 q 222 476 222 508 q 199 420 222 443 q 143 397 176 397 q 88 420 111 397 q 65 476 65 443 m 65 278 q 88 333 65 310 q 143 356 111 356 q 199 333 176 356 q 222 278 222 310 q 199 222 222 244 q 143 199 176 199 q 88 222 111 199 q 65 278 65 244 m 65 79 q 88 134 65 111 q 143 157 111 157 q 199 134 176 157 q 222 79 222 111 q 199 23 222 46 q 143 0 176 0 q 88 23 111 0 q 65 79 65 46 m 65 1072 q 88 1127 65 1104 q 143 1150 111 1150 q 199 1127 176 1150 q 222 1072 222 1104 q 199 1016 222 1039 q 143 993 176 993 q 88 1016 111 993 q 65 1072 65 1039 m 267 1271 q 290 1326 267 1303 q 346 1349 313 1349 q 401 1326 378 1349 q 424 1271 424 1303 q 401 1215 424 1238 q 346 1192 378 1192 q 290 1215 313 1192 q 267 1271 267 1238 z "},"":{"ha":689,"x_min":67,"x_max":622,"o":"m 265 675 q 289 730 265 707 q 344 753 313 753 q 400 730 376 753 q 424 675 424 707 q 400 619 424 642 q 344 596 376 596 q 289 619 313 596 q 265 675 265 642 m 265 476 q 289 531 265 508 q 344 554 313 554 q 400 531 376 554 q 424 476 424 508 q 400 420 424 443 q 344 397 376 397 q 289 420 313 397 q 265 476 265 443 m 265 278 q 289 333 265 310 q 344 356 313 356 q 400 333 376 356 q 424 278 424 310 q 400 222 424 244 q 344 199 376 199 q 289 222 313 199 q 265 278 265 244 m 265 79 q 289 134 265 111 q 344 157 313 157 q 400 134 376 157 q 424 79 424 111 q 400 23 424 46 q 344 0 376 0 q 289 23 313 0 q 265 79 265 46 m 67 1072 q 90 1127 67 1104 q 146 1150 114 1150 q 201 1127 178 1150 q 225 1072 225 1104 q 201 1016 225 1039 q 146 993 178 993 q 90 1016 114 993 q 67 1072 67 1039 m 464 1072 q 488 1127 464 1104 q 543 1150 511 1150 q 599 1127 575 1150 q 622 1072 622 1104 q 599 1016 622 1039 q 543 993 575 993 q 488 1016 511 993 q 464 1072 464 1039 m 269 1271 q 292 1326 269 1303 q 347 1349 315 1349 q 403 1326 381 1349 q 426 1271 426 1303 q 403 1215 426 1238 q 347 1192 381 1192 q 292 1215 315 1192 q 269 1271 269 1238 z "},"":{"ha":689,"x_min":67,"x_max":622,"o":"m 265 675 q 289 730 265 707 q 344 753 313 753 q 400 730 376 753 q 424 675 424 707 q 400 619 424 642 q 344 596 376 596 q 289 619 313 596 q 265 675 265 642 m 265 476 q 289 531 265 508 q 344 554 313 554 q 400 531 376 554 q 424 476 424 508 q 400 420 424 443 q 344 397 376 397 q 289 420 313 397 q 265 476 265 443 m 265 278 q 289 333 265 310 q 344 356 313 356 q 400 333 376 356 q 424 278 424 310 q 400 222 424 244 q 344 199 376 199 q 289 222 313 199 q 265 278 265 244 m 265 79 q 289 134 265 111 q 344 157 313 157 q 400 134 376 157 q 424 79 424 111 q 400 23 424 46 q 344 0 376 0 q 289 23 313 0 q 265 79 265 46 m 67 1072 q 90 1127 67 1104 q 146 1150 114 1150 q 201 1127 178 1150 q 225 1072 225 1104 q 201 1016 225 1039 q 146 993 178 993 q 90 1016 114 993 q 67 1072 67 1039 m 464 1072 q 488 1127 464 1104 q 543 1150 511 1150 q 599 1127 575 1150 q 622 1072 622 1104 q 599 1016 622 1039 q 543 993 575 993 q 488 1016 511 993 q 464 1072 464 1039 z "},"":{"ha":1086,"x_min":67,"x_max":1019,"o":"m 67 476 q 90 531 67 508 q 146 554 114 554 q 201 531 178 554 q 225 476 225 508 q 201 420 225 443 q 146 397 178 397 q 90 420 114 397 q 67 476 67 443 m 265 874 q 289 928 265 906 q 344 951 313 951 q 400 928 376 951 q 424 874 424 906 q 400 817 424 840 q 344 794 376 794 q 289 817 313 794 q 265 874 265 840 m 265 675 q 289 730 265 707 q 344 753 313 753 q 400 730 376 753 q 424 675 424 707 q 400 619 424 642 q 344 596 376 596 q 289 619 313 596 q 265 675 265 642 m 265 476 q 289 531 265 508 q 344 554 313 554 q 400 531 376 554 q 424 476 424 508 q 400 420 424 443 q 344 397 376 397 q 289 420 313 397 q 265 476 265 443 m 265 278 q 289 333 265 310 q 344 356 313 356 q 400 333 376 356 q 424 278 424 310 q 400 222 424 244 q 344 199 376 199 q 289 222 313 199 q 265 278 265 244 m 265 79 q 289 134 265 111 q 344 157 313 157 q 400 134 376 157 q 424 79 424 111 q 400 23 424 46 q 344 0 376 0 q 289 23 313 0 q 265 79 265 46 m 464 874 q 488 928 464 906 q 543 951 511 951 q 599 928 575 951 q 622 874 622 906 q 599 817 622 840 q 543 794 575 794 q 488 817 511 794 q 464 874 464 840 m 464 476 q 488 531 464 508 q 543 554 511 554 q 599 531 575 554 q 622 476 622 508 q 599 420 622 443 q 543 397 575 397 q 488 420 511 397 q 464 476 464 443 m 464 79 q 488 134 464 111 q 543 157 511 157 q 599 134 575 157 q 622 79 622 111 q 599 23 622 46 q 543 0 575 0 q 488 23 511 0 q 464 79 464 46 m 663 874 q 686 928 663 906 q 742 951 710 951 q 797 928 774 951 q 821 874 821 906 q 797 817 821 840 q 742 794 774 794 q 686 817 710 794 q 663 874 663 840 m 663 79 q 686 134 663 111 q 742 157 710 157 q 797 134 774 157 q 821 79 821 111 q 797 23 821 46 q 742 0 774 0 q 686 23 710 0 q 663 79 663 46 m 861 675 q 885 730 861 707 q 940 753 908 753 q 996 730 972 753 q 1019 675 1019 707 q 996 619 1019 642 q 940 596 972 596 q 885 619 908 596 q 861 675 861 642 m 861 476 q 885 531 861 508 q 940 554 908 554 q 996 531 972 554 q 1019 476 1019 508 q 996 420 1019 443 q 940 397 972 397 q 885 420 908 397 q 861 476 861 443 m 861 278 q 885 333 861 310 q 940 356 908 356 q 996 333 972 356 q 1019 278 1019 310 q 996 222 1019 244 q 940 199 972 199 q 885 222 908 199 q 861 278 861 244 z "},"":{"ha":1086,"x_min":65,"x_max":1021,"o":"m 65 874 q 88 928 65 906 q 144 951 111 951 q 199 928 176 951 q 222 874 222 906 q 199 817 222 840 q 144 794 176 794 q 88 817 111 794 q 65 874 65 840 m 65 675 q 88 730 65 707 q 144 753 111 753 q 199 730 176 753 q 222 675 222 707 q 199 619 222 642 q 144 596 176 596 q 88 619 111 596 q 65 675 65 642 m 65 476 q 88 531 65 508 q 144 554 111 554 q 199 531 176 554 q 222 476 222 508 q 199 420 222 443 q 144 397 176 397 q 88 420 111 397 q 65 476 65 443 m 65 278 q 88 333 65 310 q 144 356 111 356 q 199 333 176 356 q 222 278 222 310 q 199 222 222 244 q 144 199 176 199 q 88 222 111 199 q 65 278 65 244 m 65 79 q 88 134 65 111 q 144 157 111 157 q 199 134 176 157 q 222 79 222 111 q 199 23 222 46 q 144 0 176 0 q 88 23 111 0 q 65 79 65 46 m 264 675 q 287 730 264 707 q 343 753 310 753 q 398 730 375 753 q 421 675 421 707 q 398 619 421 642 q 343 596 375 596 q 287 619 310 596 q 264 675 264 642 m 463 476 q 485 531 463 508 q 542 554 508 554 q 597 531 574 554 q 619 476 619 508 q 597 420 619 443 q 542 397 574 397 q 485 420 508 397 q 463 476 463 443 m 661 278 q 684 333 661 310 q 740 356 707 356 q 795 333 772 356 q 818 278 818 310 q 795 222 818 244 q 740 199 772 199 q 684 222 707 199 q 661 278 661 244 m 860 874 q 883 928 860 906 q 939 951 906 951 q 994 928 971 951 q 1017 874 1017 906 q 994 817 1017 840 q 939 794 971 794 q 883 817 906 794 q 860 874 860 840 m 860 675 q 883 730 860 707 q 939 753 906 753 q 994 730 971 753 q 1017 675 1017 707 q 994 619 1017 642 q 939 596 971 596 q 883 619 906 596 q 860 675 860 642 m 860 476 q 883 531 860 508 q 939 554 906 554 q 994 531 971 554 q 1017 476 1017 508 q 994 420 1017 443 q 939 397 971 397 q 883 420 906 397 q 860 476 860 443 m 860 278 q 883 333 860 310 q 939 356 906 356 q 994 333 971 356 q 1017 278 1017 310 q 994 222 1017 244 q 939 199 971 199 q 883 222 906 199 q 860 278 860 244 m 860 79 q 883 134 860 111 q 939 157 906 157 q 994 134 971 157 q 1017 79 1017 111 q 994 23 1017 46 q 939 0 971 0 q 883 23 906 0 q 860 79 860 46 m 264 1072 q 287 1127 264 1104 q 343 1150 310 1150 q 398 1127 375 1150 q 421 1072 421 1104 q 398 1016 421 1039 q 343 993 375 993 q 287 1016 310 993 q 264 1072 264 1039 m 661 1072 q 684 1127 661 1104 q 740 1150 707 1150 q 795 1127 772 1150 q 818 1072 818 1104 q 795 1016 818 1039 q 740 993 772 993 q 684 1016 707 993 q 661 1072 661 1039 m 467 1271 q 490 1326 467 1303 q 544 1349 513 1349 q 601 1326 578 1349 q 624 1271 624 1303 q 601 1215 624 1238 q 544 1192 578 1192 q 490 1215 513 1192 q 467 1271 467 1238 m 864 1271 q 887 1326 864 1303 q 942 1349 910 1349 q 998 1326 975 1349 q 1021 1271 1021 1303 q 998 1215 1021 1238 q 942 1192 975 1192 q 887 1215 910 1192 q 864 1271 864 1238 z "},"":{"ha":889,"x_min":68,"x_max":821,"o":"m 465 1072 q 488 1127 465 1104 q 543 1150 511 1150 q 599 1127 576 1150 q 622 1072 622 1104 q 599 1016 622 1039 q 543 993 576 993 q 488 1016 511 993 q 465 1072 465 1039 m 269 1271 q 292 1326 269 1303 q 349 1349 315 1349 q 403 1326 381 1349 q 426 1271 426 1303 q 403 1215 426 1238 q 349 1192 381 1192 q 292 1215 315 1192 q 269 1271 269 1238 m 68 675 q 91 730 68 707 q 147 753 114 753 q 202 730 179 753 q 225 675 225 707 q 202 619 225 642 q 147 596 179 596 q 91 619 114 596 q 68 675 68 642 m 68 476 q 91 531 68 508 q 147 554 114 554 q 202 531 179 554 q 225 476 225 508 q 202 420 225 443 q 147 397 179 397 q 91 420 114 397 q 68 476 68 443 m 68 278 q 91 333 68 310 q 147 356 114 356 q 202 333 179 356 q 225 278 225 310 q 202 222 225 244 q 147 199 179 199 q 91 222 114 199 q 68 278 68 244 m 267 874 q 290 928 267 906 q 346 951 313 951 q 401 928 378 951 q 424 874 424 906 q 401 817 424 840 q 346 794 378 794 q 290 817 313 794 q 267 874 267 840 m 267 79 q 290 134 267 111 q 346 157 313 157 q 401 134 378 157 q 424 79 424 111 q 401 23 424 46 q 346 0 378 0 q 290 23 313 0 q 267 79 267 46 m 465 874 q 488 928 465 906 q 543 951 511 951 q 599 928 576 951 q 622 874 622 906 q 599 817 622 840 q 543 794 576 794 q 488 817 511 794 q 465 874 465 840 m 465 79 q 488 134 465 111 q 543 157 511 157 q 599 134 576 157 q 622 79 622 111 q 599 23 622 46 q 543 0 576 0 q 488 23 511 0 q 465 79 465 46 m 664 675 q 687 730 664 707 q 742 753 710 753 q 798 730 775 753 q 821 675 821 707 q 798 619 821 642 q 742 596 775 596 q 687 619 710 596 q 664 675 664 642 m 664 476 q 687 531 664 508 q 742 554 710 554 q 798 531 775 554 q 821 476 821 508 q 798 420 821 443 q 742 397 775 397 q 687 420 710 397 q 664 476 664 443 m 664 278 q 687 333 664 310 q 742 356 710 356 q 798 333 775 356 q 821 278 821 310 q 798 222 821 244 q 742 199 775 199 q 687 222 710 199 q 664 278 664 244 z "},"":{"ha":889,"x_min":68,"x_max":821,"o":"m 267 1072 q 290 1127 267 1104 q 346 1150 313 1150 q 401 1127 378 1150 q 424 1072 424 1104 q 401 1016 424 1039 q 346 993 378 993 q 290 1016 313 993 q 267 1072 267 1039 m 468 1271 q 491 1326 468 1303 q 547 1349 514 1349 q 602 1326 579 1349 q 625 1271 625 1303 q 602 1215 625 1238 q 547 1192 579 1192 q 491 1215 514 1192 q 468 1271 468 1238 m 68 675 q 91 730 68 707 q 147 753 114 753 q 202 730 179 753 q 225 675 225 707 q 202 619 225 642 q 147 596 179 596 q 91 619 114 596 q 68 675 68 642 m 68 476 q 91 531 68 508 q 147 554 114 554 q 202 531 179 554 q 225 476 225 508 q 202 420 225 443 q 147 397 179 397 q 91 420 114 397 q 68 476 68 443 m 68 278 q 91 333 68 310 q 147 356 114 356 q 202 333 179 356 q 225 278 225 310 q 202 222 225 244 q 147 199 179 199 q 91 222 114 199 q 68 278 68 244 m 267 874 q 290 928 267 906 q 346 951 313 951 q 401 928 378 951 q 424 874 424 906 q 401 817 424 840 q 346 794 378 794 q 290 817 313 794 q 267 874 267 840 m 267 79 q 290 134 267 111 q 346 157 313 157 q 401 134 378 157 q 424 79 424 111 q 401 23 424 46 q 346 0 378 0 q 290 23 313 0 q 267 79 267 46 m 465 874 q 488 928 465 906 q 543 951 511 951 q 599 928 576 951 q 622 874 622 906 q 599 817 622 840 q 543 794 576 794 q 488 817 511 794 q 465 874 465 840 m 465 79 q 488 134 465 111 q 543 157 511 157 q 599 134 576 157 q 622 79 622 111 q 599 23 622 46 q 543 0 576 0 q 488 23 511 0 q 465 79 465 46 m 664 675 q 687 730 664 707 q 742 753 710 753 q 798 730 775 753 q 821 675 821 707 q 798 619 821 642 q 742 596 775 596 q 687 619 710 596 q 664 675 664 642 m 664 476 q 687 531 664 508 q 742 554 710 554 q 798 531 775 554 q 821 476 821 508 q 798 420 821 443 q 742 397 775 397 q 687 420 710 397 q 664 476 664 443 m 664 278 q 687 333 664 310 q 742 356 710 356 q 798 333 775 356 q 821 278 821 310 q 798 222 821 244 q 742 199 775 199 q 687 222 710 199 q 664 278 664 244 z "},"":{"ha":889,"x_min":68,"x_max":821,"o":"m 267 1072 q 290 1127 267 1104 q 346 1150 313 1150 q 401 1127 378 1150 q 424 1072 424 1104 q 401 1016 424 1039 q 346 993 378 993 q 290 1016 313 993 q 267 1072 267 1039 m 664 1072 q 687 1127 664 1104 q 742 1150 710 1150 q 798 1127 775 1150 q 821 1072 821 1104 q 798 1016 821 1039 q 742 993 775 993 q 687 1016 710 993 q 664 1072 664 1039 m 468 1271 q 491 1326 468 1303 q 547 1349 514 1349 q 602 1326 579 1349 q 625 1271 625 1303 q 602 1215 625 1238 q 547 1192 579 1192 q 491 1215 514 1192 q 468 1271 468 1238 m 68 675 q 91 730 68 707 q 147 753 114 753 q 202 730 179 753 q 225 675 225 707 q 202 619 225 642 q 147 596 179 596 q 91 619 114 596 q 68 675 68 642 m 68 476 q 91 531 68 508 q 147 554 114 554 q 202 531 179 554 q 225 476 225 508 q 202 420 225 443 q 147 397 179 397 q 91 420 114 397 q 68 476 68 443 m 68 278 q 91 333 68 310 q 147 356 114 356 q 202 333 179 356 q 225 278 225 310 q 202 222 225 244 q 147 199 179 199 q 91 222 114 199 q 68 278 68 244 m 267 874 q 290 928 267 906 q 346 951 313 951 q 401 928 378 951 q 424 874 424 906 q 401 817 424 840 q 346 794 378 794 q 290 817 313 794 q 267 874 267 840 m 267 79 q 290 134 267 111 q 346 157 313 157 q 401 134 378 157 q 424 79 424 111 q 401 23 424 46 q 346 0 378 0 q 290 23 313 0 q 267 79 267 46 m 465 874 q 488 928 465 906 q 543 951 511 951 q 599 928 576 951 q 622 874 622 906 q 599 817 622 840 q 543 794 576 794 q 488 817 511 794 q 465 874 465 840 m 465 79 q 488 134 465 111 q 543 157 511 157 q 599 134 576 157 q 622 79 622 111 q 599 23 622 46 q 543 0 576 0 q 488 23 511 0 q 465 79 465 46 m 664 675 q 687 730 664 707 q 742 753 710 753 q 798 730 775 753 q 821 675 821 707 q 798 619 821 642 q 742 596 775 596 q 687 619 710 596 q 664 675 664 642 m 664 476 q 687 531 664 508 q 742 554 710 554 q 798 531 775 554 q 821 476 821 508 q 798 420 821 443 q 742 397 775 397 q 687 420 710 397 q 664 476 664 443 m 664 278 q 687 333 664 310 q 742 356 710 356 q 798 333 775 356 q 821 278 821 310 q 798 222 821 244 q 742 199 775 199 q 687 222 710 199 q 664 278 664 244 z "}}}
